<svg xmlns="http://www.w3.org/2000/svg" viewBox="0 0 1200 750" width="1200" height="750" role="img">
<title>鹈鹕海边骑行 - Pelican Cycling by the Sea</title>
<defs>
  <linearGradient id="sky" x1="0" y1="0" x2="0" y2="1">
    <stop offset="0%" stop-color="#6ec1ff"/><stop offset="38%" stop-color="#a9ddff"/><stop offset="68%" stop-color="#d6edff"/><stop offset="100%" stop-color="#eaf6ff"/>
  </linearGradient>
  <linearGradient id="sea" x1="0" y1="0" x2="0" y2="1">
    <stop offset="0%" stop-color="#2a7ab8"/><stop offset="35%" stop-color="#3a9ad6"/><stop offset="72%" stop-color="#5fb7e8"/><stop offset="100%" stop-color="#8fd0f0"/>
  </linearGradient>
  <linearGradient id="sand" x1="0" y1="0" x2="0" y2="1">
    <stop offset="0%" stop-color="#f2e6b8"/><stop offset="45%" stop-color="#e8d5a0"/><stop offset="100%" stop-color="#d9c48a"/>
  </linearGradient>
  <linearGradient id="road" x1="0" y1="0" x2="0" y2="1">
    <stop offset="0%" stop-color="#e9eef3"/><stop offset="100%" stop-color="#d1d8e0"/>
  </linearGradient>
  <radialGradient id="sun" cx="0.32" cy="0.28" r="0.7">
    <stop offset="0%" stop-color="#fff8d0"/><stop offset="28%" stop-color="#ffec8a"/><stop offset="58%" stop-color="#ffbf4a"/><stop offset="100%" stop-color="#ff8a2a" stop-opacity="0"/>
  </radialGradient>
  <linearGradient id="pelBody" x1="0" y1="0" x2="0" y2="1">
    <stop offset="0%" stop-color="#ffffff"/><stop offset="22%" stop-color="#f6f7f8"/><stop offset="55%" stop-color="#eceef0"/><stop offset="100%" stop-color="#d6dade"/>
  </linearGradient>
  <linearGradient id="pelWing" x1="0" y1="0" x2="1" y2="1">
    <stop offset="0%" stop-color="#ffffff"/><stop offset="38%" stop-color="#eef1f3"/><stop offset="68%" stop-color="#c9ced4"/><stop offset="100%" stop-color="#9aa3ad"/>
  </linearGradient>
  <linearGradient id="beakTop" x1="0" y1="0" x2="1" y2="0">
    <stop offset="0%" stop-color="#ffb86b"/><stop offset="38%" stop-color="#ff9a3a"/><stop offset="82%" stop-color="#ff7a18"/><stop offset="100%" stop-color="#e85d0f"/>
  </linearGradient>
  <linearGradient id="beakBot" x1="0" y1="0" x2="1" y2="0">
    <stop offset="0%" stop-color="#ffad55"/><stop offset="100%" stop-color="#ff6b1a"/>
  </linearGradient>
  <linearGradient id="pouch" x1="0" y1="0" x2="0" y2="1">
    <stop offset="0%" stop-color="#ff8a3a" stop-opacity="0.95"/><stop offset="35%" stop-color="#ff6b2a" stop-opacity="0.72"/><stop offset="100%" stop-color="#d94a12" stop-opacity="0.55"/>
  </linearGradient>
  <linearGradient id="leg" x1="0" y1="0" x2="1" y2="0">
    <stop offset="0%" stop-color="#ff8a1a"/><stop offset="100%" stop-color="#ff5a0a"/>
  </linearGradient>
  <linearGradient id="bikeFrame" x1="0" y1="0" x2="1" y2="1">
    <stop offset="0%" stop-color="#2ec4ff"/><stop offset="52%" stop-color="#1a8fd6"/><stop offset="100%" stop-color="#0f4a7a"/>
  </linearGradient>
  <linearGradient id="bikeAccent" x1="0" y1="0" x2="1" y2="0">
    <stop offset="0%" stop-color="#fff6a0"/><stop offset="100%" stop-color="#ffbf2a"/>
  </linearGradient>
  <filter id="softShadow" x="-30%" y="-30%" width="160%" height="160%">
    <feDropShadow dx="0" dy="8" stdDeviation="10" flood-color="#0a2a4a" flood-opacity="0.22"/>
  </filter>
  <filter id="beakShadow" x="-20%" y="-20%" width="140%" height="140%">
    <feDropShadow dx="0" dy="2" stdDeviation="2.5" flood-color="#7a2a00" flood-opacity="0.28"/>
  </filter>
</defs>

<!-- 画布 -->
<rect width="1200" height="750" fill="url(#sky)"/>
<!-- 太阳光晕 -->
<circle cx="980" cy="132" r="118" fill="url(#sun)" opacity="0.95"/>
<circle cx="985" cy="128" r="42" fill="#fff7b0" opacity="0.96"/>
<circle cx="985" cy="128" r="28" fill="#fffef2" opacity="0.98"/>

<!-- 远景云 -->
<g opacity="0.92" fill="#ffffff">
  <ellipse cx="210" cy="118" rx="62" ry="18"/><ellipse cx="245" cy="108" rx="44" ry="16"/><ellipse cx="180" cy="128" rx="38" ry="13"/>
  <ellipse cx="620" cy="92" rx="52" ry="15"/><ellipse cx="650" cy="84" rx="36" ry="13"/><ellipse cx="590" cy="98" rx="30" ry="11"/>
  <ellipse cx="470" cy="142" rx="38" ry="12"/><ellipse cx="495" cy="134" rx="26" ry="10"/>
  <ellipse cx="820" cy="110" rx="48" ry="14"/><ellipse cx="848" cy="102" rx="32" ry="12"/>
</g>

<!-- 远海与地平线 -->
<rect x="0" y="258" width="1200" height="168" fill="url(#sea)"/>
<!-- 波光 -->
<g stroke="#ffffff" stroke-linecap="round" opacity="0.42">
  <path d="M40 312 Q90 304 140 312 T240 312" fill="none" stroke-width="2.2"/>
  <path d="M280 298 Q320 290 360 298 T440 298" fill="none" stroke-width="1.8" opacity="0.55"/>
  <path d="M540 318 Q585 308 630 318 T720 318" fill="none" stroke-width="2"/>
  <path d="M780 302 Q820 294 860 302 T940 302" fill="none" stroke-width="1.7" opacity="0.5"/>
  <path d="M1020 314 Q1050 306 1080 314 T1140 314" fill="none" stroke-width="1.6" opacity="0.38"/>
</g>
<!-- 远山岛影 -->
<path d="M0 258 L120 222 L210 248 L320 208 L420 246 L540 218 L640 252 L760 224 L860 258 Z" fill="#1a3a5a" opacity="0.18"/>
<path d="M0 268 L140 240 L240 262 L360 232 L480 268 L620 242 L760 268 L900 248 L1200 272 L1200 285 L0 285 Z" fill="#244a6e" opacity="0.12"/>

<!-- 海浪泡沫线 -->
<g fill="none" stroke="#ffffff" opacity="0.78" stroke-linecap="round">
  <path d="M0 424 Q60 418 120 424 T240 424 T360 424" stroke-width="3.2"/>
  <path d="M360 424 Q420 418 480 424 T600 424 T720 424" stroke-width="3.2"/>
  <path d="M720 424 Q780 418 840 424 T960 424 T1080 424" stroke-width="3.2"/>
  <path d="M1080 424 Q1110 418 1140 424" stroke-width="3.2"/>
</g>
<g fill="#ffffff" opacity="0.92">
  <ellipse cx="180" cy="428" rx="14" ry="4.5"/><ellipse cx="420" cy="427" rx="11" ry="3.8"/><ellipse cx="680" cy="429" rx="13" ry="4.2"/><ellipse cx="920" cy="428" rx="12" ry="4"/>
  <ellipse cx="310" cy="431" rx="7" ry="2.6" opacity="0.7"/><ellipse cx="760" cy="432" rx="8" ry="2.8" opacity="0.68"/>
</g>

<!-- 沙滩 -->
<rect x="0" y="426" width="1200" height="324" fill="url(#sand)"/>
<!-- 沙地纹理点 -->
<g fill="#d9c48a" opacity="0.45">
  <circle cx="74" cy="560" r="1.4"/><circle cx="132" cy="612" r="1.2"/><circle cx="210" cy="548" r="1.1"/><circle cx="304" cy="678" r="1.3"/><circle cx="410" cy="592" r="1.2"/><circle cx="520" cy="642" r="1.1"/><circle cx="640" cy="578" r="1.2"/><circle cx="740" cy="658" r="1.3"/><circle cx="860" cy="602" r="1.1"/><circle cx="980" cy="562" r="1.2"/><circle cx="1080" cy="632" r="1.2"/>
</g>
<!-- 滨海公路 -->
<rect x="0" y="478" width="1200" height="146" rx="2" fill="url(#road)"/>
<rect x="0" y="478" width="1200" height="10" fill="#cbd6e6" opacity="0.9"/>
<rect x="0" y="614" width="1200" height="10" fill="#cbd6e6" opacity="0.9"/>
<!-- 公路虚线中线 -->
<g stroke="#ffffff" stroke-width="4.5" stroke-dasharray="28 22" opacity="0.92" stroke-linecap="round">
  <line x1="0" y1="551" x2="1200" y2="551"/>
</g>
<g stroke="#ffbf2a" stroke-width="2.2" stroke-dasharray="2 14" opacity="0.35">
  <line x1="0" y1="559" x2="1200" y2="559"/>
</g>
<!-- 路面细微颗粒 -->
<g stroke="#b8c4d6" opacity="0.28" stroke-width="1">
  <line x1="120" y1="500" x2="180" y2="500"/><line x1="360" y1="588" x2="420" y2="588"/><line x1="740" y1="512" x2="800" y2="512"/><line x1="980" y1="594" x2="1040" y2="594"/>
</g>

<!-- 棕榈与远景装饰 -->
<g opacity="0.95">
  <!-- 棕榈1 -->
  <path d="M1028 478 C1032 452 1036 422 1038 392" stroke="#6b3a14" stroke-width="9" fill="none" stroke-linecap="round"/>
  <path d="M1038 392 C1022 376 1006 364 986 358 C1004 368 1016 382 1024 396 C1020 376 1008 360 988 348 C1008 360 1022 372 1034 388 C1046 372 1060 360 1080 348 C1060 360 1052 376 1052 396 C1060 382 1074 368 1092 358 C1072 364 1056 376 1042 392 Z" fill="#1d6b2a" stroke="#0f3d16" stroke-width="1.1"/>
  <path d="M1038 392 C1030 388 1022 384 1010 382 C1020 386 1030 390 1038 396 C1046 390 1056 386 1068 382 C1056 384 1048 388 1038 392 Z" fill="#2a8a36"/>
  <!-- 棕榈2 远 -->
  <path d="M168 424 C170 406 172 388 174 370" stroke="#7a4a18" stroke-width="5.5" fill="none" stroke-linecap="round" opacity="0.9"/>
  <path d="M174 370 C164 360 152 354 138 350 C150 356 160 364 166 374 C163 362 156 352 142 342 C154 352 162 362 168 372 C174 362 182 352 194 342 C182 352 177 362 176 374 C182 364 192 356 204 350 C190 354 180 360 174 370 Z" fill="#2a7a2a" opacity="0.92"/>
</g>

<!-- 飞翔海鸥 -->
<g fill="none" stroke="#2a3a52" stroke-width="1.9" stroke-linecap="round" opacity="0.72">
  <path d="M360 168 Q372 162 384 168 Q396 162 408 168"/><path d="M520 142 Q530 136 540 142 Q550 136 560 142"/><path d="M740 168 Q750 162 760 168 Q770 162 780 168"/><path d="M820 138 Q828 132 836 138 Q844 132 852 138" opacity="0.62"/>
  <path d="M458 118 Q464 114 470 118 Q476 114 482 118" opacity="0.52"/>
</g>

<!-- 速度感线条 -->
<g stroke="#ffffff" stroke-linecap="round" opacity="0.18">
  <line x1="40" y1="540" x2="140" y2="540" stroke-width="2.2"/>
  <line x1="40" y1="552" x2="110" y2="552" stroke-width="1.6"/>
  <line x1="980" y1="536" x2="1100" y2="536" stroke-width="2"/>
  <line x1="1000" y1="548" x2="1080" y2="548" stroke-width="1.5" opacity="0.9"/>
</g>

<!-- 自行车阴影 -->
<ellipse cx="600" cy="646" rx="148" ry="18" fill="#0a1a2e" opacity="0.14"/>
<ellipse cx="600" cy="650" rx="82" ry="7" fill="#0a1a2e" opacity="0.18"/>

<!-- ================= 自行车 ================= -->
<g id="bicycle" filter="url(#softShadow)">
  <!-- 轮胎阴影 -->
  <ellipse cx="462" cy="638" rx="78" ry="10" fill="#0a1a2e" opacity="0.13"/>
  <ellipse cx="728" cy="638" rx="78" ry="10" fill="#0a1a2e" opacity="0.13"/>

  <!-- 后轮 -->
  <g id="wheelRear">
    <circle cx="462" cy="546" r="78" fill="none" stroke="#1a2330" stroke-width="10" opacity="0.96"/>
    <circle cx="462" cy="546" r="78" fill="none" stroke="#2a3a4a" stroke-width="1.2" opacity="0.5"/>
    <circle cx="462" cy="546" r="66" fill="none" stroke="#cbd6e6" stroke-width="1" opacity="0.9"/>
    <circle cx="462" cy="546" r="14" fill="#e8eef3" stroke="#1a2330" stroke-width="2.2"/>
    <circle cx="462" cy="546" r="4.5" fill="#1a2330"/>
    <!-- 辐条 -->
    <g stroke="#8aa0b8" stroke-width="1.35" opacity="0.95">
      <line x1="462" y1="468" x2="462" y2="624"/><line x1="384" y1="546" x2="540" y2="546"/>
      <line x1="407" y1="491" x2="517" y2="601"/><line x1="517" y1="491" x2="407" y2="601"/>
      <line x1="424" y1="476" x2="500" y2="616"/><line x1="500" y1="476" x2="424" y2="616"/>
      <line x1="390" y1="510" x2="534" y2="582"/><line x1="534" y1="510" x2="390" y2="582"/>
    </g>
    <!-- 轮胎高光 -->
    <path d="M398 492 A78 78 0 0 1 438 472" fill="none" stroke="#ffffff" stroke-width="2.2" opacity="0.22" stroke-linecap="round"/>
  </g>

  <!-- 前轮 -->
  <g id="wheelFront">
    <circle cx="728" cy="546" r="78" fill="none" stroke="#1a2330" stroke-width="10" opacity="0.96"/>
    <circle cx="728" cy="546" r="78" fill="none" stroke="#2a3a4a" stroke-width="1.2" opacity="0.5"/>
    <circle cx="728" cy="546" r="66" fill="none" stroke="#cbd6e6" stroke-width="1" opacity="0.9"/>
    <circle cx="728" cy="546" r="14" fill="#e8eef3" stroke="#1a2330" stroke-width="2.2"/>
    <circle cx="728" cy="546" r="4.5" fill="#1a2330"/>
    <g stroke="#8aa0b8" stroke-width="1.35" opacity="0.95">
      <line x1="728" y1="468" x2="728" y2="624"/><line x1="650" y1="546" x2="806" y2="546"/>
      <line x1="673" y1="491" x2="783" y2="601"/><line x1="783" y1="491" x2="673" y2="601"/>
      <line x1="690" y1="476" x2="766" y2="616"/><line x1="766" y1="476" x2="690" y2="616"/>
      <line x1="656" y1="510" x2="800" y2="582"/><line x1="800" y1="510" x2="656" y2="582"/>
    </g>
    <path d="M664 492 A78 78 0 0 1 704 472" fill="none" stroke="#ffffff" stroke-width="2.2" opacity="0.22" stroke-linecap="round"/>
  </g>

  <!-- 挡泥板 -->
  <path d="M392 534 A78 78 0 0 1 532 534" fill="none" stroke="#1a8fd6" stroke-width="6" opacity="0.92" stroke-linecap="round"/>
  <path d="M658 534 A78 78 0 0 1 798 534" fill="none" stroke="#1a8fd6" stroke-width="6" opacity="0.92" stroke-linecap="round"/>
  <path d="M392 534 A78 78 0 0 1 532 534" fill="none" stroke="#ffffff" stroke-width="1.2" opacity="0.55"/>

  <!-- 车架主体 -->
  <!-- 下管 -->
  <path d="M498 542 L612 582 L658 542" fill="none" stroke="url(#bikeFrame)" stroke-width="11" stroke-linecap="round" stroke-linejoin="round"/>
  <path d="M498 542 L612 582 L658 542" fill="none" stroke="#ffffff" stroke-width="1.4" opacity="0.28"/>
  <!-- 立管 -->
  <path d="M588 472 L612 582" fill="none" stroke="url(#bikeFrame)" stroke-width="10" stroke-linecap="round"/>
  <!-- 上管 -->
  <path d="M588 472 L682 492" fill="none" stroke="url(#bikeFrame)" stroke-width="9.5" stroke-linecap="round"/>
  <!-- 后上叉 -->
  <path d="M588 472 L462 546" fill="none" stroke="#1a8fd6" stroke-width="7" stroke-linecap="round"/>
  <path d="M612 582 L462 546" fill="none" stroke="#1a8fd6" stroke-width="7" stroke-linecap="round"/>
  <!-- 前叉 -->
  <path d="M682 492 L728 546 L714 552 L678 498" fill="none" stroke="#0f3a5a" stroke-width="8" stroke-linecap="round" stroke-linejoin="round"/>
  <path d="M682 492 L728 546" fill="none" stroke="#2ec4ff" stroke-width="3" opacity="0.9"/>

  <!-- 链条与牙盘 -->
  <ellipse cx="612" cy="582" rx="24" ry="24" fill="none" stroke="#2a3a4a" stroke-width="2.2"/>
  <ellipse cx="612" cy="582" rx="9" ry="9" fill="#1a2330" stroke="#ffffff" stroke-width="1.2" opacity="0.95"/>
  <g stroke="#9aaabf" stroke-width="1.9" fill="none" opacity="0.9" stroke-linecap="round">
    <path d="M612 558 L462 540" />
    <path d="M612 606 L462 552" />
  </g>
  <g fill="#cbd6e6" stroke="#1a2330" stroke-width="1">
    <circle cx="612" cy="582" r="3.2"/>
  </g>
  <!-- 飞轮 -->
  <circle cx="462" cy="546" r="7.5" fill="#1a2330" stroke="#cbd6e6" stroke-width="1.2"/>

  <!-- 曲柄与脚踏 -->
  <g stroke="#1a2330" stroke-width="7" stroke-linecap="round">
    <line x1="612" y1="582" x2="636" y2="614"/>
    <line x1="612" y1="582" x2="588" y2="554"/>
  </g>
  <g fill="#ff7a18" stroke="#7a2a00" stroke-width="1.3">
    <rect x="626" y="608" width="34" height="13" rx="3.5" transform="rotate(-18 643 614)"/>
    <rect x="566" y="546" width="34" height="13" rx="3.5" transform="rotate(-18 583 552)"/>
  </g>
  <g fill="#1a2330">
    <rect x="630" y="611" width="26" height="7" rx="2" transform="rotate(-18 643 614)"/>
    <rect x="570" y="549" width="26" height="7" rx="2" transform="rotate(-18 583 552)"/>
  </g>

  <!-- 车座 -->
  <path d="M588 472 L588 452" stroke="#1a2330" stroke-width="6" stroke-linecap="round"/>
  <path d="M558 448 C558 430 572 422 588 424 C610 426 626 432 628 448 C626 454 618 458 588 458 C568 458 556 456 558 448 Z" fill="#1a2330" stroke="#2a3a4a" stroke-width="1.2"/>
  <path d="M560 442 Q588 436 626 442" fill="none" stroke="#ffffff" stroke-width="1.1" opacity="0.22"/>

  <!-- 车把 -->
  <path d="M682 492 L742 476 L750 482" fill="none" stroke="#1a2330" stroke-width="7" stroke-linecap="round" stroke-linejoin="round"/>
  <path d="M742 476 L750 482" fill="none" stroke="#ffffff" stroke-width="1.2" opacity="0.3"/>
  <!-- 刹把与铃铛 -->
  <path d="M742 476 L732 492" stroke="#1a2330" stroke-width="3.2" stroke-linecap="round"/>
  <circle cx="756" cy="468" r="7" fill="#ffbf2a" stroke="#7a4a00" stroke-width="1.2"/>
  <circle cx="756" cy="468" r="3" fill="#ffffff" opacity="0.85"/>
  <!-- 把套 -->
  <rect x="740" y="462" width="18" height="9" rx="4.5" fill="#1a2330" transform="rotate(-14 749 466)"/>
  <!-- 车篮 -->
  <g fill="none" stroke="#c9a85a" stroke-width="1.6" opacity="0.95">
    <path d="M728 498 L718 524 L778 524 L768 498 Z"/>
    <line x1="728" y1="506" x2="768" y2="506"/><line x1="724" y1="514" x2="772" y2="514"/>
    <line x1="734" y1="498" x2="730" y2="524"/><line x1="748" y1="498" x2="744" y2="524"/><line x1="762" y1="498" x2="758" y2="524"/>
  </g>
  <g fill="#fff7d0" stroke="#c9a85a" stroke-width="1.2">
    <ellipse cx="748" cy="514" rx="14" ry="3.2" opacity="0.55"/>
  </g>
  <!-- 车灯 -->
  <ellipse cx="752" cy="492" rx="6" ry="7" fill="#ffef8a" stroke="#7a4a00" stroke-width="1.1"/>
  <ellipse cx="753" cy="492" rx="2.5" ry="3" fill="#ffffff" opacity="0.9"/>
  <!-- 装饰贴纸 -->
  <g fill="url(#bikeAccent)" opacity="0.92">
    <path d="M612 556 L648 548 L640 562 Z"/>
    <path d="M520 548 L548 542 L542 556 Z"/>
  </g>
</g>

<!-- ================= 鹈鹕 ================= -->
<g id="pelican" filter="url(#softShadow)">
  <!-- 尾羽 -->
  <path d="M528 478 L492 462 L478 472 L492 488 L528 492 Z" fill="#2a3442" stroke="#1a2330" stroke-width="1.2"/>
  <path d="M528 478 L500 468 L488 472 L500 482 Z" fill="#5a6572"/>
  <path d="M528 482 L498 476 L486 480 L498 490 Z" fill="#3a4452"/>

  <!-- 身体主体 -->
  <ellipse cx="566" cy="498" rx="72" ry="52" fill="url(#pelBody)" stroke="#cbd6e6" stroke-width="1.2"/>
  <!-- 腹部柔和阴影 -->
  <ellipse cx="572" cy="518" rx="46" ry="22" fill="#e6eaef" opacity="0.95"/>
  <ellipse cx="566" cy="526" rx="28" ry="10" fill="#d6dade" opacity="0.72"/>
  <!-- 背部羽线 -->
  <g fill="none" stroke="#9aa3ad" opacity="0.28" stroke-width="0.9">
    <path d="M522 478 Q540 468 566 466 Q590 464 612 476"/>
    <path d="M518 492 Q542 482 572 480 Q598 478 622 488"/>
    <path d="M524 506 Q548 498 578 496 Q602 494 624 500"/>
  </g>
  <!-- 胸口细羽纹理 -->
  <g stroke="#cbd6e6" opacity="0.55" stroke-width="0.85" fill="none">
    <path d="M538 498 Q548 492 558 498 T578 498"/><path d="M540 510 Q550 504 560 510 T580 510"/><path d="M544 520 Q554 514 564 520 T584 520"/>
  </g>

  <!-- 翅膀（收拢但张力感） -->
  <path d="M582 462 C610 448 646 442 674 452 C690 458 698 472 692 490 C686 508 664 522 632 526 C610 528 588 524 570 514 C562 508 558 496 562 482 C566 470 574 466 582 462 Z" fill="url(#pelWing)" stroke="#7a8694" stroke-width="1.2"/>
  <!-- 翅膀分层羽毛 -->
  <g fill="none" stroke="#5a6572" opacity="0.82" stroke-width="1.15" stroke-linecap="round">
    <path d="M594 468 Q618 462 644 468 Q664 472 682 486"/>
    <path d="M586 482 Q612 476 638 482 Q658 486 678 498"/>
    <path d="M582 496 Q608 490 632 496 Q654 502 672 514"/>
    <path d="M584 510 Q606 506 628 512 Q644 518 658 528"/>
  </g>
  <g fill="#3a4452" opacity="0.92">
    <!-- 飞羽末端深色 -->
    <path d="M672 452 C678 456 684 462 688 472 C684 468 678 466 672 462 C672 468 676 476 678 484 C674 478 670 472 666 466 C666 474 668 482 670 490 C666 484 662 478 658 472 C658 480 660 488 662 496 C658 490 652 484 646 480 C650 488 652 496 654 504 C648 498 642 492 634 488 C638 494 640 500 642 506 C636 500 628 496 620 492 C624 498 626 504 628 510 C622 504 614 500 606 496 L594 488 C610 482 632 476 658 472 C664 468 670 460 672 452 Z" opacity="0.98"/>
  </g>
  <!-- 翅膀高光 -->
  <path d="M584 464 C604 456 628 452 650 456 C654 456 656 454 656 456 C636 452 612 456 584 468 Z" fill="#ffffff" opacity="0.62"/>
  <!-- 翅膀下缘阴影 -->
  <path d="M570 514 Q600 528 640 524 Q664 522 682 510 Q662 522 632 528 Q600 532 570 516 Z" fill="#1a2330" opacity="0.14"/>

  <!-- 脖颈 -->
  <path d="M612 462 C628 438 642 412 652 386 C658 370 662 352 660 334 C658 322 652 314 642 314 C634 314 628 322 628 336 C628 354 622 372 612 392 C602 412 588 430 572 444 C562 454 560 466 566 472 C578 464 600 452 612 462 Z" fill="url(#pelBody)" stroke="#b8c4d6" stroke-width="1.15"/>
  <path d="M634 322 Q638 336 634 354 Q630 368 622 384" fill="none" stroke="#9aa3ad" opacity="0.32" stroke-width="0.9"/>
  <path d="M612 392 Q622 376 630 358" fill="none" stroke="#ffffff" opacity="0.55" stroke-width="1.6" stroke-linecap="round"/>

  <!-- 头部 -->
  <ellipse cx="642" cy="316" rx="30" ry="28" fill="url(#pelBody)" stroke="#b8c4d6" stroke-width="1.15"/>
  <!-- 头顶羽冠 -->
  <path d="M624 296 C618 284 612 274 604 268 C612 274 620 282 624 292 C622 280 618 270 610 260 C618 270 624 280 626 292 C628 280 626 268 620 258 C626 268 630 280 630 292 C632 282 632 272 628 262 C632 272 634 282 632 294 Z" fill="#c9ced4" stroke="#7a8694" stroke-width="0.7" opacity="0.95"/>
  <!-- 脸颊腮红 -->
  <ellipse cx="636" cy="326" rx="10" ry="6" fill="#ffb3a0" opacity="0.18"/>
  <!-- 眼部 -->
  <ellipse cx="638" cy="306" rx="13" ry="13.5" fill="#1a2330"/>
  <ellipse cx="638" cy="306" rx="10.2" ry="10.2" fill="#ffbf2a" stroke="#7a4a00" stroke-width="0.9"/>
  <ellipse cx="638" cy="306" rx="6.8" ry="6.8" fill="#1a2330"/>
  <circle cx="640.5" cy="302.5" r="2.6" fill="#ffffff" opacity="0.96"/>
  <circle cx="636" cy="309" r="1.2" fill="#6ec1ff" opacity="0.72"/>
  <!-- 眼周裸皮 -->
  <path d="M626 298 Q638 290 650 298 Q652 306 650 314 Q638 322 626 314 Q624 306 626 298 Z" fill="none" stroke="#ff8a1a" stroke-width="1.1" opacity="0.85"/>
  <!-- 眉羽 -->
  <path d="M624 292 Q638 286 652 292" fill="none" stroke="#7a8694" stroke-width="1.1" stroke-linecap="round" opacity="0.9"/>

  <!-- 上喙 -->
  <path d="M662 312 C712 308 762 304 812 294 C822 292 828 290 830 286 C832 282 826 280 818 280 C788 280 748 288 712 294 C688 298 668 304 662 312 Z" fill="url(#beakTop)" stroke="#7a3a00" stroke-width="1.15" filter="url(#beakShadow)"/>
  <!-- 鼻孔 -->
  <ellipse cx="672" cy="310" rx="3.2" ry="1.4" fill="#5a1a00" opacity="0.78"/>
  <!-- 上喙脊线高光 -->
  <path d="M668 308 Q712 302 796 294" fill="none" stroke="#ffffff" stroke-width="1.7" opacity="0.32" stroke-linecap="round"/>
  <!-- 上喙侧线 -->
  <path d="M662 312 Q712 306 808 290" fill="none" stroke="#7a3a00" stroke-width="0.85" opacity="0.92"/>

  <!-- 下喙与喉囊 -->
  <path d="M662 318 C696 322 734 326 778 326 C798 326 818 324 828 318 C830 316 832 312 830 310 C828 308 822 310 812 314 C796 320 774 324 752 324 C718 324 684 320 662 318 Z" fill="url(#beakBot)" stroke="#7a3a00" stroke-width="1.05"/>
  <!-- 喉囊大面 -->
  <path d="M662 318 C670 336 668 356 658 374 C648 392 630 408 612 418 C600 424 588 428 572 430 C560 432 548 430 540 422 C548 430 562 434 578 434 C600 434 622 428 640 416 C656 404 668 388 672 368 C674 350 672 330 666 320 C664 318 662 318 662 318 Z" fill="url(#pouch)" stroke="#7a2a00" stroke-width="1.05" opacity="0.96"/>
  <!-- 喉囊褶皱纹理 -->
  <g fill="none" stroke="#7a1a00" opacity="0.28" stroke-width="0.85" stroke-linecap="round">
    <path d="M650 332 Q642 346 634 360"/><path d="M642 342 Q634 356 624 368"/><path d="M632 352 Q624 364 612 376"/><path d="M624 366 Q616 378 602 386"/>
    <path d="M654 344 Q648 358 638 370"/>
  </g>
  <!-- 喉囊高光 -->
  <path d="M658 334 Q646 352 632 368 Q618 382 600 390" fill="none" stroke="#ffffff" stroke-width="1.5" opacity="0.22" stroke-linecap="round"/>
  <!-- 下喙高光 -->
  <path d="M672 320 Q712 324 774 324" fill="none" stroke="#ffffff" stroke-width="1.2" opacity="0.28" stroke-linecap="round"/>

  <!-- 喙尖 -->
  <path d="M828 286 C832 284 834 286 834 290 C834 294 832 298 828 300 C826 298 828 294 830 290 C830 286 828 286 828 286 Z" fill="#7a2a00" opacity="0.92"/>
  <path d="M828 310 C832 312 834 316 832 320 C830 322 828 322 826 318 C828 316 830 314 830 312 C830 310 828 310 828 310 Z" fill="#7a2a00" opacity="0.92"/>

  <!-- 骑行围巾（飘动） -->
  <path d="M572 444 C558 452 542 458 526 460 C514 462 502 460 490 456 C498 460 510 464 524 464 C540 464 556 460 572 452 C580 448 586 444 588 440 C586 442 580 444 572 444 Z" fill="#ff3b3b" stroke="#7a0a0a" stroke-width="1"/>
  <path d="M526 460 C510 472 496 482 480 488 C472 491 464 492 456 490 C468 492 482 490 496 484 C510 478 522 468 530 458 Z" fill="#ff3b3b" stroke="#7a0a0a" stroke-width="1"/>
  <path d="M480 488 C472 496 462 502 448 506 C440 508 432 508 424 506 C436 508 448 506 460 502 C472 498 480 492 484 486 Z" fill="#ff3b3b" stroke="#7a0a0a" stroke-width="1"/>
  <g fill="#ffffff" opacity="0.92">
    <circle cx="512" cy="462" r="1.6"/><circle cx="496" cy="478" r="1.4"/><circle cx="472" cy="492" r="1.2"/>
  </g>
  <!-- 围巾飘带阴影 -->
  <path d="M526 460 Q510 474 490 484 Q478 488 462 490 Q478 490 496 484 Q514 474 528 460 Z" fill="#7a0a0a" opacity="0.18"/>

  <!-- 腿部 -->
  <!-- 左腿（前） -->
  <path d="M560 532 C566 556 578 576 592 592 L588 554 L584 558 L560 532 Z" fill="url(#leg)" stroke="#7a2a00" stroke-width="1"/>
  <path d="M592 592 L602 602 L614 600 L608 588 L592 592 Z" fill="#ff8a1a" stroke="#7a2a00" stroke-width="1"/>
  <!-- 蹼足前 -->
  <path d="M602 602 C612 604 622 608 630 614 C632 616 634 618 632 620 C630 622 626 620 620 616 C614 612 608 608 602 602 Z" fill="#ff8a1a" stroke="#7a2a00" stroke-width="1"/>
  <path d="M602 602 C608 606 614 610 618 616 C616 614 612 612 608 610 C606 612 604 614 602 616 C602 614 602 612 602 602 Z" fill="#ff5a0a" stroke="#7a2a00" stroke-width="0.9" opacity="0.96"/>
  <path d="M618 616 L610 614 L612 610 L618 608 Z" fill="#7a2a00" opacity="0.22"/>
  <!-- 右腿（后，踩另一踏板） -->
  <path d="M548 536 C544 552 536 568 522 582 L566 546 L548 536 Z" fill="#e66e10" stroke="#7a2a00" stroke-width="1" opacity="0.96"/>
  <path d="M522 582 L514 590 L526 594 L534 586 L522 582 Z" fill="#e66e10" stroke="#7a2a00" stroke-width="1"/>
  <path d="M514 590 C506 592 498 594 490 592 C490 594 494 596 500 596 C506 596 512 594 516 592 Z" fill="#e66e10" stroke="#7a2a00" stroke-width="0.9"/>

  <!-- 腹部与车座接触阴影 -->
  <ellipse cx="582" cy="466" rx="18" ry="7" fill="#0a1a2e" opacity="0.16"/>

  <!-- 自行车铃铛反射点 -->
</g>

<!-- 前景沙粒与贝壳 -->
<g opacity="0.95">
  <ellipse cx="96" cy="724" rx="18" ry="5" fill="#e8d5a0" stroke="#c2a86a" stroke-width="0.9"/>
  <path d="M88 720 Q96 712 104 720 Q100 724 96 722 Q92 724 88 720 Z" fill="#ffffff" opacity="0.72"/>
  <ellipse cx="112" cy="718" rx="6" ry="3" fill="#d9c48a" stroke="#b8a06a" stroke-width="0.7"/>
  <g fill="#fff7d0" stroke="#c2a86a" stroke-width="0.8">
    <path d="M1068 728 C1072 722 1078 720 1084 722 C1090 724 1092 730 1088 734 C1084 738 1076 738 1070 734 C1066 730 1066 724 1068 728 Z"/>
    <path d="M1070 726 Q1076 724 1082 726 Q1078 730 1072 730 Q1070 728 1070 726 Z" fill="#ffffff" opacity="0.7"/>
  </g>
  <circle cx="286" cy="682" r="2" fill="#ffffff" opacity="0.55"/><circle cx="294" cy="686" r="1.4" fill="#ffffff" opacity="0.42"/>
</g>

<!-- 车轮转动模糊（暗示行驶） -->
<g opacity="0.08" stroke="#1a2330" stroke-width="1.2">
  <ellipse cx="462" cy="546" rx="62" ry="62" fill="none"/>
  <ellipse cx="728" cy="546" rx="62" ry="62" fill="none"/>
</g>

<!-- 署名区域装饰，不含身份 -->
<g opacity="0.42" fill="#1a3a5a" font-family="Georgia, serif" font-style="italic" font-size="11" text-anchor="end">
  <text x="1178" y="738">Pelican by the Sea — Cycling at 12 km/h, with the wind in the pouch</text>
</g>

<!-- 边框 -->
<rect x="0.5" y="0.5" width="1199" height="749" fill="none" stroke="#0a1a2e" stroke-width="1" opacity="0.18"/>
</svg>
