<svg xmlns="http://www.w3.org/2000/svg" viewBox="0 0 800 600" width="800" height="600">
  <defs>
    <!-- Sky gradient -->
    <linearGradient id="sky" x1="0" y1="0" x2="0" y2="1">
      <stop offset="0%" stop-color="#1a3a6a"/>
      <stop offset="35%" stop-color="#4a8abf"/>
      <stop offset="65%" stop-color="#87CEEB"/>
      <stop offset="100%" stop-color="#b8dff0"/>
    </linearGradient>
    <!-- Sea gradient -->
    <linearGradient id="sea" x1="0" y1="0" x2="0" y2="1">
      <stop offset="0%" stop-color="#2a6a9a"/>
      <stop offset="40%" stop-color="#3a88b8"/>
      <stop offset="100%" stop-color="#5ab0d8"/>
    </linearGradient>
    <!-- Sand gradient -->
    <linearGradient id="sand" x1="0" y1="0" x2="0" y2="1">
      <stop offset="0%" stop-color="#e8d5a0"/>
      <stop offset="100%" stop-color="#d4b96c"/>
    </linearGradient>
    <!-- Sun glow -->
    <radialGradient id="sunGlow" cx="50%" cy="50%" r="50%">
      <stop offset="0%" stop-color="#fff8e0" stop-opacity="1"/>
      <stop offset="40%" stop-color="#ffe880" stop-opacity=".8"/>
      <stop offset="100%" stop-color="#ffcc00" stop-opacity="0"/>
    </radialGradient>
    <!-- Pelican body gradient -->
    <linearGradient id="pelicanBody" x1="0" y1="0" x2="0" y2="1">
      <stop offset="0%" stop-color="#f5f0e8"/>
      <stop offset="50%" stop-color="#e8e0d0"/>
      <stop offset="100%" stop-color="#d0c8b8"/>
    </linearGradient>
    <!-- Beak gradient -->
    <linearGradient id="beakGrad" x1="0" y1="0" x2="1" y2="0.3">
      <stop offset="0%" stop-color="#f0a830"/>
      <stop offset="60%" stop-color="#e89020"/>
      <stop offset="100%" stop-color="#d07818"/>
    </linearGradient>
    <!-- Pouch gradient -->
    <linearGradient id="pouchGrad" x1="0" y1="0" x2="0" y2="1">
      <stop offset="0%" stop-color="#f0a830"/>
      <stop offset="100%" stop-color="#e07828"/>
    </linearGradient>
    <!-- Bicycle frame gradient -->
    <linearGradient id="bikeFrame" x1="0" y1="0" x2="1" y2="1">
      <stop offset="0%" stop-color="#cc2222"/>
      <stop offset="50%" stop-color="#aa1818"/>
      <stop offset="100%" stop-color="#881010"/>
    </linearGradient>
    <!-- Tire gradient -->
    <radialGradient id="tire" cx="50%" cy="50%" r="50%">
      <stop offset="70%" stop-color="#222"/>
      <stop offset="85%" stop-color="#333"/>
      <stop offset="100%" stop-color="#1a1a1a"/>
    </radialGradient>
    <!-- Water reflection -->
    <linearGradient id="waterReflect" x1="0" y1="0" x2="0" y2="1">
      <stop offset="0%" stop-color="#fff" stop-opacity=".15"/>
      <stop offset="100%" stop-color="#fff" stop-opacity="0"/>
    </linearGradient>
    <!-- Wing feather gradient -->
    <linearGradient id="wingFeather" x1="0" y1="0" x2="0" y2="1">
      <stop offset="0%" stop-color="#c8c0b0"/>
      <stop offset="100%" stop-color="#a09888"/>
    </linearGradient>
    <!-- Cloud filter -->
    <filter id="cloudBlur">
      <feGaussianBlur stdDeviation="3"/>
    </filter>
    <filter id="softShadow">
      <feDropShadow dx="2" dy="3" stdDeviation="3" flood-color="#00000040"/>
    </filter>
  </defs>

  <!-- ═══ SKY ═══ -->
  <rect width="800" height="600" fill="url(#sky)"/>

  <!-- Sun -->
  <circle cx="650" cy="120" r="80" fill="url(#sunGlow)"/>
  <circle cx="650" cy="120" r="32" fill="#fff8e0"/>
  <circle cx="650" cy="120" r="28" fill="#fffae8"/>

  <!-- Sun rays -->
  <g opacity=".2" stroke="#ffdd66" stroke-width="1.5" fill="none">
    <line x1="650" y1="60" x2="650" y2="30"/>
    <line x1="690" y1="80" x2="715" y2="60"/>
    <line x1="710" y1="120" x2="740" y2="120"/>
    <line x1="690" y1="160" x2="715" y2="180"/>
    <line x1="650" y1="180" x2="650" y2="210"/>
    <line x1="610" y1="160" x2="585" y2="180"/>
    <line x1="590" y1="120" x2="560" y2="120"/>
    <line x1="610" y1="80" x2="585" y2="60"/>
  </g>

  <!-- Clouds -->
  <g filter="url(#cloudBlur)" opacity=".85">
    <ellipse cx="150" cy="90" rx="70" ry="22" fill="#fff"/>
    <ellipse cx="180" cy="80" rx="50" ry="18" fill="#fff"/>
    <ellipse cx="120" cy="85" rx="40" ry="15" fill="#f8f8f8"/>
    <ellipse cx="450" cy="70" rx="80" ry="20" fill="#fff"/>
    <ellipse cx="480" cy="60" rx="55" ry="16" fill="#fff"/>
    <ellipse cx="420" cy="65" rx="45" ry="14" fill="#f0f0f0"/>
    <ellipse cx="300" cy="130" rx="45" ry="12" fill="#fff" opacity=".6"/>
    <ellipse cx="720" cy="55" rx="50" ry="15" fill="#fff" opacity=".7"/>
  </g>

  <!-- Distant mountains -->
  <g opacity=".4">
    <path d="M0 350 L80 280 L150 310 L220 260 L300 290 L380 250 L450 280 L520 240 L580 270 L650 230 L720 260 L800 240 L800 380 L0 380Z" fill="#4a6a8a"/>
    <path d="M0 360 L60 320 L130 340 L200 300 L280 330 L360 290 L440 320 L500 290 L570 310 L640 280 L710 300 L800 270 L800 380 L0 380Z" fill="#5a7a9a"/>
  </g>

  <!-- ═══ SEA ═══ -->
  <rect x="0" y="370" width="800" height="120" fill="url(#sea)"/>

  <!-- Waves -->
  <g fill="none" stroke="#fff" stroke-width="1" opacity=".3">
    <path d="M0 385 Q50 380 100 385 Q150 390 200 385 Q250 380 300 385 Q350 390 400 385 Q450 380 500 385 Q550 390 600 385 Q650 380 700 385 Q750 390 800 385"/>
    <path d="M0 400 Q40 395 80 400 Q120 405 160 400 Q200 395 240 400 Q280 405 320 400 Q360 395 400 400 Q440 405 480 400 Q520 395 560 400 Q600 405 640 400 Q680 395 720 400 Q760 405 800 400"/>
    <path d="M0 420 Q60 415 120 420 Q180 425 240 420 Q300 415 360 420 Q420 425 480 420 Q540 415 600 420 Q660 425 720 420 Q780 415 800 420"/>
    <path d="M0 445 Q70 440 140 445 Q210 450 280 445 Q350 440 420 445 Q490 450 560 445 Q630 440 700 445 Q770 450 800 445"/>
  </g>

  <!-- Water shimmer -->
  <g opacity=".15">
    <ellipse cx="500" cy="400" rx="60" ry="3" fill="#fff"/>
    <ellipse cx="600" cy="420" rx="40" ry="2" fill="#fff"/>
    <ellipse cx="350" cy="430" rx="50" ry="2.5" fill="#fff"/>
    <ellipse cx="650" cy="390" rx="30" ry="2" fill="#fff"/>
  </g>

  <!-- Sun reflection on water -->
  <g opacity=".2">
    <ellipse cx="650" cy="390" rx="25" ry="4" fill="#ffe880"/>
    <ellipse cx="650" cy="410" rx="18" ry="3" fill="#ffe880"/>
    <ellipse cx="650" cy="430" rx="12" ry="2.5" fill="#ffe880"/>
    <ellipse cx="650" cy="450" rx="8" ry="2" fill="#ffe880"/>
  </g>

  <!-- Seagulls -->
  <g fill="none" stroke="#fff" stroke-width="1.5" stroke-linecap="round">
    <path d="M180 180 Q188 172 196 178 M196 178 Q204 172 212 180"/>
    <path d="M250 150 Q256 144 262 148 M262 148 Q268 144 274 150"/>
    <path d="M550 160 Q557 153 564 157 M564 157 Q571 153 578 160"/>
    <path d="M120 200 Q125 195 130 198 M130 198 Q135 195 140 200" stroke-width="1"/>
    <path d="M680 175 Q685 170 690 173 M690 173 Q695 170 700 175" stroke-width="1"/>
  </g>

  <!-- ═══ BEACH/SHORE ═══ -->
  <path d="M0 470 Q100 460 200 465 Q400 458 600 462 Q700 460 800 465 L800 600 L0 600Z" fill="url(#sand)"/>

  <!-- Shore foam -->
  <path d="M0 470 Q100 460 200 465 Q400 458 600 462 Q700 460 800 465" fill="none" stroke="#fff" stroke-width="2.5" opacity=".5"/>
  <path d="M0 475 Q80 468 180 472 Q380 465 580 469 Q700 467 800 472" fill="none" stroke="#fff" stroke-width="1.5" opacity=".3"/>

  <!-- Sand texture dots -->
  <g fill="#c8a858" opacity=".3">
    <circle cx="100" cy="510" r="1.2"/><circle cx="150" cy="530" r="1"/><circle cx="200" cy="500" r="1.5"/>
    <circle cx="250" cy="540" r="1"/><circle cx="350" cy="520" r="1.3"/><circle cx="450" cy="505" r="1.2"/>
    <circle cx="550" cy="535" r="1"/><circle cx="600" cy="515" r="1.5"/><circle cx="680" cy="525" r="1.2"/>
    <circle cx="720" cy="500" r="1"/><circle cx="50" cy="540" r="1.2"/><circle cx="400" cy="550" r="1"/>
    <circle cx="300" cy="570" r="1.3"/><circle cx="500" cy="560" r="1.2"/><circle cx="650" cy="555" r="1"/>
  </g>

  <!-- Small shells/pebbles on beach -->
  <g opacity=".4">
    <ellipse cx="120" cy="515" rx="4" ry="2.5" fill="#d8c8a0" transform="rotate(-15,120,515)"/>
    <ellipse cx="480" cy="525" rx="3" ry="2" fill="#c8b890" transform="rotate(20,480,525)"/>
    <ellipse cx="650" cy="510" rx="3.5" ry="2" fill="#d0c098" transform="rotate(-10,650,510)"/>
    <circle cx="300" cy="530" r="2" fill="#b8a878"/>
  </g>

  <!-- ═══ BICYCLE ═══ -->
  <g filter="url(#softShadow)">
    <!-- Shadow on ground -->
    <ellipse cx="380" cy="530" rx="90" ry="8" fill="#00000020"/>

    <!-- Rear wheel -->
    <g>
      <circle cx="310" cy="490" r="42" fill="none" stroke="#222" stroke-width="5"/>
      <circle cx="310" cy="490" r="39" fill="none" stroke="#333" stroke-width="1"/>
      <circle cx="310" cy="490" r="36" fill="none" stroke="#2a2a2a" stroke-width=".5"/>
      <!-- Spokes -->
      <g stroke="#aaa" stroke-width=".7" opacity=".8">
        <line x1="310" y1="452" x2="310" y2="480"/>
        <line x1="310" y1="500" x2="310" y2="528"/>
        <line x1="272" y1="490" x2="300" y2="490"/>
        <line x1="320" y1="490" x2="348" y2="490"/>
        <line x1="280" y1="460" x2="302" y2="482"/>
        <line x1="318" y1="498" x2="340" y2="520"/>
        <line x1="340" y1="460" x2="318" y2="482"/>
        <line x1="302" y1="498" x2="280" y2="520"/>
        <line x1="286" y1="472" x2="304" y2="484"/>
        <line x1="316" y1="496" x2="334" y2="508"/>
        <line x1="334" y1="472" x2="316" y2="484"/>
        <line x1="304" y1="496" x2="286" y2="508"/>
      </g>
      <!-- Hub -->
      <circle cx="310" cy="490" r="5" fill="#666"/>
      <circle cx="310" cy="490" r="3" fill="#888"/>
    </g>

    <!-- Front wheel -->
    <g>
      <circle cx="460" cy="490" r="42" fill="none" stroke="#222" stroke-width="5"/>
      <circle cx="460" cy="490" r="39" fill="none" stroke="#333" stroke-width="1"/>
      <circle cx="460" cy="490" r="36" fill="none" stroke="#2a2a2a" stroke-width=".5"/>
      <!-- Spokes -->
      <g stroke="#aaa" stroke-width=".7" opacity=".8">
        <line x1="460" y1="452" x2="460" y2="480"/>
        <line x1="460" y1="500" x2="460" y2="528"/>
        <line x1="422" y1="490" x2="450" y2="490"/>
        <line x1="470" y1="490" x2="498" y2="490"/>
        <line x1="430" y1="460" x2="452" y2="482"/>
        <line x1="468" y1="498" x2="490" y2="520"/>
        <line x1="490" y1="460" x2="468" y2="482"/>
        <line x1="452" y1="498" x2="430" y2="520"/>
        <line x1="436" y1="472" x2="454" y2="484"/>
        <line x1="466" y1="496" x2="484" y2="508"/>
        <line x1="484" y1="472" x2="466" y2="484"/>
        <line x1="454" y1="496" x2="436" y2="508"/>
      </g>
      <!-- Hub -->
      <circle cx="460" cy="490" r="5" fill="#666"/>
      <circle cx="460" cy="490" r="3" fill="#888"/>
    </g>

    <!-- Frame -->
    <g stroke="url(#bikeFrame)" stroke-width="4.5" stroke-linecap="round" fill="none">
      <!-- Chain stay (rear hub to bottom bracket) -->
      <line x1="310" y1="490" x2="380" y2="475"/>
      <!-- Seat stay (rear hub to seat tube top) -->
      <line x1="310" y1="490" x2="370" y2="420"/>
      <!-- Seat tube -->
      <line x1="370" y1="420" x2="380" y2="475"/>
      <!-- Down tube (bottom bracket to head tube bottom) -->
      <line x1="380" y1="475" x2="440" y2="430"/>
      <!-- Top tube -->
      <line x1="370" y1="420" x2="440" y2="425"/>
      <!-- Head tube -->
      <line x1="440" y1="425" x2="440" y2="435"/>
    </g>

    <!-- Fork -->
    <g stroke="#aa1818" stroke-width="3.5" stroke-linecap="round" fill="none">
      <line x1="440" y1="430" x2="460" y2="490"/>
      <line x1="442" y1="432" x2="462" y2="490"/>
    </g>

    <!-- Handlebar stem -->
    <line x1="440" y1="425" x2="445" y2="405" stroke="#555" stroke-width="3" stroke-linecap="round"/>

    <!-- Handlebars -->
    <g stroke="#444" stroke-width="3" stroke-linecap="round" fill="none">
      <path d="M430 400 Q437 395 445 400 Q453 395 460 400"/>
      <!-- Grips -->
      <line x1="427" y1="400" x2="433" y2="400" stroke="#222" stroke-width="5"/>
      <line x1="457" y1="400" x2="463" y2="400" stroke="#222" stroke-width="5"/>
    </g>

    <!-- Seat post -->
    <line x1="370" y1="420" x2="365" y2="405" stroke="#555" stroke-width="3" stroke-linecap="round"/>

    <!-- Seat/Saddle -->
    <ellipse cx="365" cy="402" rx="18" ry="5" fill="#2a2a2a"/>
    <ellipse cx="362" cy="401" rx="12" ry="3.5" fill="#3a3a3a"/>
    <path d="M350 402 Q365 396 380 402" fill="#2a2a2a" stroke="#222" stroke-width=".5"/>

    <!-- Bottom bracket / Crank -->
    <circle cx="380" cy="475" r="6" fill="#555"/>
    <circle cx="380" cy="475" r="4" fill="#777"/>

    <!-- Chain ring -->
    <circle cx="380" cy="475" r="12" fill="none" stroke="#666" stroke-width="1.5"/>

    <!-- Pedal cranks -->
    <line x1="380" y1="475" x2="368" y2="490" stroke="#555" stroke-width="2.5" stroke-linecap="round"/>
    <line x1="380" y1="475" x2="392" y2="460" stroke="#555" stroke-width="2.5" stroke-linecap="round"/>

    <!-- Pedals -->
    <rect x="362" y="488" width="12" height="4" rx="1" fill="#333"/>
    <rect x="386" y="457" width="12" height="4" rx="1" fill="#333"/>

    <!-- Chain -->
    <path d="M392 475 Q400 483 392 490 L320 490 Q312 483 320 476" fill="none" stroke="#555" stroke-width="1.2" stroke-dasharray="2,1.5"/>
  </g>

  <!-- ═══ PELICAN ═══ -->
  <g filter="url(#softShadow)">
    <!-- Tail feathers -->
    <g>
      <path d="M305 410 Q280 395 270 405 Q285 400 300 415" fill="#c8c0b0" stroke="#a8a090" stroke-width=".5"/>
      <path d="M308 405 Q275 388 268 398 Q282 393 303 410" fill="#d0c8b8" stroke="#a8a090" stroke-width=".5"/>
      <path d="M310 415 Q285 402 278 412 Q290 407 308 420" fill="#bab2a2" stroke="#a8a090" stroke-width=".5"/>
    </g>

    <!-- Body -->
    <ellipse cx="370" cy="395" rx="65" ry="35" fill="url(#pelicanBody)" stroke="#c0b8a8" stroke-width=".5"/>

    <!-- Body feather details -->
    <g stroke="#c0b8a8" stroke-width=".4" fill="none" opacity=".5">
      <path d="M325 385 Q340 382 355 385"/>
      <path d="M330 390 Q345 387 360 390"/>
      <path d="M335 395 Q350 392 365 395"/>
      <path d="M340 400 Q355 397 370 400"/>
      <path d="M345 405 Q360 402 375 405"/>
    </g>

    <!-- Wing (folded, resting on body) -->
    <path d="M330 380 Q360 360 410 375 Q400 385 370 390 Q345 392 330 385Z" fill="url(#wingFeather)" stroke="#a8a090" stroke-width=".7"/>
    <!-- Wing feather details -->
    <g stroke="#a09080" stroke-width=".5" fill="none" opacity=".6">
      <path d="M340 382 Q365 372 395 378"/>
      <path d="M338 386 Q360 378 390 382"/>
      <path d="M335 380 L345 375"/>
      <path d="M350 378 L360 373"/>
      <path d="M365 377 L375 374"/>
      <path d="M380 378 L390 376"/>
    </g>

    <!-- Neck -->
    <path d="M410 385 Q425 370 435 340 Q440 320 438 300 Q435 285 430 275" fill="url(#pelicanBody)" stroke="#c0b8a8" stroke-width="1"/>
    <path d="M420 390 Q435 375 445 345 Q448 325 445 305 Q442 290 437 278" fill="url(#pelicanBody)" stroke="#c0b8a8" stroke-width=".5"/>

    <!-- Neck feather texture -->
    <g stroke="#d0c8b8" stroke-width=".4" fill="none" opacity=".4">
      <path d="M418 380 Q428 370 435 355"/>
      <path d="M422 370 Q432 360 438 345"/>
      <path d="M428 355 Q435 345 440 335"/>
      <path d="M432 340 Q438 330 442 320"/>
    </g>

    <!-- Head -->
    <ellipse cx="432" cy="268" rx="20" ry="16" fill="#f5f0e8" stroke="#c0b8a8" stroke-width=".5"/>

    <!-- Eye -->
    <circle cx="440" cy="263" r="5" fill="#fff" stroke="#888" stroke-width=".5"/>
    <circle cx="441" cy="262" r="3" fill="#1a1a2a"/>
    <circle cx="442" cy="261" r="1.2" fill="#fff"/>
    <!-- Eye ring -->
    <circle cx="440" cy="263" r="6.5" fill="none" stroke="#6888a8" stroke-width="1" opacity=".5"/>

    <!-- Head crest/tuft -->
    <g stroke="#c8c0b0" stroke-width="1.2" fill="none" opacity=".7">
      <path d="M420 258 Q415 248 418 240"/>
      <path d="M423 256 Q419 245 423 237"/>
      <path d="M417 260 Q411 252 414 244"/>
    </g>

    <!-- Upper beak (long, characteristic pelican beak) -->
    <path d="M448 265 Q480 258 510 262 Q520 264 525 268 Q520 270 510 270 Q480 272 452 272Z" fill="url(#beakGrad)" stroke="#c08020" stroke-width=".8"/>
    <!-- Beak ridge line -->
    <line x1="450" y1="267" x2="520" y2="266" stroke="#d09030" stroke-width=".6" opacity=".5"/>
    <!-- Beak tip hook -->
    <path d="M522 266 Q527 264 525 268 Q524 270 520 270" fill="#d07818" stroke="#b06810" stroke-width=".5"/>

    <!-- Lower beak -->
    <path d="M448 272 Q480 275 510 272 Q508 275 500 278 Q480 282 455 278Z" fill="#e89828" stroke="#c08020" stroke-width=".5"/>

    <!-- Pouch (the distinctive pelican throat pouch) -->
    <path d="M440 275 Q455 280 475 282 Q490 283 500 280 Q495 295 475 302 Q455 308 440 300 Q430 292 432 282Z" fill="url(#pouchGrad)" stroke="#d08020" stroke-width=".7" opacity=".85"/>
    <!-- Pouch texture lines -->
    <g stroke="#c87820" stroke-width=".4" fill="none" opacity=".4">
      <path d="M445 282 Q460 288 480 286"/>
      <path d="M442 290 Q458 296 478 293"/>
      <path d="M445 298 Q460 302 475 299"/>
    </g>

    <!-- Legs -->
    <!-- Left leg (on pedal) -->
    <path d="M355 425 Q350 450 355 470 Q358 480 365 488" stroke="#e8a040" stroke-width="3" fill="none" stroke-linecap="round"/>
    <!-- Right leg (on other pedal) -->
    <path d="M375 420 Q385 440 390 455 Q393 460 392 460" stroke="#e8a040" stroke-width="3" fill="none" stroke-linecap="round"/>

    <!-- Feet/webbed toes on pedals -->
    <!-- Left foot -->
    <g fill="#e8a040" stroke="#c88030" stroke-width=".5">
      <path d="M360 487 L355 493 L362 492 L368 494 L372 490 L365 488Z"/>
    </g>
    <!-- Right foot -->
    <g fill="#e8a040" stroke="#c88030" stroke-width=".5">
      <path d="M388 458 L384 464 L390 463 L396 465 L400 461 L394 459Z"/>
    </g>

    <!-- Wing holding handlebar (front wing tip) -->
    <path d="M410 380 Q430 385 440 395 Q445 398 448 400" fill="none" stroke="#c0b8a8" stroke-width="2.5" stroke-linecap="round"/>
    <path d="M448 398 L445 402 L450 401 L454 403 L452 399Z" fill="#c8c0b0" stroke="#a8a090" stroke-width=".5"/>
  </g>

  <!-- ═══ MOTION LINES ═══ -->
  <g stroke="#888" stroke-width="1" opacity=".3" stroke-linecap="round">
    <line x1="240" y1="475" x2="215" y2="475"/>
    <line x1="240" y1="485" x2="210" y2="485"/>
    <line x1="240" y1="495" x2="218" y2="495"/>
    <line x1="240" y1="505" x2="220" y2="505"/>
    <line x1="240" y1="465" x2="222" y2="465"/>
  </g>

  <!-- Dust/sand particles from wheels -->
  <g fill="#d4b96c" opacity=".3">
    <circle cx="260" cy="520" r="2"/>
    <circle cx="250" cy="515" r="1.5"/>
    <circle cx="255" cy="525" r="1.8"/>
    <circle cx="245" cy="510" r="1.2"/>
    <circle cx="265" cy="528" r="1"/>
    <circle cx="248" cy="522" r="1.3"/>
  </g>

  <!-- ═══ FOREGROUND DETAILS ═══ -->
  <!-- Starfish -->
  <g transform="translate(100,555) scale(.7)" fill="#d08858" stroke="#b07040" stroke-width=".5">
    <path d="M0 -12 L3 -4 L12 -4 L5 2 L7 10 L0 5 L-7 10 L-5 2 L-12 -4 L-3 -4Z"/>
  </g>

  <!-- Small crab -->
  <g transform="translate(620,545)" opacity=".7">
    <ellipse rx="6" ry="4" fill="#c85838"/>
    <circle cx="-3" cy="-3" r="1.5" fill="#222"/>
    <circle cx="3" cy="-3" r="1.5" fill="#222"/>
    <line x1="-6" y1="-1" x2="-12" y2="-4" stroke="#c85838" stroke-width="1.2"/>
    <line x1="6" y1="-1" x2="12" y2="-4" stroke="#c85838" stroke-width="1.2"/>
    <line x1="-12" y1="-4" x2="-14" y2="-7" stroke="#c85838" stroke-width="1"/>
    <line x1="12" y1="-4" x2="14" y2="-7" stroke="#c85838" stroke-width="1"/>
    <line x1="-5" y1="2" x2="-8" y2="5" stroke="#c85838" stroke-width=".8"/>
    <line x1="-4" y1="3" x2="-6" y2="6" stroke="#c85838" stroke-width=".8"/>
    <line x1="5" y1="2" x2="8" y2="5" stroke="#c85838" stroke-width=".8"/>
    <line x1="4" y1="3" x2="6" y2="6" stroke="#c85838" stroke-width=".8"/>
  </g>

  <!-- Distant sailboat -->
  <g transform="translate(180,370)" opacity=".5">
    <rect x="-8" y="0" width="16" height="4" rx="2" fill="#8a6a4a"/>
    <line x1="0" y1="0" x2="0" y2="-20" stroke="#8a6a4a" stroke-width="1"/>
    <path d="M0 -20 L0 -2 L12 -8Z" fill="#fff" stroke="#ddd" stroke-width=".5"/>
    <path d="M0 -18 L0 -3 L-8 -8Z" fill="#f8f8f8" stroke="#ddd" stroke-width=".5"/>
  </g>

  <!-- Palm tree on far right -->
  <g transform="translate(740,460)">
    <path d="M0 0 Q-3 -40 2 -80 Q5 -100 3 -120" stroke="#8B6914" stroke-width="6" fill="none" stroke-linecap="round"/>
    <path d="M3 -120 Q-20 -115 -40 -100" stroke="#2d7a2d" stroke-width="3" fill="none" stroke-linecap="round"/>
    <path d="M3 -120 Q20 -110 35 -95" stroke="#2d7a2d" stroke-width="3" fill="none" stroke-linecap="round"/>
    <path d="M3 -120 Q-10 -130 -30 -125" stroke="#3a8a3a" stroke-width="2.5" fill="none" stroke-linecap="round"/>
    <path d="M3 -120 Q15 -128 30 -120" stroke="#3a8a3a" stroke-width="2.5" fill="none" stroke-linecap="round"/>
    <path d="M3 -120 Q0 -135 -5 -140" stroke="#2d7a2d" stroke-width="2" fill="none" stroke-linecap="round"/>
    <!-- Coconuts -->
    <circle cx="0" cy="-118" r="3" fill="#6a4a2a"/>
    <circle cx="5" cy="-116" r="2.5" fill="#7a5a3a"/>
  </g>

  <!-- ═══ WATER EDGE DETAIL ═══ -->
  <g opacity=".15">
    <path d="M0 472 Q50 468 100 472 Q200 466 300 470 Q400 465 500 468 Q600 464 700 468 Q750 466 800 470" fill="none" stroke="#5ab0d8" stroke-width="3"/>
  </g>

</svg>
