<svg xmlns="http://www.w3.org/2000/svg" viewBox="0 0 900 600" width="900" height="600" role="img" aria-labelledby="ttl dsc">
  <title id="ttl">海边骑自行车的鹈鹕</title>
  <desc id="dsc">夕阳下的海边，一只白色的鹈鹕蹬着红色自行车沿着潮湿的沙滩飞驰，大喉囊里还露出半条鱼，海风吹起羽毛。</desc>

  <defs>
    <!-- ===== 天空 / 海 / 沙 ===== -->
    <linearGradient id="skyGrad" x1="0" y1="0" x2="0" y2="1">
      <stop offset="0" stop-color="#3f9fc9"/>
      <stop offset="0.42" stop-color="#8fd0e6"/>
      <stop offset="0.72" stop-color="#d6ecf0"/>
      <stop offset="1" stop-color="#ffe4b8"/>
    </linearGradient>

    <radialGradient id="sunGlow" cx="0.5" cy="0.5" r="0.5">
      <stop offset="0" stop-color="#fff8d8" stop-opacity="0.95"/>
      <stop offset="0.35" stop-color="#ffe9a8" stop-opacity="0.55"/>
      <stop offset="1" stop-color="#ffd98a" stop-opacity="0"/>
    </radialGradient>

    <radialGradient id="sunCore" cx="0.5" cy="0.5" r="0.5">
      <stop offset="0" stop-color="#fffdf0"/>
      <stop offset="0.6" stop-color="#fff3c4"/>
      <stop offset="1" stop-color="#ffe08a"/>
    </radialGradient>

    <linearGradient id="seaGrad" x1="0" y1="0" x2="0" y2="1">
      <stop offset="0" stop-color="#1b6f97"/>
      <stop offset="0.45" stop-color="#3f9fc0"/>
      <stop offset="1" stop-color="#8ed2de"/>
    </linearGradient>

    <linearGradient id="seaShimmer" x1="0" y1="0" x2="0" y2="1">
      <stop offset="0" stop-color="#ffe7b0" stop-opacity="0.85"/>
      <stop offset="1" stop-color="#ffe7b0" stop-opacity="0"/>
    </linearGradient>

    <linearGradient id="sandGrad" x1="0" y1="0" x2="0" y2="1">
      <stop offset="0" stop-color="#e7cf9f"/>
      <stop offset="0.28" stop-color="#dcc08c"/>
      <stop offset="1" stop-color="#b8945f"/>
    </linearGradient>

    <linearGradient id="wetSand" x1="0" y1="0" x2="0" y2="1">
      <stop offset="0" stop-color="#9fb7bd" stop-opacity="0.75"/>
      <stop offset="1" stop-color="#c9b184" stop-opacity="0.15"/>
    </linearGradient>

    <!-- ===== 鹈鹕 ===== -->
    <linearGradient id="bodyGrad" x1="0.15" y1="0" x2="0.85" y2="1">
      <stop offset="0" stop-color="#ffffff"/>
      <stop offset="0.5" stop-color="#f3f6f8"/>
      <stop offset="0.82" stop-color="#dbe3ea"/>
      <stop offset="1" stop-color="#c3cfd9"/>
    </linearGradient>

    <linearGradient id="wingGrad" x1="0" y1="0" x2="0.6" y2="1">
      <stop offset="0" stop-color="#ffffff"/>
      <stop offset="0.6" stop-color="#e4ebf0"/>
      <stop offset="1" stop-color="#b9c6d1"/>
    </linearGradient>

    <linearGradient id="beakGrad" x1="0" y1="0" x2="1" y2="0.4">
      <stop offset="0" stop-color="#ffd985"/>
      <stop offset="0.55" stop-color="#f4ab45"/>
      <stop offset="1" stop-color="#e07f1f"/>
    </linearGradient>

    <linearGradient id="pouchGrad" x1="0.1" y1="0" x2="0.8" y2="1">
      <stop offset="0" stop-color="#ffc96b"/>
      <stop offset="0.55" stop-color="#f0902f"/>
      <stop offset="1" stop-color="#d5701c"/>
    </linearGradient>

    <linearGradient id="legGrad" x1="0" y1="0" x2="0" y2="1">
      <stop offset="0" stop-color="#f8b957"/>
      <stop offset="1" stop-color="#d97f1e"/>
    </linearGradient>

    <radialGradient id="bodyHL" cx="0.38" cy="0.3" r="0.72">
      <stop offset="0" stop-color="#ffffff" stop-opacity="0.95"/>
      <stop offset="0.55" stop-color="#ffffff" stop-opacity="0.32"/>
      <stop offset="1" stop-color="#ffffff" stop-opacity="0"/>
    </radialGradient>

    <!-- ===== 自行车 ===== -->
    <linearGradient id="frameGrad" x1="0" y1="0" x2="0.4" y2="1">
      <stop offset="0" stop-color="#f2684f"/>
      <stop offset="0.5" stop-color="#d43a29"/>
      <stop offset="1" stop-color="#8e1f16"/>
    </linearGradient>

    <linearGradient id="tireGrad" x1="0" y1="0" x2="1" y2="1">
      <stop offset="0" stop-color="#1c1c1c"/>
      <stop offset="0.5" stop-color="#4c4c4c"/>
      <stop offset="1" stop-color="#232323"/>
    </linearGradient>

    <linearGradient id="metalGrad" x1="0" y1="0" x2="1" y2="1">
      <stop offset="0" stop-color="#fbfdff"/>
      <stop offset="0.45" stop-color="#c6cfd8"/>
      <stop offset="0.75" stop-color="#8b96a3"/>
      <stop offset="1" stop-color="#e2e8ee"/>
    </linearGradient>

    <linearGradient id="fishGrad" x1="0" y1="0" x2="1" y2="1">
      <stop offset="0" stop-color="#d7f0f7"/>
      <stop offset="0.6" stop-color="#8fc6dd"/>
      <stop offset="1" stop-color="#4f8fb0"/>
    </linearGradient>

    <!-- ===== 滤镜 ===== -->
    <filter id="softShadow" x="-40%" y="-40%" width="180%" height="200%">
      <feDropShadow dx="10" dy="16" stdDeviation="12" flood-color="#6b4a24" flood-opacity="0.38"/>
    </filter>

    <filter id="blur18" x="-60%" y="-60%" width="220%" height="220%">
      <feGaussianBlur stdDeviation="18"/>
    </filter>

    <filter id="blur6" x="-40%" y="-40%" width="180%" height="180%">
      <feGaussianBlur stdDeviation="6"/>
    </filter>

    <!-- ===== 车轮组件 ===== -->
    <g id="wheel">
      <circle r="70" fill="none" stroke="url(#tireGrad)" stroke-width="13"/>
      <circle r="62.5" fill="none" stroke="#f4f7f9" stroke-width="2.6"/>
      <circle r="59" fill="none" stroke="#aeb8c2" stroke-width="2.6"/>
      <g stroke="#c6d0da" stroke-width="1.35" opacity="0.92">
        <line x1="57" y1="0" x2="-57" y2="0"/>
        <line x1="52.7" y1="21.8" x2="-52.7" y2="-21.8"/>
        <line x1="40.3" y1="40.3" x2="-40.3" y2="-40.3"/>
        <line x1="21.8" y1="52.7" x2="-21.8" y2="-52.7"/>
        <line x1="0" y1="57" x2="0" y2="-57"/>
        <line x1="-21.8" y1="52.7" x2="21.8" y2="-52.7"/>
        <line x1="-40.3" y1="40.3" x2="40.3" y2="-40.3"/>
        <line x1="-52.7" y1="21.8" x2="52.7" y2="-21.8"/>
      </g>
      <circle r="9.5" fill="url(#metalGrad)" stroke="#7b8794" stroke-width="2"/>
      <circle r="3.6" fill="#5a6672"/>
    </g>
  </defs>

  <!-- ==================== 天空 ==================== -->
  <rect x="0" y="0" width="900" height="600" fill="url(#skyGrad)"/>

  <!-- 太阳与光晕 -->
  <g>
    <circle cx="768" cy="150" r="150" fill="url(#sunGlow)" filter="url(#blur18)"/>
    <circle cx="768" cy="150" r="46" fill="url(#sunCore)"/>
    <circle cx="768" cy="150" r="70" fill="#fff0b8" opacity="0.28" filter="url(#blur6)"/>
  </g>

  <!-- 云 -->
  <g fill="#fff6ea" opacity="0.9">
    <path d="M120 130 c10 -26 44 -30 58 -12 c14 -20 48 -16 54 6 c22 -6 40 8 38 26 l-150 0 c-6 -12 2 -20 0 -20 z" opacity="0.75"/>
    <path d="M560 92 c8 -20 34 -24 46 -10 c12 -16 38 -12 42 6 c18 -4 30 8 28 22 l-118 0 c-4 -10 4 -18 2 -18 z" opacity="0.62"/>
    <path d="M330 200 c6 -16 28 -20 38 -8 c10 -12 30 -9 34 5 c14 -3 24 7 22 17 l-96 0 c-3 -8 4 -14 2 -14 z" opacity="0.5"/>
    <path d="M700 250 c6 -14 24 -17 33 -7 c9 -11 27 -8 30 5 c13 -3 21 6 19 15 l-84 0 c-3 -7 4 -13 2 -13 z" opacity="0.4"/>
  </g>

  <!-- 远处海鸥 -->
  <g fill="none" stroke="#4a6a7a" stroke-width="2.2" stroke-linecap="round" opacity="0.55">
    <path d="M250 150 q8 -7 16 0 q8 -7 16 0"/>
    <path d="M305 118 q6 -5 12 0 q6 -5 12 0"/>
    <path d="M640 132 q7 -6 14 0 q7 -6 14 0"/>
    <path d="M198 205 q5 -4 10 0 q5 -4 10 0"/>
  </g>

  <!-- ==================== 远山 / 海岬 ==================== -->
  <path d="M0 330 L0 300 C60 276 120 268 180 286 C240 304 300 312 360 300 L360 330 Z" fill="#7fa6b0" opacity="0.55"/>
  <path d="M620 330 L900 300 L900 330 Z" fill="#6f9aa6" opacity="0.45"/>

  <!-- ==================== 海 ==================== -->
  <rect x="0" y="330" width="900" height="128" fill="url(#seaGrad)"/>
  <rect x="0" y="326" width="900" height="24" fill="#eaf6f8" opacity="0.35" filter="url(#blur6)"/>

  <!-- 海面反光带 -->
  <path d="M690 332 L850 332 L905 456 L640 456 Z" fill="url(#seaShimmer)" opacity="0.6"/>
  <ellipse cx="768" cy="336" rx="120" ry="7" fill="#fff4cf" opacity="0.55"/>

  <!-- 波纹 -->
  <g fill="none" stroke="#e8f7fb" stroke-linecap="round">
    <path d="M20 352 q22 -7 44 0 t44 0" stroke-width="2.2" opacity="0.5"/>
    <path d="M150 368 q20 -6 40 0 t40 0" stroke-width="2" opacity="0.42"/>
    <path d="M430 356 q18 -6 36 0 t36 0" stroke-width="2" opacity="0.4"/>
    <path d="M600 372 q20 -6 40 0 t40 0" stroke-width="2" opacity="0.38"/>
    <path d="M60 396 q22 -7 44 0 t44 0" stroke-width="2.4" opacity="0.45"/>
    <path d="M300 404 q22 -7 44 0 t44 0" stroke-width="2.4" opacity="0.42"/>
    <path d="M520 412 q24 -8 48 0 t48 0" stroke-width="2.6" opacity="0.45"/>
    <path d="M760 398 q22 -7 44 0 t44 0" stroke-width="2.4" opacity="0.4"/>
    <path d="M120 428 q26 -9 52 0 t52 0" stroke-width="3" opacity="0.5"/>
    <path d="M400 436 q28 -10 56 0 t56 0" stroke-width="3.2" opacity="0.5"/>
    <path d="M660 432 q26 -9 52 0 t52 0" stroke-width="3" opacity="0.45"/>
  </g>

  <!-- 远处帆船 -->
  <g transform="translate(300 300)">
    <path d="M0 0 L0 -26 L18 0 Z" fill="#fdf6e6" opacity="0.9"/>
    <path d="M2 0 L-12 0 L-8 6 L8 6 Z" fill="#4a4a4a" opacity="0.8"/>
  </g>

  <!-- ==================== 浪花与湿沙 ==================== -->
  <path d="M0 452 C120 440 220 462 340 452 C460 442 560 464 700 452 C790 445 860 456 900 450 L900 470 L0 470 Z"
        fill="#f4fbff" opacity="0.75"/>
  <g fill="#ffffff" opacity="0.85">
    <ellipse cx="120" cy="458" rx="34" ry="6"/>
    <ellipse cx="300" cy="456" rx="42" ry="7"/>
    <ellipse cx="560" cy="460" rx="46" ry="7"/>
    <ellipse cx="800" cy="454" rx="38" ry="6"/>
  </g>

  <!-- 沙滩 -->
  <rect x="0" y="462" width="900" height="138" fill="url(#sandGrad)"/>
  <rect x="0" y="462" width="900" height="70" fill="url(#wetSand)"/>

  <!-- 沙滩纹理 -->
  <g fill="none" stroke="#b08b55" stroke-linecap="round" opacity="0.35">
    <path d="M40 500 q60 -6 120 0" stroke-width="2"/>
    <path d="M200 528 q80 -7 160 0" stroke-width="2"/>
    <path d="M470 512 q70 -6 140 0" stroke-width="2"/>
    <path d="M640 545 q70 -6 140 0" stroke-width="2"/>
    <path d="M90 566 q70 -6 140 0" stroke-width="2"/>
    <path d="M380 580 q80 -7 160 0" stroke-width="2"/>
  </g>
  <g fill="#8f7042" opacity="0.28">
    <circle cx="150" cy="522" r="2.4"/>
    <circle cx="210" cy="548" r="2"/>
    <circle cx="420" cy="556" r="2.6"/>
    <circle cx="600" cy="522" r="2.2"/>
    <circle cx="700" cy="560" r="2.4"/>
    <circle cx="330" cy="584" r="2"/>
    <circle cx="820" cy="536" r="2.6"/>
  </g>

  <!-- ==================== 速度线 / 风 ==================== -->
  <g stroke="#ffffff" stroke-linecap="round" fill="none">
    <path d="M70 300 q60 -6 120 0" stroke-width="3" opacity="0.4"/>
    <path d="M40 340 q70 -7 140 0" stroke-width="3.4" opacity="0.34"/>
    <path d="M100 388 q60 -6 120 0" stroke-width="3.6" opacity="0.3"/>
    <path d="M60 430 q80 -8 160 0" stroke-width="4" opacity="0.28"/>
    <path d="M140 470 q60 -6 120 0" stroke-width="3.4" opacity="0.26"/>
  </g>

  <!-- ==================== 自行车 + 鹈鹕（带投影） ==================== -->
  <g filter="url(#softShadow)">

    <!-- ========== 自行车 ========== -->
    <g>
      <!-- 后轮 -->
      <use href="#wheel" transform="translate(300 440)"/>
      <!-- 前轮 -->
      <use href="#wheel" transform="translate(610 440)"/>

      <!-- 链条 -->
      <g stroke="#5a5f66" stroke-width="3.2" fill="none" stroke-dasharray="3.5 2.2">
        <path d="M300 429 L445 421"/>
        <path d="M300 451 L445 469"/>
      </g>
      <circle cx="300" cy="440" r="11" fill="url(#metalGrad)" stroke="#6f7982" stroke-width="2"/>
      <circle cx="445" cy="445" r="24" fill="none" stroke="url(#metalGrad)" stroke-width="5"/>
      <circle cx="445" cy="445" r="24" fill="none" stroke="#8b96a3" stroke-width="5" stroke-dasharray="2.5 3.5"/>
      <circle cx="445" cy="445" r="6" fill="#5a6672"/>

      <!-- 车架 -->
      <g stroke="url(#frameGrad)" stroke-linecap="round" fill="none">
        <!-- 下管 -->
        <path d="M447 445 L557 318" stroke-width="15"/>
        <!-- 上管 -->
        <path d="M388 330 L557 316" stroke-width="13"/>
        <!-- 座管 -->
        <path d="M447 445 L388 330" stroke-width="14"/>
        <!-- 头管 -->
        <path d="M557 314 L578 350" stroke-width="16"/>
        <!-- 前叉 -->
        <path d="M578 350 L610 440" stroke-width="11"/>
        <!-- 后下叉 -->
        <path d="M300 440 L447 445" stroke-width="10"/>
        <!-- 后上叉 -->
        <path d="M300 440 L388 330" stroke-width="9"/>
      </g>
      <!-- 车架高光 -->
      <g stroke="#ffb4a2" stroke-linecap="round" fill="none" opacity="0.65">
        <path d="M452 440 L556 318" stroke-width="3"/>
        <path d="M392 326 L554 313" stroke-width="2.6"/>
      </g>

      <!-- 座管 + 车座 -->
      <path d="M388 330 L382 316" stroke="url(#metalGrad)" stroke-width="9" stroke-linecap="round"/>
      <path d="M352 314 C368 300 412 302 424 316 C412 322 366 324 352 314 Z" fill="#2f333a"/>
      <path d="M356 312 C370 303 406 304 418 313" stroke="#6a7078" stroke-width="2.4" fill="none"/>

      <!-- 车把 -->
      <path d="M557 314 L562 292 L600 288" stroke="url(#metalGrad)" stroke-width="9" fill="none" stroke-linecap="round"/>
      <path d="M600 288 L612 300" stroke="#2f333a" stroke-width="11" fill="none" stroke-linecap="round"/>
      <path d="M557 314 L552 292 L540 296" stroke="url(#metalGrad)" stroke-width="8" fill="none" stroke-linecap="round"/>

      <!-- 曲柄与脚踏 -->
      <path d="M445 445 L477 434" stroke="url(#metalGrad)" stroke-width="8" stroke-linecap="round"/>
      <path d="M445 445 L413 456" stroke="#aeb8c2" stroke-width="8" stroke-linecap="round"/>
      <g transform="translate(477 434) rotate(-18)">
        <rect x="-13" y="-5" width="26" height="10" rx="3" fill="#2f333a"/>
      </g>
      <g transform="translate(413 456) rotate(-18)">
        <rect x="-13" y="-5" width="26" height="10" rx="3" fill="#4a4f57"/>
      </g>
    </g>

    <!-- ========== 鹈鹕 ========== -->
    <g>
      <!-- 远侧翅膀（向后扬起，保持平衡） -->
      <path d="M410 252 C356 214 288 196 214 206 C252 240 306 268 366 286 C384 280 400 268 410 252 Z"
            fill="url(#wingGrad)" stroke="#a9b8c4" stroke-width="2"/>
      <g stroke="#b9c6d1" stroke-width="2" fill="none" opacity="0.9">
        <path d="M400 256 C352 232 296 216 236 216"/>
        <path d="M392 268 C346 246 296 232 248 232"/>
        <path d="M382 278 C342 260 300 248 262 246"/>
      </g>
      <!-- 后翼初级飞羽 -->
      <g fill="url(#wingGrad)" stroke="#a9b8c4" stroke-width="1.8" stroke-linejoin="round">
        <path d="M220 210 C198 200 172 196 152 202 C176 216 200 224 220 222 Z"/>
        <path d="M232 224 C212 216 188 214 170 222 C194 234 216 238 234 234 Z"/>
        <path d="M246 238 C228 232 206 232 190 242 C214 250 236 252 252 246 Z"/>
        <path d="M262 252 C246 248 226 250 212 260 C234 266 254 266 268 258 Z"/>
      </g>

      <!-- 尾羽 -->
      <path d="M300 316 C258 320 220 340 198 366 C242 360 286 344 318 332 Z"
            fill="url(#wingGrad)" stroke="#a9b8c4" stroke-width="2"/>
      <g stroke="#b9c6d1" stroke-width="1.8" fill="none">
        <path d="M306 322 C274 328 244 344 220 360"/>
        <path d="M312 330 C286 336 260 350 238 362"/>
      </g>

      <!-- 身体 -->
      <ellipse cx="376" cy="290" rx="90" ry="67" transform="rotate(-8 376 290)"
               fill="url(#bodyGrad)" stroke="#b6c3ce" stroke-width="2.2"/>
      <!-- 体积感高光 -->
      <ellipse cx="350" cy="260" rx="60" ry="42" transform="rotate(-12 350 260)"
               fill="url(#bodyHL)"/>
      <path d="M318 246 C352 228 404 228 442 244" stroke="#ffffff" stroke-width="5"
            fill="none" opacity="0.65" filter="url(#blur6)"/>
      <!-- 腹部与环境阴影 -->
      <path d="M296 302 C324 350 428 356 466 318 C452 352 344 362 296 302 Z" fill="#a3b3c3" opacity="0.62"/>
      <path d="M300 262 C288 292 296 330 322 350" stroke="#9fb0c1" stroke-width="10"
            fill="none" stroke-linecap="round" opacity="0.35" filter="url(#blur6)"/>
      <!-- 面向夕阳的暖色轮廓光 -->
      <path d="M452 250 C478 278 470 318 440 344" stroke="#ffd39a" stroke-width="8"
            fill="none" stroke-linecap="round" opacity="0.8" filter="url(#blur6)"/>

      <!-- 颈部 -->
      <ellipse cx="432" cy="288" rx="38" ry="24" fill="#a3b3c3" opacity="0.38" filter="url(#blur6)"/>
      <path d="M436 276 C444 226 466 196 504 186" stroke="url(#bodyGrad)" stroke-width="46"
            fill="none" stroke-linecap="round"/>
      <path d="M448 258 C458 224 474 202 500 192" stroke="#c3cfd9" stroke-width="10"
            fill="none" stroke-linecap="round" opacity="0.55"/>

      <!-- 头 -->
      <circle cx="506" cy="180" r="33" fill="url(#bodyGrad)" stroke="#b6c3ce" stroke-width="2.2"/>
      <!-- 头顶淡黄 -->
      <path d="M478 168 C490 152 520 150 534 164 C518 160 494 162 478 168 Z" fill="#ffe9b0" opacity="0.8"/>
      <!-- 头部暖色轮廓光 -->
      <path d="M494 150 C520 150 536 164 537 182" stroke="#ffd39a" stroke-width="6"
            fill="none" stroke-linecap="round" opacity="0.85" filter="url(#blur6)"/>
      <!-- 颈部暗面 -->
      <path d="M446 268 C452 232 468 206 492 194" stroke="#b3c1cd" stroke-width="9"
            fill="none" stroke-linecap="round" opacity="0.45"/>

      <!-- 眼睛 -->
      <circle cx="516" cy="168" r="12" fill="#e9c98a" opacity="0.65"/>
      <circle cx="516" cy="168" r="10.5" fill="#fdfefe" stroke="#c3b48f" stroke-width="1.5"/>
      <circle cx="518" cy="168" r="5.4" fill="#2a2a2a"/>
      <circle cx="518" cy="168" r="5.4" fill="none" stroke="#7a5a1e" stroke-width="1"/>
      <circle cx="516.5" cy="166" r="1.9" fill="#ffffff"/>
      <path d="M504 159 C510 153 522 153 528 159" stroke="#c9b48a" stroke-width="1.6" fill="none" opacity="0.8"/>

      <!-- 大喉囊 -->
      <path d="M528 184 C548 232 596 262 650 258 C690 255 722 232 744 208
               C700 246 620 256 546 226 C536 216 530 200 528 184 Z"
            fill="url(#pouchGrad)" stroke="#cf6d18" stroke-width="2.2"/>
      <g stroke="#d97a22" stroke-width="1.8" fill="none" opacity="0.7">
        <path d="M544 200 C566 232 604 250 646 250"/>
        <path d="M556 192 C578 218 612 234 648 236"/>
      </g>

      <!-- 喉囊里露出的鱼尾 -->
      <g transform="translate(598 226) rotate(18)">
        <ellipse cx="0" cy="0" rx="20" ry="9" fill="url(#fishGrad)" stroke="#4f8fb0" stroke-width="1.6"/>
        <path d="M-18 0 L-34 -12 L-30 0 L-34 12 Z" fill="url(#fishGrad)" stroke="#4f8fb0" stroke-width="1.4" stroke-linejoin="round"/>
        <circle cx="9" cy="-2.5" r="2.1" fill="#2b4a5c"/>
      </g>

      <!-- 上喙 -->
      <path d="M524 158 C602 160 684 182 748 210 C692 198 610 188 526 184 Z"
            fill="url(#beakGrad)" stroke="#c96f18" stroke-width="2"/>
      <path d="M534 166 C610 168 682 186 738 206" stroke="#ffe6a8" stroke-width="2.2"
            fill="none" opacity="0.75"/>
      <path d="M526 180 C600 186 676 196 742 208" stroke="#b35a12" stroke-width="1.6"
            fill="none" opacity="0.6"/>
      <!-- 鼻孔、喙脊与喙尖小钩 -->
      <ellipse cx="556" cy="173" rx="7" ry="2.6" transform="rotate(6 556 173)" fill="#b35a12" opacity="0.7"/>
      <path d="M536 176 C612 180 684 192 744 208" stroke="#c96f18" stroke-width="1.4" fill="none" opacity="0.65"/>
      <path d="M744 208 C751 210 753 215 749 218" stroke="#b35a12" stroke-width="3" fill="none" stroke-linecap="round"/>

      <!-- 近侧翅膀（伸向车把，形似手臂） -->
      <path d="M414 252 C470 258 534 272 586 286 C600 290 610 298 608 308
               C606 318 594 322 584 316 C578 312 574 306 572 300
               C522 298 462 296 408 298 Z"
            fill="url(#wingGrad)" stroke="#a9b8c4" stroke-width="2"/>
      <g stroke="#b9c6d1" stroke-width="1.8" fill="none" opacity="0.85">
        <path d="M436 262 C486 268 538 278 582 290"/>
        <path d="M428 276 C480 282 532 290 578 298"/>
        <path d="M424 290 C476 294 528 298 574 302"/>
      </g>
      <!-- 近翼下缘覆羽 -->
      <g fill="url(#wingGrad)" stroke="#a9b8c4" stroke-width="1.6" stroke-linejoin="round" opacity="0.95">
        <path d="M436 296 C428 306 416 312 404 314 C418 316 434 308 446 298 Z"/>
        <path d="M474 297 C466 308 454 316 442 320 C456 320 474 312 486 300 Z"/>
        <path d="M514 298 C508 308 498 316 486 320 C500 318 518 310 528 300 Z"/>
        <path d="M552 299 C548 308 540 314 530 318 C542 316 558 308 566 300 Z"/>
      </g>
      <!-- 翅尖的初级飞羽握住车把 -->
      <path d="M584 286 C598 286 610 292 611 302 C612 312 600 318 590 313
               C584 310 580 304 580 298 Z"
            fill="#f4f8fa" stroke="#a9b8c4" stroke-width="2"/>
      <g stroke="#c6d1da" stroke-width="1.6" fill="none" opacity="0.9">
        <path d="M586 292 C596 294 604 300 605 308"/>
        <path d="M582 300 C590 303 596 308 598 313"/>
      </g>

      <!-- 腿与蹼足 -->
      <!-- 远腿（后侧，略暗） -->
      <path d="M348 334 C360 368 368 390 376 404" stroke="#e08c22" stroke-width="20"
            fill="none" stroke-linecap="round"/>
      <path d="M376 404 C386 428 396 442 408 452" stroke="#e08c22" stroke-width="11"
            fill="none" stroke-linecap="round"/>
      <path d="M408 452 l-15 -3 l-5 9 l18 3 l18 -3 l-5 -9 Z" fill="#e8922a" stroke="#b9650f" stroke-width="1.6" stroke-linejoin="round"/>
      <!-- 近腿（前侧，受光） -->
      <path d="M392 330 C404 366 416 386 428 400" stroke="#f3a23c" stroke-width="22"
            fill="none" stroke-linecap="round"/>
      <path d="M428 400 C442 412 456 422 468 430" stroke="#f3a23c" stroke-width="12"
            fill="none" stroke-linecap="round"/>
      <path d="M404 356 C410 372 418 384 426 392" stroke="#ffd08a" stroke-width="4"
            fill="none" stroke-linecap="round" opacity="0.7"/>
      <path d="M468 430 l-16 -3 l-6 10 l20 3 l20 -3 l-6 -10 Z" fill="#f7b04a" stroke="#b9650f" stroke-width="1.6" stroke-linejoin="round"/>

      <!-- 身体上的羽毛细节 -->
      <g stroke="#b9c6d1" stroke-width="2" fill="none" opacity="0.75">
        <path d="M320 272 C350 258 400 256 440 268"/>
        <path d="M312 292 C346 278 400 276 442 288"/>
        <path d="M318 312 C352 300 402 298 440 308"/>
      </g>
    </g>
  </g>

  <!-- 轮子在沙滩上的接地阴影 -->
  <g fill="#8a6a3c" opacity="0.32">
    <ellipse cx="300" cy="514" rx="66" ry="10"/>
    <ellipse cx="610" cy="514" rx="66" ry="10"/>
    <ellipse cx="430" cy="516" rx="150" ry="12" opacity="0.5"/>
  </g>

  <!-- 后轮扬起的沙尘 -->
  <g fill="#e2c894" opacity="0.7">
    <ellipse cx="236" cy="500" rx="9" ry="6"/>
    <ellipse cx="212" cy="492" rx="7" ry="5"/>
    <ellipse cx="192" cy="506" rx="6" ry="4"/>
    <ellipse cx="222" cy="514" rx="8" ry="4.5"/>
    <ellipse cx="248" cy="518" rx="10" ry="4"/>
  </g>
  <g fill="none" stroke="#e8d3a9" stroke-linecap="round" opacity="0.65">
    <path d="M255 486 q-24 -6 -46 2" stroke-width="3"/>
    <path d="M248 524 q-26 6 -48 0" stroke-width="3"/>
  </g>

  <!-- 被风卷起的羽毛 -->
  <g fill="#fdfefe" stroke="#cdd8e0" stroke-width="1.4" opacity="0.9">
    <path d="M150 262 c-10 -8 -26 -6 -30 4 c10 4 22 4 30 -4 z"/>
    <path d="M96 300 c-9 -7 -24 -6 -27 3 c9 4 20 4 27 -3 z" transform="rotate(18 96 300)"/>
    <path d="M126 350 c-8 -6 -20 -5 -23 3 c8 3 17 3 23 -3 z" transform="rotate(-14 126 350)"/>
  </g>

  <!-- 前景草丛剪影 -->
  <g fill="#7a8f52" opacity="0.9">
    <path d="M0 600 L0 540 C10 552 14 570 16 600 Z"/>
    <path d="M14 600 C22 566 34 550 52 540 C40 562 34 582 34 600 Z"/>
    <path d="M44 600 C50 574 60 560 74 552 C64 574 60 588 60 600 Z"/>
    <path d="M900 600 L900 536 C888 550 884 570 882 600 Z"/>
    <path d="M884 600 C876 566 862 548 842 538 C856 562 862 582 862 600 Z"/>
  </g>

  <!-- 夕阳暖光笼罩 -->
  <radialGradient id="sunWash" cx="0.85" cy="0.2" r="0.95">
    <stop offset="0" stop-color="#ffd98a" stop-opacity="0.3"/>
    <stop offset="0.45" stop-color="#ffcf7a" stop-opacity="0.08"/>
    <stop offset="1" stop-color="#ffcf7a" stop-opacity="0"/>
  </radialGradient>
  <rect x="0" y="0" width="900" height="600" fill="url(#sunWash)" pointer-events="none"/>

  <!-- 画面暗角 -->
  <radialGradient id="vignette" cx="0.5" cy="0.48" r="0.72">
    <stop offset="0.6" stop-color="#000000" stop-opacity="0"/>
    <stop offset="1" stop-color="#3a2a12" stop-opacity="0.22"/>
  </radialGradient>
  <rect x="0" y="0" width="900" height="600" fill="url(#vignette)" pointer-events="none"/>
</svg>
