<svg xmlns="http://www.w3.org/2000/svg" viewBox="0 0 1600 1000" role="img" aria-labelledby="title desc">
  <title id="title">Pelican riding a bicycle by the sea</title>
  <desc id="desc">A vivid realistic vector scene of a pelican riding a bicycle along the seaside, with waves, sand, feathers, shadows, and warm coastal light.</desc>
  <defs>
    <linearGradient id="skyGradient" x1="0" y1="0" x2="0" y2="1">
      <stop offset="0" stop-color="#7fc8ef"/>
      <stop offset="0.45" stop-color="#bfe8f4"/>
      <stop offset="0.78" stop-color="#ffe3a6"/>
      <stop offset="1" stop-color="#f4c889"/>
    </linearGradient>

    <linearGradient id="seaGradient" x1="0" y1="0" x2="0" y2="1">
      <stop offset="0" stop-color="#157fa4"/>
      <stop offset="0.48" stop-color="#1aa3bc"/>
      <stop offset="1" stop-color="#75d2cf"/>
    </linearGradient>

    <linearGradient id="sandGradient" x1="0" y1="0" x2="0" y2="1">
      <stop offset="0" stop-color="#f8d99d"/>
      <stop offset="0.55" stop-color="#e7b769"/>
      <stop offset="1" stop-color="#c98e45"/>
    </linearGradient>

    <radialGradient id="sunGlow" cx="50%" cy="50%" r="50%">
      <stop offset="0" stop-color="#fff8ca"/>
      <stop offset="0.32" stop-color="#ffd675" stop-opacity="0.8"/>
      <stop offset="1" stop-color="#f9a64a" stop-opacity="0"/>
    </radialGradient>

    <linearGradient id="pelicanBody" x1="0" y1="0" x2="1" y2="1">
      <stop offset="0" stop-color="#fff9e9"/>
      <stop offset="0.3" stop-color="#f4ead2"/>
      <stop offset="0.72" stop-color="#c7bda9"/>
      <stop offset="1" stop-color="#8d8578"/>
    </linearGradient>

    <linearGradient id="wingGradient" x1="0" y1="0" x2="1" y2="1">
      <stop offset="0" stop-color="#faf2dc"/>
      <stop offset="0.5" stop-color="#d8cbb6"/>
      <stop offset="1" stop-color="#756e66"/>
    </linearGradient>

    <linearGradient id="beakGradient" x1="0" y1="0" x2="1" y2="0">
      <stop offset="0" stop-color="#f8c447"/>
      <stop offset="0.42" stop-color="#f1a33c"/>
      <stop offset="1" stop-color="#c16e2d"/>
    </linearGradient>

    <linearGradient id="pouchGradient" x1="0" y1="0" x2="0" y2="1">
      <stop offset="0" stop-color="#f5d08d" stop-opacity="0.95"/>
      <stop offset="0.55" stop-color="#e89e68" stop-opacity="0.9"/>
      <stop offset="1" stop-color="#a9563f" stop-opacity="0.82"/>
    </linearGradient>

    <linearGradient id="metalGradient" x1="0" y1="0" x2="1" y2="1">
      <stop offset="0" stop-color="#f5fbff"/>
      <stop offset="0.18" stop-color="#8295a3"/>
      <stop offset="0.42" stop-color="#2d3b45"/>
      <stop offset="0.72" stop-color="#9eb6c7"/>
      <stop offset="1" stop-color="#1d2830"/>
    </linearGradient>

    <radialGradient id="tireGradient" cx="50%" cy="50%" r="50%">
      <stop offset="0.72" stop-color="#1c252b"/>
      <stop offset="0.84" stop-color="#12181c"/>
      <stop offset="1" stop-color="#020405"/>
    </radialGradient>

    <pattern id="sandSpeckles" width="90" height="70" patternUnits="userSpaceOnUse">
      <circle cx="11" cy="19" r="2.1" fill="#b57d40" opacity="0.27"/>
      <circle cx="45" cy="35" r="1.3" fill="#fff0bf" opacity="0.5"/>
      <circle cx="76" cy="13" r="1.7" fill="#8f6337" opacity="0.23"/>
      <circle cx="28" cy="61" r="1.2" fill="#ad733b" opacity="0.25"/>
      <path d="M61 58c8-3 15-2 21 1" fill="none" stroke="#b67a3a" stroke-width="1.4" opacity="0.22"/>
    </pattern>

    <filter id="softShadow" x="-30%" y="-30%" width="160%" height="170%">
      <feDropShadow dx="8" dy="20" stdDeviation="13" flood-color="#2b241a" flood-opacity="0.28"/>
    </filter>

    <filter id="fineTexture" x="-20%" y="-20%" width="140%" height="140%">
      <feTurbulence type="fractalNoise" baseFrequency="0.9" numOctaves="2" seed="17" result="noise"/>
      <feColorMatrix in="noise" type="saturate" values="0"/>
      <feComponentTransfer>
        <feFuncA type="table" tableValues="0 0.07"/>
      </feComponentTransfer>
      <feBlend in="SourceGraphic" mode="multiply"/>
    </filter>

    <filter id="waterShimmer" x="-10%" y="-25%" width="120%" height="150%">
      <feTurbulence type="fractalNoise" baseFrequency="0.015 0.055" numOctaves="3" seed="9" result="waveNoise"/>
      <feDisplacementMap in="SourceGraphic" in2="waveNoise" scale="10" xChannelSelector="R" yChannelSelector="G"/>
    </filter>

    <filter id="rimLight" x="-25%" y="-25%" width="150%" height="150%">
      <feGaussianBlur in="SourceAlpha" stdDeviation="3" result="blur"/>
      <feOffset in="blur" dx="-4" dy="-5" result="offset"/>
      <feFlood flood-color="#fff4c5" flood-opacity="0.55" result="light"/>
      <feComposite in="light" in2="offset" operator="in" result="rim"/>
      <feMerge>
        <feMergeNode in="rim"/>
        <feMergeNode in="SourceGraphic"/>
      </feMerge>
    </filter>

    <clipPath id="seaClip">
      <path d="M0 414 C190 365 316 443 484 397 C692 340 824 428 1009 381 C1214 327 1374 388 1600 350 L1600 685 L0 685 Z"/>
    </clipPath>

    <clipPath id="bodyClip">
      <path d="M746 456c-91 6-160 68-174 142-13 72 32 148 119 175 102 32 239-10 292-93 44-69 31-153-31-195-44-30-112-34-206-29z"/>
    </clipPath>

    <style>
      .wave-line {
        fill: none;
        stroke: rgba(255,255,255,0.72);
        stroke-width: 5;
        stroke-linecap: round;
      }

      .thin-wave {
        fill: none;
        stroke: rgba(255,255,255,0.46);
        stroke-width: 2.5;
        stroke-linecap: round;
      }

      .spoke {
        stroke: #d3e0e7;
        stroke-width: 3;
        stroke-linecap: round;
        opacity: 0.8;
      }

      .frame {
        fill: none;
        stroke: url(#metalGradient);
        stroke-width: 17;
        stroke-linecap: round;
        stroke-linejoin: round;
      }

      .detail-line {
        fill: none;
        stroke: #5e5348;
        stroke-width: 3;
        stroke-linecap: round;
        opacity: 0.48;
      }

      .feather {
        fill: none;
        stroke: #7f786e;
        stroke-width: 3.5;
        stroke-linecap: round;
        opacity: 0.55;
      }

      .cloud {
        fill: #ffffff;
        opacity: 0.56;
      }
    </style>
  </defs>

  <rect width="1600" height="1000" fill="url(#skyGradient)"/>
  <circle cx="1230" cy="158" r="170" fill="url(#sunGlow)"/>
  <circle cx="1230" cy="158" r="62" fill="#fff0a6" opacity="0.88"/>

  <g opacity="0.72">
    <path class="cloud" d="M173 187c22-34 69-46 107-23 19-44 84-58 123-22 32-24 80-19 105 12 39-2 78 21 87 59 7 29-9 59-37 69H169c-34-8-55-37-49-69 4-23 24-44 53-26z"/>
    <path class="cloud" d="M919 108c18-25 54-33 83-18 19-35 72-43 103-13 23-17 60-14 80 8 28 0 56 17 62 44 4 22-8 44-29 52H923c-25-7-40-28-36-52 3-17 16-32 32-21z"/>
    <path class="cloud" d="M1272 278c19-24 55-32 83-16 18-36 76-45 108-8 23-18 63-15 84 9 29-1 60 19 65 47 5 23-9 47-31 55h-309c-27-7-45-30-39-56 4-18 19-35 39-31z"/>
  </g>

  <g opacity="0.35">
    <path d="M0 333 C110 303 218 304 342 336 C467 368 571 369 696 330 C828 289 958 298 1100 336 C1276 383 1425 374 1600 328" fill="none" stroke="#fff7df" stroke-width="3"/>
    <path d="M0 377 C133 346 244 349 390 379 C550 412 675 404 832 362 C975 323 1129 343 1283 378 C1398 404 1507 401 1600 384" fill="none" stroke="#ffffff" stroke-width="2"/>
  </g>

  <g clip-path="url(#seaClip)">
    <rect x="0" y="329" width="1600" height="380" fill="url(#seaGradient)"/>
    <g filter="url(#waterShimmer)" opacity="0.9">
      <path class="wave-line" d="M-28 458c84-31 152-34 227-4s157 26 247-9 163-36 242-6 152 26 247-10 173-34 260 2 165 33 262-2 153-37 200-21"/>
      <path class="thin-wave" d="M65 513c74-16 132-14 190 2 82 22 154 16 242-12 85-27 167-28 249-4 76 22 139 22 217-5 91-32 178-27 257-1 92 30 162 22 250-8"/>
      <path class="wave-line" d="M-52 596c69-22 126-24 202-1 87 26 153 27 234 1 91-29 165-31 257-6 75 20 142 24 226-1 91-27 176-31 276-4 101 27 190 19 289-10 83-24 154-23 214-3"/>
      <path class="thin-wave" d="M12 631c107-15 191-7 280 16 103 27 183 17 281-12 91-27 169-25 256-4 95 23 177 21 284-8 101-27 198-25 323 7"/>
      <path d="M0 667 C146 626 270 659 423 635 C567 612 672 652 821 621 C979 589 1102 647 1257 615 C1389 588 1489 598 1600 622 L1600 708 L0 708 Z" fill="#d8fff5" opacity="0.34"/>
    </g>
  </g>

  <path d="M0 644 C172 606 298 660 453 635 C625 607 736 667 920 632 C1089 599 1214 638 1356 612 C1447 595 1527 589 1600 606 L1600 1000 L0 1000 Z" fill="url(#sandGradient)"/>
  <path d="M0 644 C172 606 298 660 453 635 C625 607 736 667 920 632 C1089 599 1214 638 1356 612 C1447 595 1527 589 1600 606 L1600 1000 L0 1000 Z" fill="url(#sandSpeckles)" opacity="0.68"/>
  <path d="M0 648 C169 617 289 669 453 642 C623 614 733 675 921 641 C1089 610 1210 647 1354 621 C1450 604 1530 599 1600 616" fill="none" stroke="#fff7d7" stroke-width="13" opacity="0.55"/>
  <path d="M0 674 C175 643 305 693 471 668 C624 645 735 699 911 666 C1065 638 1204 675 1353 651 C1436 638 1519 632 1600 647" fill="none" stroke="#4aaec1" stroke-width="7" opacity="0.3"/>

  <ellipse cx="812" cy="875" rx="455" ry="62" fill="#432c1d" opacity="0.2"/>

  <g id="bicycle" filter="url(#softShadow)">
    <g id="rearWheel" transform="translate(507 786)">
      <circle r="128" fill="none" stroke="url(#tireGradient)" stroke-width="23"/>
      <circle r="103" fill="none" stroke="#c8d7df" stroke-width="5" opacity="0.82"/>
      <circle r="14" fill="#c2d5de" stroke="#35434b" stroke-width="6"/>
      <g>
        <line class="spoke" x1="0" y1="0" x2="0" y2="-103"/>
        <line class="spoke" x1="0" y1="0" x2="36" y2="-97"/>
        <line class="spoke" x1="0" y1="0" x2="70" y2="-76"/>
        <line class="spoke" x1="0" y1="0" x2="94" y2="-42"/>
        <line class="spoke" x1="0" y1="0" x2="103" y2="0"/>
        <line class="spoke" x1="0" y1="0" x2="94" y2="42"/>
        <line class="spoke" x1="0" y1="0" x2="70" y2="76"/>
        <line class="spoke" x1="0" y1="0" x2="36" y2="97"/>
        <line class="spoke" x1="0" y1="0" x2="0" y2="103"/>
        <line class="spoke" x1="0" y1="0" x2="-36" y2="97"/>
        <line class="spoke" x1="0" y1="0" x2="-70" y2="76"/>
        <line class="spoke" x1="0" y1="0" x2="-94" y2="42"/>
        <line class="spoke" x1="0" y1="0" x2="-103" y2="0"/>
        <line class="spoke" x1="0" y1="0" x2="-94" y2="-42"/>
        <line class="spoke" x1="0" y1="0" x2="-70" y2="-76"/>
        <line class="spoke" x1="0" y1="0" x2="-36" y2="-97"/>
      </g>
      <path d="M-103 0c18 57 70 99 132 101" fill="none" stroke="#fff" stroke-width="7" opacity="0.18"/>
    </g>

    <g id="frontWheel" transform="translate(1058 786)">
      <circle r="128" fill="none" stroke="url(#tireGradient)" stroke-width="23"/>
      <circle r="103" fill="none" stroke="#c8d7df" stroke-width="5" opacity="0.82"/>
      <circle r="14" fill="#c2d5de" stroke="#35434b" stroke-width="6"/>
      <g>
        <line class="spoke" x1="0" y1="0" x2="0" y2="-103"/>
        <line class="spoke" x1="0" y1="0" x2="36" y2="-97"/>
        <line class="spoke" x1="0" y1="0" x2="70" y2="-76"/>
        <line class="spoke" x1="0" y1="0" x2="94" y2="-42"/>
        <line class="spoke" x1="0" y1="0" x2="103" y2="0"/>
        <line class="spoke" x1="0" y1="0" x2="94" y2="42"/>
        <line class="spoke" x1="0" y1="0" x2="70" y2="76"/>
        <line class="spoke" x1="0" y1="0" x2="36" y2="97"/>
        <line class="spoke" x1="0" y1="0" x2="0" y2="103"/>
        <line class="spoke" x1="0" y1="0" x2="-36" y2="97"/>
        <line class="spoke" x1="0" y1="0" x2="-70" y2="76"/>
        <line class="spoke" x1="0" y1="0" x2="-94" y2="42"/>
        <line class="spoke" x1="0" y1="0" x2="-103" y2="0"/>
        <line class="spoke" x1="0" y1="0" x2="-94" y2="-42"/>
        <line class="spoke" x1="0" y1="0" x2="-70" y2="-76"/>
        <line class="spoke" x1="0" y1="0" x2="-36" y2="-97"/>
      </g>
      <path d="M-103 0c18 57 70 99 132 101" fill="none" stroke="#fff" stroke-width="7" opacity="0.18"/>
    </g>

    <path class="frame" d="M507 786 L642 617 L819 786 L507 786 Z"/>
    <path class="frame" d="M642 617 L892 614 L819 786"/>
    <path class="frame" d="M892 614 L1058 786"/>
    <path class="frame" d="M819 786 L942 604"/>
    <path class="frame" d="M1058 786 L996 546"/>
    <path class="frame" d="M996 546 L1094 522"/>
    <path class="frame" d="M1094 522 C1133 514 1153 528 1174 556"/>
    <path class="frame" d="M642 617 L610 535"/>
    <path d="M556 518 L680 518" fill="none" stroke="#25333b" stroke-width="18" stroke-linecap="round"/>
    <path d="M575 501 L677 501" fill="none" stroke="#71523b" stroke-width="10" stroke-linecap="round" opacity="0.8"/>

    <g transform="translate(819 786)">
      <circle r="37" fill="#1f2d35" stroke="#b7cbd5" stroke-width="9"/>
      <circle r="15" fill="#edf6f8" opacity="0.9"/>
      <path d="M0 0 L71 -38" fill="none" stroke="#2c3b44" stroke-width="12" stroke-linecap="round"/>
      <path d="M0 0 L-74 42" fill="none" stroke="#2c3b44" stroke-width="12" stroke-linecap="round"/>
      <rect x="63" y="-50" width="56" height="14" rx="7" transform="rotate(-14)" fill="#1e292f"/>
      <rect x="-129" y="38" width="57" height="14" rx="7" transform="rotate(-17)" fill="#1e292f"/>
    </g>

    <path d="M517 775 C586 708 706 729 801 779 C915 839 1004 842 1069 781" fill="none" stroke="#1e2830" stroke-width="7" opacity="0.22"/>
  </g>

  <g id="pelican" filter="url(#rimLight)">
    <path d="M586 638 C520 648 468 700 442 766 C429 800 431 829 450 840 C478 856 508 818 527 776 C550 725 590 697 648 688 Z" fill="#d18a4d" stroke="#9a5b32" stroke-width="6"/>
    <path d="M1004 621 C1073 625 1121 684 1142 753 C1151 785 1145 814 1124 823 C1094 837 1069 794 1053 751 C1034 702 994 681 934 677 Z" fill="#d18a4d" stroke="#9a5b32" stroke-width="6"/>
    <path d="M493 778 C524 792 548 811 567 839" fill="none" stroke="#7a4428" stroke-width="10" stroke-linecap="round"/>
    <path d="M1110 760 C1085 787 1061 811 1043 843" fill="none" stroke="#7a4428" stroke-width="10" stroke-linecap="round"/>
    <path d="M548 837 C523 835 495 846 476 867 C514 876 550 872 579 855 C573 847 562 840 548 837 Z" fill="#d99958" stroke="#854923" stroke-width="5"/>
    <path d="M1045 842 C1065 823 1095 817 1124 823 C1097 852 1066 866 1029 864 C1028 856 1034 848 1045 842 Z" fill="#d99958" stroke="#854923" stroke-width="5"/>

    <g id="body" filter="url(#fineTexture)">
      <path d="M746 456c-91 6-160 68-174 142-13 72 32 148 119 175 102 32 239-10 292-93 44-69 31-153-31-195-44-30-112-34-206-29z" fill="url(#pelicanBody)" stroke="#6f675d" stroke-width="7"/>
      <g clip-path="url(#bodyClip)">
        <path d="M636 520c-12 79 19 147 97 200 63 42 144 46 241 14-44 53-112 89-190 104-123 24-223-33-246-129-19-78 17-154 98-189z" fill="#816f65" opacity="0.34"/>
        <path d="M712 464c-54 44-83 103-78 161 8 87 84 137 188 136 59 0 116-16 167-44-58 63-153 99-246 86-116-16-188-94-174-190 10-69 65-129 143-149z" fill="#fff9e9" opacity="0.42"/>
        <path d="M677 628 C731 590 803 581 872 598 C925 611 968 637 995 674" fill="none" stroke="#7f7469" stroke-width="5" opacity="0.33"/>
        <path d="M648 675 C714 643 793 641 869 659 C922 672 967 697 998 732" fill="none" stroke="#6c625a" stroke-width="4" opacity="0.25"/>
      </g>
    </g>

    <path d="M721 493 C781 557 820 642 826 746 C744 735 660 690 623 622 C590 562 616 510 721 493 Z" fill="url(#wingGradient)" stroke="#6d665e" stroke-width="6"/>
    <path d="M654 548 C710 585 750 643 776 719" class="feather"/>
    <path d="M690 524 C746 574 780 637 797 732" class="feather"/>
    <path d="M724 511 C773 570 802 633 811 721" class="feather"/>
    <path d="M638 590 C695 619 736 666 762 733" class="feather"/>
    <path d="M620 631 C678 657 719 696 746 746" class="feather"/>
    <path d="M761 737 C710 748 661 738 612 707 C652 754 719 791 798 790 C790 769 778 751 761 737 Z" fill="#6d665f" opacity="0.23"/>

    <path d="M885 496 C858 466 852 426 871 390 C895 344 953 324 1012 348 C1066 370 1098 422 1086 472 C1078 504 1053 531 1011 548 C958 569 914 550 885 496 Z" fill="url(#pelicanBody)" stroke="#6f675d" stroke-width="7"/>
    <path d="M904 380 C940 357 993 360 1031 390 C999 382 948 388 918 414 C906 424 895 438 888 454 C884 423 889 398 904 380 Z" fill="#fff9ed" opacity="0.68"/>

    <path d="M1017 421 C1103 382 1197 366 1294 371 C1349 374 1376 396 1366 424 C1353 462 1264 482 1153 474 C1099 470 1054 461 1019 447 Z" fill="url(#beakGradient)" stroke="#87522c" stroke-width="7" stroke-linejoin="round"/>
    <path d="M1035 453 C1118 468 1216 473 1327 463 C1324 504 1294 535 1234 554 C1163 576 1095 553 1035 453 Z" fill="url(#pouchGradient)" stroke="#8d4b36" stroke-width="6"/>
    <path d="M1057 438 C1143 422 1246 417 1353 421" fill="none" stroke="#fff0a7" stroke-width="5" opacity="0.48" stroke-linecap="round"/>
    <path d="M1118 468 C1158 506 1202 523 1250 518" fill="none" stroke="#8e4e39" stroke-width="4" opacity="0.46" stroke-linecap="round"/>
    <path d="M1184 472 C1204 495 1235 505 1279 502" fill="none" stroke="#8e4e39" stroke-width="3" opacity="0.35" stroke-linecap="round"/>
    <path d="M1013 444 C991 438 982 420 989 401 C1004 405 1021 413 1034 424 C1032 434 1025 441 1013 444 Z" fill="#f7ecdc" stroke="#6f675d" stroke-width="5"/>
    <circle cx="1003" cy="404" r="16" fill="#fdf9ea" stroke="#5a5048" stroke-width="4"/>
    <circle cx="1008" cy="406" r="6" fill="#11171b"/>
    <circle cx="1011" cy="402" r="2.2" fill="#fff"/>

    <path d="M871 389 C835 344 804 309 775 276 C752 251 725 249 708 270 C691 291 704 317 732 337 C776 368 815 408 849 467" fill="none" stroke="#f3ead6" stroke-width="56" stroke-linecap="round"/>
    <path d="M871 389 C835 344 804 309 775 276 C752 251 725 249 708 270 C691 291 704 317 732 337 C776 368 815 408 849 467" fill="none" stroke="#736b61" stroke-width="7" stroke-linecap="round" opacity="0.9"/>
    <path d="M726 290 C746 300 762 316 776 337" fill="none" stroke="#a59b8b" stroke-width="5" stroke-linecap="round" opacity="0.55"/>

    <path d="M571 674 C617 643 658 644 698 678" fill="none" stroke="#6c4e38" stroke-width="17" stroke-linecap="round"/>
    <path d="M973 668 C1013 640 1050 636 1093 664" fill="none" stroke="#6c4e38" stroke-width="17" stroke-linecap="round"/>
    <path d="M571 674 C621 665 661 671 698 678" fill="none" stroke="#f0c06b" stroke-width="6" stroke-linecap="round" opacity="0.72"/>
    <path d="M973 668 C1013 657 1050 655 1093 664" fill="none" stroke="#f0c06b" stroke-width="6" stroke-linecap="round" opacity="0.72"/>

    <path d="M662 760 C704 779 747 792 796 795" fill="none" stroke="#766b5d" stroke-width="5" opacity="0.35" stroke-linecap="round"/>
    <path d="M730 803 C784 815 842 810 895 789" fill="none" stroke="#fff5dd" stroke-width="5" opacity="0.35" stroke-linecap="round"/>
  </g>

  <g opacity="0.75">
    <path d="M126 820 C160 805 195 803 231 816" fill="none" stroke="#6b8a92" stroke-width="5" stroke-linecap="round"/>
    <path d="M1373 765 C1428 751 1477 758 1516 787" fill="none" stroke="#6b8a92" stroke-width="5" stroke-linecap="round"/>
    <path d="M1188 893 C1240 875 1289 879 1332 908" fill="none" stroke="#8a653e" stroke-width="4" stroke-linecap="round" opacity="0.45"/>
    <path d="M271 910 C319 897 363 902 402 923" fill="none" stroke="#8a653e" stroke-width="4" stroke-linecap="round" opacity="0.45"/>
  </g>

  <g opacity="0.65">
    <path d="M1326 252 C1344 234 1369 234 1387 252" fill="none" stroke="#394b53" stroke-width="5" stroke-linecap="round"/>
    <path d="M1391 282 C1412 262 1440 263 1459 282" fill="none" stroke="#394b53" stroke-width="4" stroke-linecap="round"/>
    <path d="M92 287 C113 268 141 269 159 288" fill="none" stroke="#394b53" stroke-width="4" stroke-linecap="round"/>
  </g>
</svg>
