<svg xmlns="http://www.w3.org/2000/svg" role="img" aria-labelledby="title desc" viewBox="0 0 1600 900" preserveAspectRatio="xMidYMid meet" style="max-width:100%;height:auto;display:block">
<title id="title">海边骑自行车的鹈鹕</title>
<desc id="desc">一只羽毛细腻的褐鹈鹕迎着海风，骑青绿色自行车沿阳光下的海岸前行。</desc>
<defs>
  <linearGradient id="sky" x2="0" y2="1"><stop stop-color="#62b8dc"/><stop offset=".58" stop-color="#c2e6e5"/><stop offset="1" stop-color="#f7d6a2"/></linearGradient>
  <linearGradient id="sea" x2="0" y2="1"><stop stop-color="#177f9e"/><stop offset=".5" stop-color="#269fb3"/><stop offset="1" stop-color="#69c7bd"/></linearGradient>
  <linearGradient id="sand" x2="0" y2="1"><stop stop-color="#e8c57d"/><stop offset=".55" stop-color="#cba070"/><stop offset="1" stop-color="#aa7658"/></linearGradient>
  <linearGradient id="body" x2="1" y2="1"><stop stop-color="#c1ad91"/><stop offset=".4" stop-color="#806b59"/><stop offset="1" stop-color="#3d3736"/></linearGradient>
  <linearGradient id="wing" x2="1" y2="1"><stop stop-color="#8e7760"/><stop offset=".5" stop-color="#51443d"/><stop offset="1" stop-color="#252b2d"/></linearGradient>
  <linearGradient id="neck" x2="1" y2=".8"><stop stop-color="#fff8df"/><stop offset=".5" stop-color="#d8c8a9"/><stop offset="1" stop-color="#806c5d"/></linearGradient>
  <linearGradient id="bill" x2="1"><stop stop-color="#e0bd70"/><stop offset=".62" stop-color="#c9934c"/><stop offset="1" stop-color="#995c39"/></linearGradient>
  <linearGradient id="pouch" x2=".8" y2="1"><stop stop-color="#daa270"/><stop offset=".6" stop-color="#ad6954"/><stop offset="1" stop-color="#6f4647"/></linearGradient>
  <linearGradient id="paint" x2="1" y2="1"><stop stop-color="#65c2b4"/><stop offset=".4" stop-color="#167c78"/><stop offset="1" stop-color="#0b4e54"/></linearGradient>
  <filter id="shadow" x="-30%" y="-80%" width="160%" height="260%"><feGaussianBlur stdDeviation="12"/></filter>
  <g id="wheel"><circle r="145" fill="none" stroke="#172326" stroke-width="14"/><circle r="136" fill="none" stroke="#cad5d2" stroke-width="3"/>
    <path d="M-136 0H136M0-136V136M-96-96L96 96M96-96L-96 96M-52-126L52 126M52-126L-52 126M-126-52L126 52M126-52L-126 52" stroke="#e9efeb" stroke-width="1.3" opacity=".72"/>
    <circle r="13" fill="#82999b" stroke="#263b3f" stroke-width="4"/><rect x="-5" y="-122" width="10" height="25" rx="3" fill="#e8933d" stroke="#fff0b3" stroke-width="2"/>
  </g>
  <style>
    .rw,.fw{animation:spin 1.6s linear infinite}.rw{transform-origin:540px 700px}.fw{transform-origin:1110px 700px}.rider{animation:bob 1.6s ease-in-out infinite}.head{transform-origin:1020px 245px;animation:nod 3.2s ease-in-out infinite}.foam{animation:drift 6s linear infinite}.flecks{animation:fleck 2s ease-out infinite}
    @keyframes spin{to{transform:rotate(360deg)}}@keyframes bob{50%{transform:translateY(3px)}}@keyframes nod{50%{transform:rotate(1.3deg)}}@keyframes drift{to{stroke-dashoffset:-180}}@keyframes fleck{0%{opacity:0}35%{opacity:.7}to{opacity:0;transform:translate(-42px,-10px)}}
    @media(prefers-reduced-motion:reduce){.rw,.fw,.rider,.head,.foam,.flecks{animation:none!important}}
  </style>
</defs>

<rect width="1600" height="900" fill="url(#sky)"/>
<circle cx="245" cy="145" r="150" fill="#fff1ad" opacity=".18"/><circle cx="245" cy="145" r="50" fill="#fff5bf" opacity=".9"/>
<g fill="#fff" opacity=".48"><path d="M85 245c35-40 77-20 88 9 28-34 86-26 96 17H68c1-12 7-21 17-26Z"/><path d="M1240 166c30-35 69-17 78 8 33-30 83-15 91 22h-200c5-17 15-27 31-30Z"/></g>
<g fill="none" stroke="#405e67" stroke-width="3" stroke-linecap="round" opacity=".55"><path d="M380 235q16-13 32 0q16-13 32 0"/><path d="M1370 260q11-9 22 0q11-9 22 0"/></g>

<path d="M0 335H1600V635c-218-43-365-39-546-16-199 25-345 40-548-7C318 568 170 559 0 595Z" fill="url(#sea)"/>
<path d="M0 340H1600" stroke="#e9f5e9" stroke-width="9" opacity=".52"/>
<g fill="none" stroke-linecap="round"><path d="M-20 421c170-31 285 35 449 0s290-4 432 20 265-7 411-25 247 7 360 27" stroke="#d9f4eb" stroke-width="7" stroke-dasharray="130 35 55 28" opacity=".7" class="foam"/><path d="M-30 512c168-48 294 34 467-5s289-7 441 19 277-7 430-26 225 12 330 29" stroke="#f2fff8" stroke-width="13" stroke-dasharray="190 42 85 31" opacity=".86" class="foam"/></g>
<path d="M0 405c94-44 167-27 251 5 69 26 142 29 229 22v83H0Z" fill="#4f7970"/><path d="M0 414c89-37 156-23 242 12 72 29 143 28 223 21" fill="none" stroke="#a6bd9c" stroke-width="11" opacity=".65"/>
<path d="M0 545c199-38 360 8 555 61 196 54 365 25 552-3 210-31 354 4 493 40v257H0Z" fill="url(#sand)"/>
<path d="M0 578c190-37 361 13 556 55 207 45 353 24 548 1 205-24 359 7 496 46v220H0Z" fill="#b68d70" opacity=".62"/>
<path d="M-20 566c190-45 370 8 564 55 196 47 360 29 550 1 210-31 374 7 526 49" fill="none" stroke="#fff9e8" stroke-width="18" stroke-dasharray="220 35 95 30" stroke-linecap="round" class="foam"/>

<g stroke="#536749" stroke-width="6" stroke-linecap="round"><path d="M82 718q3-57 20-92M97 680q25-38 46-47M93 692q-14-44-34-62"/><path d="M1503 724q-2-53 14-94M1512 681q24-35 44-43M1508 693q-18-42-39-57"/></g>
<g fill="#6f5448" opacity=".42"><ellipse cx="164" cy="766" rx="9" ry="3"/><ellipse cx="340" cy="838" rx="7" ry="2"/><ellipse cx="1365" cy="780" rx="10" ry="3"/><ellipse cx="1470" cy="854" rx="6" ry="2"/></g>

<ellipse cx="825" cy="853" rx="435" ry="34" fill="#3d3734" opacity=".28" filter="url(#shadow)"/>
<g class="rw"><use href="#wheel" transform="translate(540 700)"/></g><g class="fw"><use href="#wheel" transform="translate(1110 700)"/></g>
<g fill="none" stroke-linecap="round" stroke-linejoin="round"><path d="M540 700 726 510 805 700 540 700 982 535 805 700 726 510 968 505 982 535" stroke="#173f43" stroke-width="19"/><path d="M540 700 726 510 805 700 540 700 982 535 805 700 726 510 968 505 982 535" stroke="url(#paint)" stroke-width="12"/><path d="M976 520 1110 700" stroke="#31484c" stroke-width="15"/><path d="M976 520 1110 700" stroke="#b5c6c3" stroke-width="7"/><path d="M968 505 1008 452 1063 452" stroke="#34494c" stroke-width="10"/><path d="M727 510 714 480" stroke="#37494b" stroke-width="9"/></g>
<path d="M674 470c27-14 79-12 105 4l-12 22c-31-5-60-5-91 0Z" fill="#674039" stroke="#312b2a" stroke-width="5"/><path d="M687 476c25-8 54-7 77 2" fill="none" stroke="#da8060" stroke-width="4"/>
<circle cx="805" cy="700" r="32" fill="none" stroke="#314448" stroke-width="8"/><path d="M805 700 842 726M805 700 768 674M833 729h31M739 672h31" stroke="#b7c4c1" stroke-width="7" stroke-linecap="round"/><path d="M540 706c79 48 185 48 268 1" fill="none" stroke="#4f4134" stroke-width="4"/>

<g class="rider">
  <path d="M678 492c30 46 48 104 76 174l23 24" fill="none" stroke="#896754" stroke-width="29" stroke-linecap="round"/><path d="M760 674q27 11 48 29-26 6-48-6 23 12 33 26-27 0-46-20Z" fill="#d8a568" stroke="#755241" stroke-width="3"/>
  <path d="M489 412c39-82 143-113 252-82 108 31 177 100 149 177-29 79-153 95-267 52-101-38-168-76-134-147Z" fill="url(#body)" stroke="#4c403a" stroke-width="4"/>
  <path d="M503 447q-62 13-101 65 57-26 112-21M513 474q-56 31-77 76 49-30 94-38M527 500q-40 38-45 76 37-36 77-49" fill="#2b3031" stroke="#2b3031" stroke-width="5"/>
  <path d="M538 400c72-56 202-39 283 31 49 42 26 90-31 111-75 27-184-13-248-75-24-23-28-48-4-67Z" fill="url(#wing)" stroke="#443a36" stroke-width="4"/>
  <path d="M560 410c66-32 144-18 216 31-70-24-136-13-201 27-25-14-32-37-15-58Z" fill="#a08a6f" opacity=".7"/><path d="M591 469c66-40 145-25 218 17-58 3-112 25-149 57-34-15-58-41-69-74Z" fill="#5e4f46"/><path d="M675 497c51-29 101-23 154 2-34 12-65 30-89 49-27-8-49-26-65-51Z" fill="#343334"/>
  <g fill="none" stroke="#d2bb98" stroke-width="3" stroke-linecap="round" opacity=".48"><path d="M556 415q102-4 191 47M575 444q99 2 183 48M610 478q79 6 143 42"/></g>
  <path d="M825 446c58-35 56-103 84-166 22-50 65-81 109-70 35 8 42 39 16 62-39 34-67 31-77 78-13 61 11 106-63 143Z" fill="url(#neck)" stroke="#786354" stroke-width="4"/><path d="M862 443c34-45 32-104 49-151 15-41 44-64 79-72" fill="none" stroke="#fff9e3" stroke-width="15" stroke-linecap="round" opacity=".48"/>
  <path d="M777 382c72-20 125 7 160 48 29 34 61 36 106 25l17 19c-54 32-116 22-159-16-36-32-76-26-119-16Z" fill="#6f5c4c" stroke="#443a36" stroke-width="4"/><path d="M1018 454q30-17 51-3-20 8-39 13 24-1 39 9-28 8-51-2Z" fill="#403c39"/>
  <path d="M757 507c31 48 48 116 76 193l25 35" fill="none" stroke="#795748" stroke-width="33" stroke-linecap="round"/><path d="M846 727q29-10 56 4-23 9-46 9 29 4 45 16-31 5-55-10 23 11 34 25-30 0-47-19Z" fill="#dca96a" stroke="#715043" stroke-width="3"/>
  <g class="head"><path d="M967 215c31-39 99-38 137-2 23 22 19 57-7 78-30 24-91 20-120-4-23-19-26-52-10-72Z" fill="url(#neck)" stroke="#756050" stroke-width="4"/><path d="M989 212c29-18 70-10 89 11-36-7-68 5-98 29-10-14-5-30 9-40Z" fill="#fff9df" opacity=".7"/>
    <ellipse cx="1055" cy="234" rx="12" ry="13" fill="#172323"/><circle cx="1059" cy="229" r="4" fill="#fffde8"/>
    <path d="M1075 244c94-15 233 1 337 29 13 4 15 17 5 25-87 16-229 11-333-5-18-6-22-35-9-49Z" fill="url(#bill)" stroke="#765037" stroke-width="4"/><path d="M1094 255c100-3 220 13 306 31" fill="none" stroke="#f4d795" stroke-width="6" stroke-linecap="round" opacity=".65"/>
    <path d="M1084 278c88 25 232 28 333 20-56 52-196 68-292 31-31-12-45-27-41-51Z" fill="url(#pouch)" stroke="#70464a" stroke-width="4"/><path d="M1107 304c81 27 190 25 272 5" fill="none" stroke="#e5ac79" stroke-width="5" opacity=".52"/></g>
</g>

<path d="M1064 446q27 17 5 48" fill="none" stroke="#713f39" stroke-width="12" stroke-linecap="round"/>
<g class="flecks" fill="#f5d9a5"><circle cx="1190" cy="829" r="5"/><circle cx="1217" cy="842" r="3"/><circle cx="1244" cy="827" r="4"/></g>
<g fill="none" stroke="#fff" stroke-linecap="round" opacity=".48"><path d="M1245 392q102-18 187 8" stroke-width="5"/><path d="M1301 422q72-9 132 7" stroke-width="3"/></g>
</svg>
