<svg xmlns="http://www.w3.org/2000/svg" xmlns:xlink="http://www.w3.org/1999/xlink" viewBox="0 0 1400 900" width="100%" height="100%">
  <defs>
    <!-- Sky & Atmosphere Gradients -->
    <linearGradient id="skyGrad" x1="0" y1="0" x2="0" y2="1">
      <stop offset="0%" stop-color="#2563eb"/>
      <stop offset="22%" stop-color="#38bdf8"/>
      <stop offset="45%" stop-color="#93c5fd"/>
      <stop offset="62%" stop-color="#fbcfe8"/>
      <stop offset="78%" stop-color="#fed7aa"/>
      <stop offset="90%" stop-color="#fef08a"/>
      <stop offset="100%" stop-color="#fdba74"/>
    </linearGradient>
    <radialGradient id="sunGlow" cx="50%" cy="50%" r="50%">
      <stop offset="0%" stop-color="#ffffff"/>
      <stop offset="18%" stop-color="#fffbeb"/>
      <stop offset="42%" stop-color="#fde047" stop-opacity="0.85"/>
      <stop offset="75%" stop-color="#fb923c" stop-opacity="0.35"/>
      <stop offset="100%" stop-color="#fb923c" stop-opacity="0"/>
    </radialGradient>
    <radialGradient id="sunCore" cx="42%" cy="38%" r="60%">
      <stop offset="0%" stop-color="#ffffff"/>
      <stop offset="50%" stop-color="#fffef0"/>
      <stop offset="85%" stop-color="#fef08a"/>
      <stop offset="100%" stop-color="#fde047"/>
    </radialGradient>

    <!-- Ocean & Wave Gradients -->
    <linearGradient id="oceanGrad" x1="0" y1="0" x2="0" y2="1">
      <stop offset="0%" stop-color="#1e3a8a"/>
      <stop offset="25%" stop-color="#0369a1"/>
      <stop offset="55%" stop-color="#0284c7"/>
      <stop offset="78%" stop-color="#0d9488"/>
      <stop offset="92%" stop-color="#14b8a6"/>
      <stop offset="100%" stop-color="#2dd4bf"/>
    </linearGradient>
    <linearGradient id="waveFoam" x1="0" y1="0" x2="0" y2="1">
      <stop offset="0%" stop-color="#ffffff" stop-opacity="0.95"/>
      <stop offset="50%" stop-color="#f0fdfa" stop-opacity="0.85"/>
      <stop offset="100%" stop-color="#ccfbf1" stop-opacity="0.1"/>
    </linearGradient>
    <linearGradient id="surfWetSand" x1="0" y1="0" x2="0" y2="1">
      <stop offset="0%" stop-color="#14b8a6" stop-opacity="0.45"/>
      <stop offset="40%" stop-color="#38bdf8" stop-opacity="0.3"/>
      <stop offset="75%" stop-color="#d97706" stop-opacity="0.35"/>
      <stop offset="100%" stop-color="#b45309" stop-opacity="0"/>
    </linearGradient>

    <!-- Sand & Wood Gradients -->
    <linearGradient id="sandGrad" x1="0" y1="0" x2="0" y2="1">
      <stop offset="0%" stop-color="#fef3c7"/>
      <stop offset="25%" stop-color="#fde68a"/>
      <stop offset="50%" stop-color="#fcd34d"/>
      <stop offset="75%" stop-color="#f59e0b"/>
      <stop offset="92%" stop-color="#d97706"/>
      <stop offset="100%" stop-color="#b45309"/>
    </linearGradient>
    <linearGradient id="woodPost" x1="0" y1="0" x2="1" y2="0">
      <stop offset="0%" stop-color="#78350f"/>
      <stop offset="30%" stop-color="#b45309"/>
      <stop offset="70%" stop-color="#92400e"/>
      <stop offset="100%" stop-color="#451a03"/>
    </linearGradient>

    <!-- Filters -->
    <filter id="softShadow" x="-20%" y="-20%" width="145%" height="145%">
      <feGaussianBlur in="SourceAlpha" stdDeviation="5"/>
      <feOffset dx="2" dy="5"/>
      <feComponentTransfer><feFuncA type="linear" slope="0.32"/></feComponentTransfer>
      <feMerge><feMergeNode/><feMergeNode in="SourceGraphic"/></feMerge>
    </filter>
    <filter id="groundShadowBlur" x="-30%" y="-30%" width="160%" height="160%">
      <feGaussianBlur stdDeviation="12"/>
    </filter>
    <filter id="sunHalo" x="-50%" y="-50%" width="200%" height="200%">
      <feGaussianBlur stdDeviation="22"/>
    </filter>

    <!-- Bicycle Gradients -->
    <linearGradient id="frameTeal" x1="0" y1="0" x2="1" y2="1">
      <stop offset="0%" stop-color="#0f766e"/>
      <stop offset="20%" stop-color="#14b8a6"/>
      <stop offset="50%" stop-color="#5eead4"/>
      <stop offset="80%" stop-color="#0d9488"/>
      <stop offset="100%" stop-color="#134e4a"/>
    </linearGradient>
    <linearGradient id="frameHighlight" x1="0" y1="0" x2="0" y2="1">
      <stop offset="0%" stop-color="#ffffff" stop-opacity="0.9"/>
      <stop offset="50%" stop-color="#ccfbf1" stop-opacity="0.7"/>
      <stop offset="100%" stop-color="#2dd4bf" stop-opacity="0"/>
    </linearGradient>
    <linearGradient id="chromeGrad" x1="0" y1="0" x2="1" y2="1">
      <stop offset="0%" stop-color="#e2e8f0"/>
      <stop offset="20%" stop-color="#ffffff"/>
      <stop offset="45%" stop-color="#94a3b8"/>
      <stop offset="70%" stop-color="#f8fafc"/>
      <stop offset="85%" stop-color="#64748b"/>
      <stop offset="100%" stop-color="#cbd5e1"/>
    </linearGradient>
    <linearGradient id="tireTread" x1="0" y1="0" x2="1" y2="1">
      <stop offset="0%" stop-color="#0f172a"/>
      <stop offset="35%" stop-color="#334155"/>
      <stop offset="70%" stop-color="#1e293b"/>
      <stop offset="100%" stop-color="#090d16"/>
    </linearGradient>
    <linearGradient id="whitewall" x1="0" y1="0" x2="1" y2="1">
      <stop offset="0%" stop-color="#fef3c7"/>
      <stop offset="45%" stop-color="#fffbeb"/>
      <stop offset="80%" stop-color="#fef08a"/>
      <stop offset="100%" stop-color="#fde68a"/>
    </linearGradient>
    <linearGradient id="leatherSaddle" x1="0" y1="0" x2="0" y2="1">
      <stop offset="0%" stop-color="#9a3412"/>
      <stop offset="25%" stop-color="#c2410c"/>
      <stop offset="65%" stop-color="#7c2d12"/>
      <stop offset="100%" stop-color="#431407"/>
    </linearGradient>
    <linearGradient id="wickerGrad" x1="0" y1="0" x2="1" y2="1">
      <stop offset="0%" stop-color="#b45309"/>
      <stop offset="30%" stop-color="#fef3c7"/>
      <stop offset="60%" stop-color="#d97706"/>
      <stop offset="100%" stop-color="#78350f"/>
    </linearGradient>
    <linearGradient id="brassGrad" x1="0" y1="0" x2="1" y2="1">
      <stop offset="0%" stop-color="#fef08a"/>
      <stop offset="30%" stop-color="#ffffff"/>
      <stop offset="65%" stop-color="#eab308"/>
      <stop offset="100%" stop-color="#854d0e"/>
    </linearGradient>

    <!-- Pelican Gradients -->
    <linearGradient id="pelicanWhite" x1="0" y1="0" x2="0" y2="1">
      <stop offset="0%" stop-color="#ffffff"/>
      <stop offset="40%" stop-color="#f8fafc"/>
      <stop offset="75%" stop-color="#e2e8f0"/>
      <stop offset="100%" stop-color="#cbd5e1"/>
    </linearGradient>
    <linearGradient id="pelicanWarmSun" x1="0" y1="0" x2="1" y2="1">
      <stop offset="0%" stop-color="#ffffff"/>
      <stop offset="45%" stop-color="#fffbeb"/>
      <stop offset="78%" stop-color="#fef3c7"/>
      <stop offset="100%" stop-color="#fed7aa"/>
    </linearGradient>
    <linearGradient id="pelicanShadow" x1="0" y1="0" x2="1" y2="1">
      <stop offset="0%" stop-color="#e2e8f0"/>
      <stop offset="50%" stop-color="#94a3b8"/>
      <stop offset="100%" stop-color="#64748b"/>
    </linearGradient>
    <linearGradient id="pelicanBlackWing" x1="0" y1="0" x2="1" y2="1">
      <stop offset="0%" stop-color="#334155"/>
      <stop offset="45%" stop-color="#1e293b"/>
      <stop offset="85%" stop-color="#0f172a"/>
      <stop offset="100%" stop-color="#020617"/>
    </linearGradient>
    <linearGradient id="beakRidgeGrad" x1="0" y1="0" x2="1" y2="0">
      <stop offset="0%" stop-color="#fed7aa"/>
      <stop offset="25%" stop-color="#fef08a"/>
      <stop offset="55%" stop-color="#f59e0b"/>
      <stop offset="80%" stop-color="#ea580c"/>
      <stop offset="100%" stop-color="#9a3412"/>
    </linearGradient>
    <radialGradient id="pouchRadialGlow" cx="45%" cy="35%" r="65%">
      <stop offset="0%" stop-color="#fef08a"/>
      <stop offset="25%" stop-color="#fed7aa"/>
      <stop offset="55%" stop-color="#fb923c"/>
      <stop offset="80%" stop-color="#f43f5e"/>
      <stop offset="100%" stop-color="#c2410c"/>
    </radialGradient>
    <linearGradient id="pouchTranslucent" x1="0" y1="0" x2="0" y2="1">
      <stop offset="0%" stop-color="#fed7aa" stop-opacity="0.95"/>
      <stop offset="35%" stop-color="#fb923c" stop-opacity="0.92"/>
      <stop offset="70%" stop-color="#f43f5e" stop-opacity="0.88"/>
      <stop offset="100%" stop-color="#c2410c" stop-opacity="0.96"/>
    </linearGradient>
    <radialGradient id="pelicanIris" cx="38%" cy="38%" r="60%">
      <stop offset="0%" stop-color="#fef08a"/>
      <stop offset="45%" stop-color="#f59e0b"/>
      <stop offset="80%" stop-color="#b45309"/>
      <stop offset="100%" stop-color="#451a03"/>
    </radialGradient>
    <linearGradient id="webFootGrad" x1="0" y1="0" x2="0" y2="1">
      <stop offset="0%" stop-color="#fed7aa"/>
      <stop offset="30%" stop-color="#fb923c"/>
      <stop offset="65%" stop-color="#d97706"/>
      <stop offset="100%" stop-color="#78350f"/>
    </linearGradient>
    <linearGradient id="scarfRed" x1="0" y1="0" x2="1" y2="1">
      <stop offset="0%" stop-color="#f87171"/>
      <stop offset="45%" stop-color="#dc2626"/>
      <stop offset="85%" stop-color="#991b1b"/>
      <stop offset="100%" stop-color="#7f1d1d"/>
    </linearGradient>

    <!-- Wheel Spoke Template -->
    <g id="spoke-cluster">
      <line x1="16.0" y1="0.0" x2="83.6" y2="58.5" stroke="#cbd5e1" stroke-width="1.3" opacity="0.82"/>
      <line x1="15.8" y1="2.8" x2="92.4" y2="-43.1" stroke="#cbd5e1" stroke-width="1.3" opacity="0.82"/>
      <line x1="15.0" y1="5.5" x2="58.5" y2="83.6" stroke="#cbd5e1" stroke-width="1.3" opacity="0.82"/>
      <line x1="13.9" y1="8.0" x2="101.6" y2="-8.9" stroke="#cbd5e1" stroke-width="1.3" opacity="0.82"/>
      <line x1="12.3" y1="10.3" x2="26.4" y2="98.5" stroke="#cbd5e1" stroke-width="1.3" opacity="0.82"/>
      <line x1="10.3" y1="12.3" x2="98.5" y2="26.4" stroke="#cbd5e1" stroke-width="1.3" opacity="0.82"/>
      <line x1="8.0" y1="13.9" x2="-8.9" y2="101.6" stroke="#cbd5e1" stroke-width="1.3" opacity="0.82"/>
      <line x1="5.5" y1="15.0" x2="83.6" y2="58.5" stroke="#cbd5e1" stroke-width="1.3" opacity="0.82"/>
      <line x1="2.8" y1="15.8" x2="-43.1" y2="92.4" stroke="#cbd5e1" stroke-width="1.3" opacity="0.82"/>
      <line x1="0.0" y1="16.0" x2="58.5" y2="83.6" stroke="#cbd5e1" stroke-width="1.3" opacity="0.82"/>
      <line x1="-2.8" y1="15.8" x2="-72.1" y2="72.1" stroke="#cbd5e1" stroke-width="1.3" opacity="0.82"/>
      <line x1="-5.5" y1="15.0" x2="26.4" y2="98.5" stroke="#cbd5e1" stroke-width="1.3" opacity="0.82"/>
      <line x1="-8.0" y1="13.9" x2="-92.4" y2="43.1" stroke="#cbd5e1" stroke-width="1.3" opacity="0.82"/>
      <line x1="-10.3" y1="12.3" x2="-8.9" y2="101.6" stroke="#cbd5e1" stroke-width="1.3" opacity="0.82"/>
      <line x1="-12.3" y1="10.3" x2="-101.6" y2="8.9" stroke="#cbd5e1" stroke-width="1.3" opacity="0.82"/>
      <line x1="-13.9" y1="8.0" x2="-43.1" y2="92.4" stroke="#cbd5e1" stroke-width="1.3" opacity="0.82"/>
      <line x1="-15.0" y1="5.5" x2="-98.5" y2="-26.4" stroke="#cbd5e1" stroke-width="1.3" opacity="0.82"/>
      <line x1="-15.8" y1="2.8" x2="-72.1" y2="72.1" stroke="#cbd5e1" stroke-width="1.3" opacity="0.82"/>
      <line x1="-16.0" y1="0.0" x2="-83.6" y2="-58.5" stroke="#ffffff" stroke-width="1.3" opacity="0.82"/>
      <line x1="-15.8" y1="-2.8" x2="-92.4" y2="43.1" stroke="#ffffff" stroke-width="1.3" opacity="0.82"/>
      <line x1="-15.0" y1="-5.5" x2="-58.5" y2="-83.6" stroke="#ffffff" stroke-width="1.3" opacity="0.82"/>
      <line x1="-13.9" y1="-8.0" x2="-101.6" y2="8.9" stroke="#ffffff" stroke-width="1.3" opacity="0.82"/>
      <line x1="-12.3" y1="-10.3" x2="-26.4" y2="-98.5" stroke="#ffffff" stroke-width="1.3" opacity="0.82"/>
      <line x1="-10.3" y1="-12.3" x2="-98.5" y2="-26.4" stroke="#ffffff" stroke-width="1.3" opacity="0.82"/>
      <line x1="-8.0" y1="-13.9" x2="8.9" y2="-101.6" stroke="#ffffff" stroke-width="1.3" opacity="0.82"/>
      <line x1="-5.5" y1="-15.0" x2="-83.6" y2="-58.5" stroke="#ffffff" stroke-width="1.3" opacity="0.82"/>
      <line x1="-2.8" y1="-15.8" x2="43.1" y2="-92.4" stroke="#ffffff" stroke-width="1.3" opacity="0.82"/>
      <line x1="-0.0" y1="-16.0" x2="-58.5" y2="-83.6" stroke="#ffffff" stroke-width="1.3" opacity="0.82"/>
      <line x1="2.8" y1="-15.8" x2="72.1" y2="-72.1" stroke="#ffffff" stroke-width="1.3" opacity="0.82"/>
      <line x1="5.5" y1="-15.0" x2="-26.4" y2="-98.5" stroke="#ffffff" stroke-width="1.3" opacity="0.82"/>
      <line x1="8.0" y1="-13.9" x2="92.4" y2="-43.1" stroke="#ffffff" stroke-width="1.3" opacity="0.82"/>
      <line x1="10.3" y1="-12.3" x2="8.9" y2="-101.6" stroke="#ffffff" stroke-width="1.3" opacity="0.82"/>
      <line x1="12.3" y1="-10.3" x2="101.6" y2="-8.9" stroke="#ffffff" stroke-width="1.3" opacity="0.82"/>
      <line x1="13.9" y1="-8.0" x2="43.1" y2="-92.4" stroke="#ffffff" stroke-width="1.3" opacity="0.82"/>
      <line x1="15.0" y1="-5.5" x2="98.5" y2="26.4" stroke="#ffffff" stroke-width="1.3" opacity="0.82"/>
      <line x1="15.8" y1="-2.8" x2="72.1" y2="-72.1" stroke="#ffffff" stroke-width="1.3" opacity="0.82"/>
    </g>

    <!-- Cloud Template -->
    <g id="cloud-unit">
      <ellipse cx="0" cy="14" rx="115" ry="24" fill="#fed7aa" opacity="0.65"/>
      <ellipse cx="-48" cy="2" rx="65" ry="30" fill="#ffffff" opacity="0.92"/>
      <ellipse cx="32" cy="-4" rx="75" ry="34" fill="#ffffff" opacity="0.96"/>
      <ellipse cx="-8" cy="-16" rx="58" ry="34" fill="#ffffff"/>
      <ellipse cx="75" cy="10" rx="48" ry="22" fill="#fef08a" opacity="0.75"/>
      <ellipse cx="-78" cy="10" rx="42" ry="19" fill="#fbcfe8" opacity="0.72"/>
    </g>

    <!-- Dune Grass Template -->
    <g id="dune-grass">
      <path d="M -20,0 Q -45,-90 -70,-140" stroke="#ca8a04" stroke-width="3" fill="none" stroke-linecap="round"/>
      <path d="M -10,0 Q -25,-110 -45,-165" stroke="#eab308" stroke-width="3" fill="none" stroke-linecap="round"/>
      <path d="M 0,0 Q -5,-120 -15,-180" stroke="#facc15" stroke-width="3.5" fill="none" stroke-linecap="round"/>
      <path d="M 10,0 Q 15,-115 10,-170" stroke="#a16207" stroke-width="3" fill="none" stroke-linecap="round"/>
      <path d="M 20,0 Q 35,-95 45,-145" stroke="#ca8a04" stroke-width="3" fill="none" stroke-linecap="round"/>
      <path d="M 5,0 Q 0,-100 -5,-155" stroke="#fef08a" stroke-width="2.5" fill="none" stroke-linecap="round"/>
      <!-- Oats tassels -->
      <g transform="translate(-15,-180) rotate(-15)">
        <ellipse cx="0" cy="0" rx="3.5" ry="8" fill="#d97706"/>
        <ellipse cx="-2" cy="-8" rx="3" ry="7" fill="#facc15"/>
        <ellipse cx="2" cy="-16" rx="2.5" ry="6" fill="#fef08a"/>
      </g>
      <g transform="translate(-45,-165) rotate(-20)">
        <ellipse cx="0" cy="0" rx="3.5" ry="8" fill="#d97706"/>
        <ellipse cx="-2" cy="-8" rx="3" ry="7" fill="#facc15"/>
      </g>
      <g transform="translate(10,-170) rotate(10)">
        <ellipse cx="0" cy="0" rx="3.5" ry="8" fill="#d97706"/>
        <ellipse cx="2" cy="-8" rx="3" ry="7" fill="#facc15"/>
      </g>
    </g>
  </defs>

  <!-- 1. SKY & SUN -->
  <rect width="1400" height="560" fill="url(#skyGrad)"/>
  
  <!-- Sun & Atmospheric Corona -->
  <circle cx="1080" cy="205" r="260" fill="url(#sunGlow)" filter="url(#sunHalo)"/>
  <circle cx="1080" cy="205" r="150" fill="url(#sunGlow)"/>
  <circle cx="1080" cy="205" r="55" fill="url(#sunCore)"/>

  <!-- Sunbeams -->
  <g fill="#fffbeb">
    <polygon points="1074,192 1086,218 1500,430 1440,510" opacity="0.09"/>
    <polygon points="1068,212 1092,198 1520,-50 1430,-110" opacity="0.08"/>
    <polygon points="1066,200 1094,210 1280,-300 1200,-330" opacity="0.07"/>
    <polygon points="1092,198 1068,212 1290,650 1190,690" opacity="0.08"/>
    <polygon points="1090,210 1070,200 680,0 640,-40" opacity="0.06"/>
  </g>

  <!-- Clouds -->
  <use xlink:href="#cloud-unit" x="210" y="150" transform="scale(1.25) translate(-30,-20)" opacity="0.75"/>
  <use xlink:href="#cloud-unit" x="500" y="225" transform="scale(0.95)" opacity="0.65"/>
  <use xlink:href="#cloud-unit" x="780" y="130" transform="scale(1.4) translate(-220,-20)" opacity="0.82"/>
  <use xlink:href="#cloud-unit" x="1290" y="250" transform="scale(1.15) translate(-100,-10)" opacity="0.72"/>
  <use xlink:href="#cloud-unit" x="85" y="275" transform="scale(0.85)" opacity="0.6"/>

  <!-- Distant Soaring Seagulls -->
  <g fill="#334155" opacity="0.68">
    <path d="M 285,190 Q 295,178 305,185 Q 315,178 325,190 Q 315,182 305,187 Q 295,182 285,190 Z"/>
    <path d="M 335,175 Q 343,165 352,171 Q 360,165 368,175 Q 360,168 352,172 Q 343,168 335,175 Z"/>
    <path d="M 370,198 Q 376,190 383,195 Q 390,190 397,198 Q 390,192 383,196 Q 376,192 370,198 Z"/>
    <path d="M 920,120 Q 929,109 938,116 Q 948,109 957,120 Q 948,113 938,117 Q 929,113 920,120 Z"/>
    <path d="M 960,105 Q 968,96 975,102 Q 983,96 991,105 Q 983,99 975,103 Q 968,99 960,105 Z"/>
    <path d="M 650,88 Q 657,80 664,85 Q 671,80 678,88 Q 671,83 664,86 Q 657,83 650,88 Z"/>
  </g>

  <!-- 2. OCEAN & HORIZON -->
  <rect x="0" y="425" width="1400" height="175" fill="url(#oceanGrad)"/>

  <!-- Distant Lighthouse & Sailboat -->
  <g transform="translate(135, 417) scale(0.72)">
    <path d="M -42,20 Q -10,0 22,7 Q 52,14 85,20 L -42,20 Z" fill="#334155"/>
    <polygon points="12,16 16,-38 27,-38 31,16" fill="#ffffff"/>
    <polygon points="14,0 15.2,-13 27.8,-13 29,0" fill="#dc2626"/>
    <polygon points="15.6,-25 16.2,-34 26.8,-34 27.4,-25" fill="#dc2626"/>
    <rect x="17" y="-45" width="9" height="7" fill="#fef08a"/>
    <path d="M 16,-45 Q 21.5,-53 27,-45 Z" fill="#1e293b"/>
    <polygon points="21.5,-41 220,-15 210,-55" fill="#fef08a" opacity="0.22"/>
  </g>
  <g transform="translate(1265, 422) scale(0.58)">
    <polygon points="0,6 -16,-2 20,-2" fill="#1e293b"/>
    <polygon points="0,-2 0,-34 14,-5" fill="#f8fafc" opacity="0.92"/>
    <polygon points="-2,-2 -2,-28 -11,-5" fill="#fed7aa" opacity="0.88"/>
  </g>

  <!-- Sun Reflection Glitter Track on Ocean -->
  <g opacity="0.82">
    <ellipse cx="1080" cy="440" rx="95" ry="3.5" fill="#fffbeb" opacity="0.75"/>
    <ellipse cx="1065" cy="455" rx="125" ry="4.5" fill="#fef08a" opacity="0.7"/>
    <ellipse cx="1090" cy="472" rx="160" ry="6.5" fill="#ffffff" opacity="0.85"/>
    <ellipse cx="1058" cy="492" rx="200" ry="8.5" fill="#fef08a" opacity="0.8"/>
    <ellipse cx="1086" cy="516" rx="245" ry="11" fill="#ffffff" opacity="0.9"/>
    <ellipse cx="1072" cy="542" rx="295" ry="13.5" fill="#fffbeb" opacity="0.92"/>
  </g>

  <!-- Tiered Rolling Ocean Waves & Foam Lines -->
  <path d="M 0,445 Q 180,432 360,446 T 720,443 T 1080,447 T 1400,444 L 1400,600 L 0,600 Z" fill="#0284c7" opacity="0.38"/>
  <path d="M 0,443 Q 180,430 360,444 T 720,441 T 1080,445 T 1400,442" fill="none" stroke="#38bdf8" stroke-width="3" opacity="0.75"/>

  <path d="M 0,470 Q 200,455 400,472 T 800,468 T 1200,473 T 1400,469 L 1400,600 L 0,600 Z" fill="#0369a1" opacity="0.42"/>
  <path d="M 0,468 Q 200,453 400,470 T 800,466 T 1200,471 T 1400,467" fill="none" stroke="#7dd3fc" stroke-width="3.5" opacity="0.8"/>

  <path d="M 0,500 Q 220,483 440,503 T 880,498 T 1320,504 T 1400,500 L 1400,600 L 0,600 Z" fill="#0284c7" opacity="0.45"/>
  <path d="M 0,498 Q 220,481 440,501 T 880,496 T 1320,502 T 1400,498" fill="none" stroke="#bae6fd" stroke-width="3.5" opacity="0.85"/>

  <path d="M 0,530 Q 240,511 480,533 T 960,528 T 1400,531 L 1400,600 L 0,600 Z" fill="#0d9488" opacity="0.5"/>
  <path d="M 0,528 Q 240,509 480,531 T 960,526 T 1400,529" fill="none" stroke="#ccfbf1" stroke-width="4" opacity="0.9"/>

  <path d="M 0,560 Q 260,540 520,563 T 1040,557 T 1400,562 L 1400,600 L 0,600 Z" fill="#14b8a6" opacity="0.55"/>
  <path d="M 0,558 Q 260,538 520,561 T 1040,555 T 1400,560" fill="none" stroke="#ffffff" stroke-width="4.5" opacity="0.95"/>

  <!-- Breaking Surf Wave & Wet Sand Lacework -->
  <path d="M 0,578 Q 260,558 520,582 T 1020,572 T 1400,588 L 1400,650 L 0,650 Z" fill="url(#surfWetSand)"/>
  <path d="M -20,588 Q 80,572 180,590 Q 280,608 380,586 Q 500,568 620,592 Q 740,612 860,588 Q 980,570 1100,592 Q 1240,614 1420,582 L 1420,626 L -20,626 Z" fill="url(#waveFoam)"/>
  <g fill="#ffffff" opacity="0.8">
    <circle cx="210" cy="593" r="4"/><circle cx="225" cy="590" r="2.5"/><circle cx="240" cy="595" r="3"/>
    <circle cx="480" cy="580" r="4.5"/><circle cx="505" cy="584" r="3"/><circle cx="530" cy="578" r="2"/>
    <circle cx="780" cy="598" r="5"/><circle cx="810" cy="596" r="3.5"/><circle cx="835" cy="602" r="2.5"/>
    <circle cx="1120" cy="588" r="4"/><circle cx="1145" cy="591" r="2.5"/><circle cx="1170" cy="585" r="3.5"/>
  </g>

  <!-- 3. BEACH & BOARDWALK -->
  <path d="M 0,598 Q 400,592 800,603 T 1400,598 L 1400,900 L 0,900 Z" fill="url(#sandGrad)"/>

  <!-- Weathered Pier Posts & Rope -->
  <g>
    <!-- Post 1 -->
    <g transform="translate(80, 555)">
      <path d="M 0,0 L 27,-4 L 27,175 L 0,175 Z" fill="url(#woodPost)"/>
      <ellipse cx="13.5" cy="-2" rx="13.5" ry="5.5" fill="#d97706"/>
      <line x1="8" y1="10" x2="9" y2="165" stroke="#451a03" stroke-width="1.6" opacity="0.6"/>
      <rect x="-2" y="32" width="31" height="6" rx="2" fill="#475569"/>
    </g>
    <!-- Post 2 -->
    <g transform="translate(220, 565)">
      <path d="M 0,0 L 25,-4 L 25,155 L 0,155 Z" fill="url(#woodPost)"/>
      <ellipse cx="12.5" cy="-2" rx="12.5" ry="5.5" fill="#d97706"/>
      <line x1="7" y1="10" x2="8" y2="145" stroke="#451a03" stroke-width="1.6" opacity="0.6"/>
      <rect x="-2" y="32" width="29" height="6" rx="2" fill="#475569"/>
    </g>
    <!-- Post 3 -->
    <g transform="translate(1200, 560)">
      <path d="M 0,0 L 26,-4 L 26,165 L 0,165 Z" fill="url(#woodPost)"/>
      <ellipse cx="13" cy="-2" rx="13" ry="5.5" fill="#d97706"/>
      <line x1="8" y1="10" x2="9" y2="155" stroke="#451a03" stroke-width="1.6" opacity="0.6"/>
      <rect x="-2" y="32" width="30" height="6" rx="2" fill="#475569"/>
    </g>
    <!-- Post 4 -->
    <g transform="translate(1330, 550)">
      <path d="M 0,0 L 28,-4 L 28,185 L 0,185 Z" fill="url(#woodPost)"/>
      <ellipse cx="14" cy="-2" rx="14" ry="5.5" fill="#d97706"/>
      <line x1="9" y1="10" x2="10" y2="175" stroke="#451a03" stroke-width="1.6" opacity="0.6"/>
      <rect x="-2" y="32" width="32" height="6" rx="2" fill="#475569"/>
    </g>
    <!-- Hemp Ropes -->
    <path d="M 95,592 Q 155,638 235,602" fill="none" stroke="#d97706" stroke-width="7" stroke-dasharray="8 3" opacity="0.88"/>
    <path d="M 95,592 Q 155,638 235,602" fill="none" stroke="#78350f" stroke-width="7" stroke-dasharray="3 8" opacity="0.6"/>
    <path d="M 1215,596 Q 1270,642 1345,586" fill="none" stroke="#d97706" stroke-width="7" stroke-dasharray="8 3" opacity="0.88"/>
    <path d="M 1215,596 Q 1270,642 1345,586" fill="none" stroke="#78350f" stroke-width="7" stroke-dasharray="3 8" opacity="0.6"/>
  </g>

  <!-- Dune Grass Clusters -->
  <use xlink:href="#dune-grass" x="30" y="715" transform="scale(1.15)" opacity="0.92"/>
  <use xlink:href="#dune-grass" x="90" y="735" transform="scale(0.98)" opacity="0.88"/>
  <use xlink:href="#dune-grass" x="1240" y="725" transform="scale(1.25) scale(-1, 1) translate(-2100, 0)" opacity="0.92"/>
  <use xlink:href="#dune-grass" x="1330" y="735" transform="scale(1.05) scale(-1, 1) translate(-2200, 0)" opacity="0.88"/>

  <!-- Bicycle & Pelican Ground Shadow -->
  <g opacity="0.48" filter="url(#groundShadowBlur)">
    <ellipse cx="430" cy="808" rx="145" ry="24" fill="#5c2e0b"/>
    <ellipse cx="970" cy="808" rx="145" ry="24" fill="#5c2e0b"/>
    <path d="M 360,808 Q 670,830 1040,808 Q 850,776 680,772 Q 500,776 360,808 Z" fill="#5c2e0b"/>
    <ellipse cx="640" cy="808" rx="190" ry="34" fill="#5c2e0b"/>
    <path d="M 640,808 Q 825,835 965,818 Q 885,788 700,788 Z" fill="#5c2e0b"/>
  </g>

  <!-- 4. VINTAGE BEACH CRUISER BICYCLE -->
  
  <!-- REAR WHEEL (Center: 430, 680) -->
  <g id="rear-wheel">
    <circle cx="430" cy="680" r="126" fill="none" stroke="url(#tireTread)" stroke-width="26"/>
    <circle cx="430" cy="680" r="114" fill="none" stroke="url(#whitewall)" stroke-width="12"/>
    <circle cx="430" cy="680" r="105" fill="none" stroke="#0f172a" stroke-width="3"/>
    <circle cx="430" cy="680" r="102" fill="none" stroke="url(#chromeGrad)" stroke-width="11"/>
    <circle cx="430" cy="680" r="107" fill="none" stroke="#f8fafc" stroke-width="1.6" opacity="0.9"/>
    <!-- Spokes via Template -->
    <use xlink:href="#spoke-cluster" x="430" y="680"/>
    <circle cx="430" cy="680" r="26" fill="url(#chromeGrad)" opacity="0.9"/>
    <circle cx="430" cy="680" r="22" fill="#475569"/>
    <circle cx="430" cy="680" r="20" fill="url(#chromeGrad)"/>
    <circle cx="430" cy="680" r="14" fill="#334155"/>
    <circle cx="430" cy="680" r="6.5" fill="#f8fafc"/>
  </g>

  <!-- FRONT WHEEL (Center: 970, 680) -->
  <g id="front-wheel">
    <circle cx="970" cy="680" r="126" fill="none" stroke="url(#tireTread)" stroke-width="26"/>
    <circle cx="970" cy="680" r="114" fill="none" stroke="url(#whitewall)" stroke-width="12"/>
    <circle cx="970" cy="680" r="105" fill="none" stroke="#0f172a" stroke-width="3"/>
    <circle cx="970" cy="680" r="102" fill="none" stroke="url(#chromeGrad)" stroke-width="11"/>
    <circle cx="970" cy="680" r="107" fill="none" stroke="#f8fafc" stroke-width="1.6" opacity="0.9"/>
    <!-- Spokes via Template -->
    <use xlink:href="#spoke-cluster" x="970" y="680"/>
    <circle cx="970" cy="680" r="20" fill="url(#chromeGrad)"/>
    <circle cx="970" cy="680" r="14" fill="#334155"/>
    <circle cx="970" cy="680" r="6.5" fill="#f8fafc"/>
  </g>

  <!-- REAR FENDER -->
  <g id="rear-fender">
    <path d="M 312,670 A 136,136 0 0,1 530,580" fill="none" stroke="url(#frameTeal)" stroke-width="19" stroke-linecap="round"/>
    <path d="M 317,668 A 136,136 0 0,1 525,582" fill="none" stroke="url(#frameHighlight)" stroke-width="5" stroke-linecap="round" opacity="0.85"/>
    <line x1="335" y1="640" x2="430" y2="680" stroke="url(#chromeGrad)" stroke-width="3.5"/>
    <line x1="375" y1="580" x2="430" y2="680" stroke="url(#chromeGrad)" stroke-width="3.5"/>
    <circle cx="314" cy="670" r="7.5" fill="#dc2626" stroke="#f8fafc" stroke-width="2"/>
    <circle cx="313" cy="668" r="2.5" fill="#ffffff"/>
  </g>

  <!-- BICYCLE FRAME -->
  <g id="bike-frame">
    <line x1="430" y1="680" x2="670" y2="680" stroke="url(#frameTeal)" stroke-width="14" stroke-linecap="round"/>
    <line x1="430" y1="680" x2="590" y2="520" stroke="url(#frameTeal)" stroke-width="13" stroke-linecap="round"/>
    <line x1="670" y1="680" x2="590" y2="520" stroke="url(#frameTeal)" stroke-width="16" stroke-linecap="round"/>
    
    <!-- Classic Swooping Cruiser Double Top Tube -->
    <path d="M 590,535 Q 730,550 900,480" fill="none" stroke="url(#frameTeal)" stroke-width="16" stroke-linecap="round"/>
    <path d="M 592,532 Q 730,547 898,478" fill="none" stroke="url(#frameHighlight)" stroke-width="5" opacity="0.85"/>
    <path d="M 600,560 Q 735,580 895,505" fill="none" stroke="url(#frameTeal)" stroke-width="12" stroke-linecap="round"/>
    
    <path d="M 900,510 Q 800,640 670,680" fill="none" stroke="url(#frameTeal)" stroke-width="17" stroke-linecap="round"/>
    <path d="M 898,508 Q 800,637 672,677" fill="none" stroke="url(#frameHighlight)" stroke-width="5" opacity="0.8"/>
    
    <!-- Head Tube -->
    <line x1="900" y1="465" x2="905" y2="520" stroke="url(#frameTeal)" stroke-width="20" stroke-linecap="round"/>
    <line x1="898" y1="465" x2="903" y2="520" stroke="url(#chromeGrad)" stroke-width="4"/>
  </g>

  <!-- FRONT FORK & FENDER -->
  <g id="front-fork">
    <path d="M 870,580 A 136,136 0 0,1 1082,670" fill="none" stroke="url(#frameTeal)" stroke-width="19" stroke-linecap="round"/>
    <path d="M 875,582 A 136,136 0 0,1 1077,668" fill="none" stroke="url(#frameHighlight)" stroke-width="5" stroke-linecap="round" opacity="0.85"/>
    <line x1="1025" y1="580" x2="970" y2="680" stroke="url(#chromeGrad)" stroke-width="3.5"/>
    <line x1="1065" y1="640" x2="970" y2="680" stroke="url(#chromeGrad)" stroke-width="3.5"/>
    
    <path d="M 905,520 Q 930,600 970,680" fill="none" stroke="url(#frameTeal)" stroke-width="16" stroke-linecap="round"/>
    <path d="M 907,520 Q 932,600 972,680" fill="none" stroke="url(#chromeGrad)" stroke-width="4" opacity="0.9"/>
    <ellipse cx="905" cy="522" rx="12" ry="6" fill="url(#chromeGrad)"/>
  </g>

  <!-- DRIVETRAIN -->
  <g id="drivetrain">
    <path d="M 670,650 L 430,665 A 18,18 0 0,0 430,695 L 670,710 A 35,35 0 0,0 670,650" fill="none" stroke="#475569" stroke-width="6" stroke-dasharray="7 2"/>
    <path d="M 430,665 L 685,645 Q 715,660 715,680 Q 715,705 675,715 L 530,705 Q 490,700 430,685 Z" fill="url(#frameTeal)" stroke="#0f766e" stroke-width="2"/>
    <path d="M 435,668 L 680,648 Q 705,660 705,678" fill="none" stroke="url(#frameHighlight)" stroke-width="3" opacity="0.8"/>
    
    <circle cx="670" cy="680" r="38" fill="url(#chromeGrad)"/>
    <circle cx="670" cy="680" r="34" fill="#334155"/>
    <circle cx="670" cy="680" r="32" fill="url(#chromeGrad)"/>
    <circle cx="670" cy="658" r="7" fill="#1e293b"/>
    <circle cx="689" cy="669" r="7" fill="#1e293b"/>
    <circle cx="689" cy="691" r="7" fill="#1e293b"/>
    <circle cx="670" cy="702" r="7" fill="#1e293b"/>
    <circle cx="651" cy="691" r="7" fill="#1e293b"/>
    <circle cx="651" cy="669" r="7" fill="#1e293b"/>
    <circle cx="670" cy="680" r="14" fill="url(#chromeGrad)"/>

    <!-- Left Crank & Pedal (Back) -->
    <line x1="670" y1="680" x2="605" y2="625" stroke="#64748b" stroke-width="9" stroke-linecap="round"/>
    <g transform="translate(605, 625)">
      <rect x="-14" y="-7" width="28" height="14" rx="4" fill="#334155"/>
      <rect x="-10" y="-3" width="6" height="6" rx="1" fill="#f59e0b"/>
    </g>

    <!-- Right Crank & Pedal (Front) -->
    <line x1="670" y1="680" x2="735" y2="735" stroke="url(#chromeGrad)" stroke-width="12" stroke-linecap="round"/>
    <circle cx="735" cy="735" r="7" fill="url(#chromeGrad)"/>
    <g id="right-pedal" transform="translate(735, 735)">
      <rect x="-18" y="-9" width="36" height="18" rx="4" fill="#1e293b" stroke="#64748b" stroke-width="1.5"/>
      <line x1="-12" y1="-5" x2="-12" y2="5" stroke="#94a3b8" stroke-width="2"/>
      <line x1="0" y1="-5" x2="0" y2="5" stroke="#94a3b8" stroke-width="2"/>
      <line x1="12" y1="-5" x2="12" y2="5" stroke="#94a3b8" stroke-width="2"/>
      <rect x="-8" y="-7" width="16" height="3" rx="1" fill="#f59e0b"/>
      <rect x="-8" y="4" width="16" height="3" rx="1" fill="#f59e0b"/>
    </g>
  </g>

  <!-- LEATHER SADDLE -->
  <g id="saddle" transform="translate(585, 495)">
    <line x1="5" y1="25" x2="5" y2="45" stroke="url(#chromeGrad)" stroke-width="12" stroke-linecap="round"/>
    <g stroke="url(#chromeGrad)" stroke-width="4" fill="none">
      <path d="M -25,22 Q -32,28 -25,34 Q -18,40 -25,46"/>
      <path d="M -5,22 Q -12,28 -5,34 Q 2,40 -5,46"/>
      <line x1="-35" y1="46" x2="10" y2="46" stroke-width="5"/>
    </g>
    <path d="M -45,18 C -40,-2 25,-4 45,8 C 50,15 35,22 15,22 C -15,22 -35,24 -45,18 Z" fill="url(#leatherSaddle)" filter="url(#softShadow)"/>
    <path d="M -40,10 C -25,1 20,-1 40,8" fill="none" stroke="#fdba74" stroke-width="3" opacity="0.6"/>
    <circle cx="-38" cy="16" r="2.5" fill="url(#brassGrad)"/>
    <circle cx="-28" cy="18" r="2.5" fill="url(#brassGrad)"/>
    <circle cx="-18" cy="19" r="2.5" fill="url(#brassGrad)"/>
  </g>

  <!-- HANDLEBAR FRAME & GRIPS (BASE) -->
  <g id="handlebars-base">
    <path d="M 900,470 L 890,410 L 870,410" fill="none" stroke="url(#chromeGrad)" stroke-width="14" stroke-linecap="round"/>
    <circle cx="890" cy="410" r="10" fill="url(#chromeGrad)"/>
    <path d="M 870,410 Q 860,395 910,390 Q 950,390 940,420 Q 930,440 815,435" fill="none" stroke="url(#chromeGrad)" stroke-width="12" stroke-linecap="round"/>
    <path d="M 870,408 Q 862,393 910,388 Q 948,388 938,418" fill="none" stroke="#ffffff" stroke-width="3" opacity="0.9"/>
    <rect x="805" y="427" width="30" height="16" rx="5" fill="#451a03" stroke="#78350f" stroke-width="2"/>
  </g>

  <!-- 5. THE PELICAN RIDER -->

  <!-- Pelican Left Leg (Background) -->
  <g id="pelican-left-leg">
    <path d="M 570,510 Q 580,560 605,620" fill="none" stroke="#cbd5e1" stroke-width="12" stroke-linecap="round"/>
    <path d="M 590,615 Q 610,610 625,622 L 600,632 Z" fill="#94a3b8"/>
  </g>

  <!-- Pelican Tail -->
  <g id="pelican-tail">
    <path d="M 535,490 Q 480,480 445,465 Q 490,495 530,510 Z" fill="url(#pelicanBlackWing)"/>
    <path d="M 540,485 Q 475,470 435,455 Q 480,485 535,505 Z" fill="#334155"/>
    <path d="M 545,482 Q 490,460 450,445 Q 495,475 540,500 Z" fill="url(#pelicanWhite)"/>
    <path d="M 550,480 Q 510,455 470,440 Q 510,470 545,495 Z" fill="#ffffff"/>
  </g>

  <!-- Pelican Torso -->
  <g id="pelican-torso">
    <path d="M 540,505 C 530,460 560,400 620,380 C 670,365 710,385 730,420 C 745,450 740,490 705,525 C 665,565 570,555 540,505 Z" fill="url(#pelicanWhite)" filter="url(#softShadow)"/>
    <path d="M 620,380 C 670,365 710,385 730,420 C 740,440 735,470 710,500 C 685,460 655,420 620,380 Z" fill="url(#pelicanWarmSun)" opacity="0.82"/>
    <path d="M 550,510 C 580,545 660,555 700,520 C 660,540 590,535 550,510 Z" fill="url(#pelicanShadow)" opacity="0.38"/>
    <!-- Chest Plumage Feathers -->
    <g fill="none" stroke="#cbd5e1" stroke-width="2" opacity="0.65">
      <path d="M 640,410 Q 660,425 680,415"/>
      <path d="M 625,430 Q 650,448 675,435"/>
      <path d="M 645,450 Q 670,468 695,455"/>
      <path d="M 630,470 Q 655,488 680,475"/>
      <path d="M 655,490 Q 675,505 695,492"/>
    </g>
  </g>

  <!-- Pelican Far (Left) Wing -->
  <g id="pelican-far-wing" opacity="0.88">
    <path d="M 640,380 Q 720,340 780,390 Q 750,410 700,410 Z" fill="url(#pelicanBlackWing)"/>
    <path d="M 660,380 Q 730,350 780,390" stroke="#f8fafc" stroke-width="2" fill="none"/>
  </g>

  <!-- Pelican Neck & Nape Crest -->
  <g id="pelican-neck">
    <path d="M 685,410 C 705,370 700,320 725,285 C 740,265 765,260 780,280 C 765,295 750,330 740,370 C 730,410 710,430 685,410 Z" fill="url(#pelicanWhite)"/>
    <path d="M 725,285 C 740,265 765,260 780,280 C 760,310 745,350 735,400" fill="none" stroke="url(#pelicanWarmSun)" stroke-width="6" opacity="0.85"/>
    <g fill="url(#pelicanWhite)">
      <path d="M 725,285 Q 698,280 682,274 Q 708,290 723,295 Z"/>
      <path d="M 720,295 Q 692,295 678,288 Q 705,305 718,310 Z"/>
      <path d="M 718,310 Q 692,315 678,311 Q 705,325 715,330 Z"/>
      <path d="M 715,330 Q 692,335 682,334 Q 705,348 712,352 Z"/>
    </g>
    <path d="M 740,280 C 740,250 770,240 795,255 C 815,268 820,290 805,305 C 785,315 755,305 740,280 Z" fill="url(#pelicanWhite)"/>
  </g>

  <!-- Pelican Beak & Translucent Gular Pouch -->
  <g id="pelican-beak">
    <!-- Glowing Pouch -->
    <path d="M 760,340 C 745,385 790,430 840,430 C 890,430 940,390 985,320 C 940,345 880,355 830,345 C 790,338 770,325 760,340 Z" fill="url(#pouchTranslucent)" filter="url(#softShadow)"/>
    <ellipse cx="835" cy="385" rx="55" ry="32" fill="url(#pouchRadialGlow)" opacity="0.88"/>
    <!-- Vascular Vein Lines -->
    <g fill="none" stroke="#ea580c" stroke-width="1.3" opacity="0.52">
      <path d="M 770,355 Q 815,395 860,405"/>
      <path d="M 785,345 Q 835,385 885,390"/>
      <path d="M 800,340 Q 855,375 910,370"/>
      <path d="M 815,335 Q 875,365 935,350"/>
      <path d="M 835,335 Q 895,355 955,335"/>
      <path d="M 825,370 Q 830,395 835,415" stroke-dasharray="3 2"/>
      <path d="M 855,365 Q 860,390 870,410" stroke-dasharray="3 2"/>
      <path d="M 885,355 Q 895,380 905,395" stroke-dasharray="3 2"/>
    </g>
    <path d="M 770,300 Q 870,340 985,320" fill="none" stroke="url(#beakRidgeGrad)" stroke-width="6.5" stroke-linecap="round"/>

    <!-- Upper Mandible (Culmen) -->
    <path d="M 775,265 C 830,260 920,275 990,312 C 996,316 996,324 990,326 C 982,328 975,324 970,318 C 910,285 830,278 775,282 Z" fill="url(#beakRidgeGrad)"/>
    <path d="M 780,267 C 835,263 920,277 985,312" fill="none" stroke="#ffffff" stroke-width="2.5" opacity="0.92"/>
    <path d="M 985,312 Q 995,316 992,326 Q 986,330 982,322 Z" fill="#9a3412"/>
    <path d="M 790,273 Q 860,273 930,290" fill="none" stroke="#b45309" stroke-width="2" opacity="0.75"/>
  </g>

  <!-- Pelican Eye -->
  <g id="pelican-eye">
    <path d="M 765,275 C 765,262 795,260 802,275 C 802,286 775,290 765,275 Z" fill="#fde68a" opacity="0.92"/>
    <ellipse cx="782" cy="274" rx="10" ry="9" fill="#78350f"/>
    <circle cx="782" cy="274" r="7.6" fill="url(#pelicanIris)"/>
    <circle cx="783" cy="274" r="4.3" fill="#090d16"/>
    <circle cx="781" cy="271.5" r="2.3" fill="#ffffff"/>
    <circle cx="785" cy="275" r="1.1" fill="#ffffff" opacity="0.9"/>
    <path d="M 770,268 Q 785,264 798,270" fill="none" stroke="#ffffff" stroke-width="3" stroke-linecap="round"/>
  </g>

  <!-- Sailor Scarf -->
  <g id="sailor-scarf">
    <path d="M 685,395 Q 705,405 725,390 Q 715,380 695,385 Z" fill="url(#scarfRed)"/>
    <path d="M 692,392 Q 705,400 718,388" fill="none" stroke="#ffffff" stroke-width="3"/>
    <circle cx="695" cy="395" r="8" fill="#b91c1c"/>
    <path d="M 692,398 C 645,390 610,365 570,355 C 605,375 635,410 688,405 Z" fill="url(#scarfRed)" filter="url(#softShadow)"/>
    <path d="M 688,401 C 640,392 615,375 575,360" fill="none" stroke="#ffffff" stroke-width="3" opacity="0.92"/>
    <path d="M 692,395 C 655,375 625,345 585,335 C 620,360 650,388 690,400 Z" fill="#dc2626"/>
    <path d="M 688,395 C 650,372 630,352 590,340" fill="none" stroke="#ffffff" stroke-width="2.5" opacity="0.92"/>
  </g>

  <!-- Pelican Foreground Wing (Gripping Handlebar) -->
  <g id="pelican-front-wing">
    <path d="M 590,460 C 610,410 660,420 710,430 C 760,440 790,435 815,435 C 790,465 740,490 690,495 C 640,500 600,490 590,460 Z" fill="url(#pelicanWhite)" filter="url(#softShadow)"/>
    <path d="M 605,435 C 650,425 710,432 770,435" fill="none" stroke="#ffffff" stroke-width="5" opacity="0.92"/>
    <g fill="none" stroke="#cbd5e1" stroke-width="2" opacity="0.72">
      <path d="M 625,445 Q 650,460 675,445"/>
      <path d="M 655,455 Q 680,470 705,455"/>
      <path d="M 685,465 Q 710,480 735,465"/>
      <path d="M 715,468 Q 740,482 765,468"/>
    </g>
    <!-- Black Flight Feather Tips -->
    <path d="M 670,495 Q 640,520 610,515 Q 645,490 675,490 Z" fill="url(#pelicanBlackWing)"/>
    <path d="M 700,495 Q 665,530 635,525 Q 675,495 705,490 Z" fill="url(#pelicanBlackWing)"/>
    <path d="M 730,490 Q 695,535 665,530 Q 705,495 735,485 Z" fill="url(#pelicanBlackWing)"/>
    
    <!-- Feather "Fingers" Wrapping Grip -->
    <g id="wingtip-grip">
      <path d="M 798,428 Q 820,418 830,426 Q 820,437 804,436 Z" fill="url(#pelicanBlackWing)"/>
      <path d="M 803,434 Q 828,426 836,436 Q 824,445 807,443 Z" fill="url(#pelicanBlackWing)"/>
      <path d="M 803,441 Q 825,436 834,446 Q 819,453 804,448 Z" fill="url(#pelicanBlackWing)"/>
      <path d="M 785,432 Q 805,430 812,438 Q 795,445 785,440 Z" fill="url(#pelicanWhite)"/>
    </g>
  </g>

  <!-- Pelican Right Leg & Webbed Foot on Pedal -->
  <g id="pelican-front-leg">
    <path d="M 650,515 Q 675,505 700,535 Q 690,575 660,565 Z" fill="url(#pelicanWhite)"/>
    <path d="M 660,565 Q 675,570 690,560" stroke="#cbd5e1" stroke-width="2" fill="none"/>

    <path d="M 675,555 L 725,690 L 740,685 L 690,550 Z" fill="url(#webFootGrad)" stroke="#b45309" stroke-width="1.5"/>
    <g stroke="#9a3412" stroke-width="1.5" opacity="0.65">
      <line x1="680" y1="580" x2="695" y2="577"/>
      <line x1="688" y1="605" x2="703" y2="602"/>
      <line x1="697" y1="630" x2="712" y2="627"/>
      <line x1="706" y1="655" x2="721" y2="652"/>
      <line x1="715" y1="675" x2="730" y2="672"/>
    </g>
    <ellipse cx="725" cy="690" rx="8" ry="6" fill="#ea580c"/>

    <!-- Webbed Foot Planted on Pedal -->
    <g id="webbed-foot-pedal">
      <path d="M 725,690 Q 700,710 685,735 Q 710,742 735,745 Q 760,742 780,735 Q 750,710 725,690 Z" fill="url(#webFootGrad)" opacity="0.96"/>
      <path d="M 725,690 Q 710,720 705,738" stroke="#78350f" stroke-width="1.5" fill="none" opacity="0.62"/>
      <path d="M 725,690 Q 735,722 740,742" stroke="#78350f" stroke-width="1.5" fill="none" opacity="0.62"/>
      <path d="M 725,690 Q 755,720 765,738" stroke="#78350f" stroke-width="1.5" fill="none" opacity="0.62"/>
      
      <path d="M 720,690 L 685,735 L 680,742" stroke="#ea580c" stroke-width="6" stroke-linecap="round" fill="none"/>
      <path d="M 680,742 L 678,746" stroke="#451a03" stroke-width="4" stroke-linecap="round" fill="none"/>
      <path d="M 725,690 L 735,745 L 736,752" stroke="#ea580c" stroke-width="7" stroke-linecap="round" fill="none"/>
      <path d="M 736,752 L 737,756" stroke="#451a03" stroke-width="4" stroke-linecap="round" fill="none"/>
      <path d="M 728,690 L 780,735 L 785,742" stroke="#ea580c" stroke-width="6" stroke-linecap="round" fill="none"/>
      <path d="M 785,742 L 788,746" stroke="#451a03" stroke-width="4" stroke-linecap="round" fill="none"/>
    </g>
  </g>

  <!-- 6. BASKET & COCKPIT ACCESSORIES -->
  
  <!-- Brass Bell & Headlight -->
  <g id="bike-accessories">
    <g id="bike-bell" transform="translate(865, 395)">
      <ellipse cx="0" cy="0" rx="14" ry="11" fill="url(#brassGrad)"/>
      <ellipse cx="-3" cy="-3" rx="10" ry="7" fill="#ffffff" opacity="0.65"/>
      <path d="M -12,4 L -20,8 L -18,12 Z" fill="url(#chromeGrad)"/>
      <path d="M -8,-15 Q -4,-22 2,-20" stroke="#fde047" stroke-width="2.5" fill="none" stroke-linecap="round"/>
      <path d="M 4,-18 Q 12,-22 16,-14" stroke="#fde047" stroke-width="2.5" fill="none" stroke-linecap="round"/>
    </g>

    <g id="headlight" transform="translate(930, 480)">
      <polygon points="16,0 260,-40 250,55" fill="#fef08a" opacity="0.14"/>
      <path d="M -15,-10 L 15,-14 Q 30,0 15,14 L -15,10 Z" fill="url(#chromeGrad)"/>
      <ellipse cx="16" cy="0" rx="4" ry="13" fill="#fef08a" stroke="#ffffff" stroke-width="2"/>
      <ellipse cx="16" cy="0" rx="2" ry="10" fill="#ffffff"/>
      <line x1="-12" y1="0" x2="-25" y2="20" stroke="url(#chromeGrad)" stroke-width="4"/>
    </g>
  </g>

  <!-- Wicker Front Basket with Fresh Catch! -->
  <g id="front-basket">
    <rect x="918" y="405" width="8" height="24" rx="2" fill="#78350f"/>
    <rect x="948" y="400" width="8" height="24" rx="2" fill="#78350f"/>

    <!-- Curious Fish & Kelp -->
    <g id="basket-fish">
      <g transform="translate(975, 370) rotate(-25)">
        <path d="M -15,40 C -15,10 5,-15 25,-30 C 35,-10 30,25 5,45 Z" fill="url(#oceanGrad)"/>
        <path d="M -5,35 C 5,15 20,-5 25,-30 C 35,-10 30,25 5,45 Z" fill="#e2e8f0"/>
        <path d="M 5,20 C 15,0 22,-15 24,-25" stroke="#38bdf8" stroke-width="3" fill="none" opacity="0.82"/>
        <path d="M 10,-5 Q 18,-2 12,12" stroke="#0284c7" stroke-width="2" fill="none"/>
        <path d="M 5,10 Q 15,15 8,25 Z" fill="#7dd3fc" opacity="0.85"/>
        <circle cx="20" cy="-18" r="4.5" fill="#fef08a"/>
        <circle cx="21" cy="-18" r="2.5" fill="#090d16"/>
        <circle cx="20" cy="-19.5" r="1.1" fill="#ffffff"/>
        <path d="M 23,-30 L 27,-27" stroke="#0f172a" stroke-width="2"/>
      </g>
      <g transform="translate(1010, 385) rotate(20)">
        <path d="M 0,15 L 20,-15 Q 10,-5 0,-8 Q -10,-5 -2,-15 Z" fill="#fb923c"/>
        <path d="M 20,-15 Q 10,-5 0,-8" stroke="#fef08a" stroke-width="2" fill="none"/>
      </g>
      <path d="M 945,395 Q 930,365 920,350 Q 940,360 955,390 Z" fill="#16a34a"/>
      <path d="M 950,390 Q 945,360 940,345 Q 955,365 960,395 Z" fill="#22c55e"/>
      <circle cx="995" cy="340" r="3" fill="#ffffff" opacity="0.85"/>
      <circle cx="1005" cy="330" r="2" fill="#ffffff" opacity="0.75"/>
      <circle cx="980" cy="350" r="2.5" fill="#ffffff" opacity="0.65"/>
    </g>

    <!-- Wicker Body & Weave -->
    <path d="M 920,405 L 1025,395 L 1010,470 L 935,470 Z" fill="url(#wickerGrad)" filter="url(#softShadow)"/>
    <path d="M 915,405 L 1030,395 L 1028,412 L 915,418 Z" fill="#78350f"/>
    <path d="M 917,407 L 1028,397 L 1026,410 L 917,416 Z" fill="url(#wickerGrad)"/>

    <g stroke="#78350f" stroke-width="2.2" opacity="0.68">
      <line x1="922" y1="422" x2="1020" y2="412"/>
      <line x1="925" y1="434" x2="1018" y2="424"/>
      <line x1="928" y1="446" x2="1015" y2="436"/>
      <line x1="931" y1="458" x2="1012" y2="448"/>
      <path d="M 935,405 L 945,470" stroke="#fef3c7" stroke-width="2.5"/>
      <path d="M 952,403 L 960,470"/>
      <path d="M 968,401 L 975,470" stroke="#fef3c7" stroke-width="2.5"/>
      <path d="M 985,399 L 990,470"/>
      <path d="M 1002,397 L 1005,470" stroke="#fef3c7" stroke-width="2.5"/>
      <path d="M 1018,395 L 1010,470"/>
    </g>
    <path d="M 935,470 L 1010,470" stroke="#451a03" stroke-width="4"/>
  </g>

  <!-- 7. FOREGROUND ATMOSPHERE & SEASHELLS -->
  <g transform="translate(1080, 830) scale(1.1)">
    <path d="M 0,0 Q 25,-12 45,5 Q 25,12 0,0 Z" fill="#fef08a"/>
    <path d="M 0,0 Q 15,-6 30,2" stroke="#d97706" stroke-width="1.5" fill="none"/>
    <path d="M 10,-2 Q 22,-8 38,4" stroke="#d97706" stroke-width="1.5" fill="none"/>
    <g transform="translate(60, 15) scale(0.8)">
      <path d="M -15,10 Q 0,-15 15,10 Q 0,16 -15,10 Z" fill="#fed7aa"/>
      <path d="M 0,14 L -10,-5" stroke="#ea580c" stroke-width="1.2"/>
      <path d="M 0,14 L 0,-10" stroke="#ea580c" stroke-width="1.2"/>
      <path d="M 0,14 L 10,-5" stroke="#ea580c" stroke-width="1.2"/>
    </g>
  </g>

  <!-- Wind Motion Swirls & Salt-Spray Sparkles -->
  <g opacity="0.65">
    <path d="M 280,480 Q 380,460 480,475 T 620,465" fill="none" stroke="#ffffff" stroke-width="2.2" stroke-dasharray="12 8" opacity="0.55"/>
    <path d="M 850,330 Q 940,310 1020,335 T 1150,320" fill="none" stroke="#ffffff" stroke-width="2.2" stroke-dasharray="14 10" opacity="0.45"/>
    <path d="M 520,630 Q 640,615 780,635" fill="none" stroke="#fde047" stroke-width="2" stroke-dasharray="10 8" opacity="0.45"/>
    <g fill="#ffffff">
      <circle cx="1060" cy="270" r="2.5"/><circle cx="1120" cy="310" r="1.8"/>
      <circle cx="950" cy="230" r="2"/><circle cx="890" cy="290" r="1.5"/>
      <circle cx="720" cy="240" r="2.2"/><circle cx="450" cy="380" r="1.5"/>
      <circle cx="310" cy="450" r="2"/><circle cx="680" cy="620" r="2"/>
      <circle cx="820" cy="640" r="2.5"/>
    </g>
  </g>

  <!-- Ambient Sunset Warmth Overlay -->
  <rect width="1400" height="900" fill="url(#sunGlow)" opacity="0.08" pointer-events="none"/>
</svg>