<svg xmlns="http://www.w3.org/2000/svg" viewBox="0 0 1200 800" width="1200" height="800" text-rendering="geometricPrecision">
  <defs>
    <!-- Sky gradient -->
    <linearGradient id="sky" x1="0" y1="0" x2="0" y2="1">
      <stop offset="0%" stop-color="#7ec8e3"/>
      <stop offset="35%" stop-color="#a9dcec"/>
      <stop offset="70%" stop-color="#ffd9a0"/>
      <stop offset="100%" stop-color="#ffe9c2"/>
    </linearGradient>
    <!-- Sea gradient -->
    <linearGradient id="sea" x1="0" y1="0" x2="0" y2="1">
      <stop offset="0%" stop-color="#2a8fb0"/>
      <stop offset="50%" stop-color="#1b6f8e"/>
      <stop offset="100%" stop-color="#0e4a63"/>
    </linearGradient>
    <!-- Sand gradient -->
    <linearGradient id="sand" x1="0" y1="0" x2="0" y2="1">
      <stop offset="0%" stop-color="#f3d9a4"/>
      <stop offset="100%" stop-color="#d9b677"/>
    </linearGradient>
    <!-- Sun glow -->
    <radialGradient id="sunGlow" cx="50%" cy="50%" r="50%">
      <stop offset="0%" stop-color="#fff6d8" stop-opacity="0.9"/>
      <stop offset="40%" stop-color="#ffd27a" stop-opacity="0.5"/>
      <stop offset="100%" stop-color="#ffd27a" stop-opacity="0"/>
    </radialGradient>
    <!-- Pelican body gradient -->
    <linearGradient id="bodyGrad" x1="0" y1="0" x2="0" y2="1">
      <stop offset="0%" stop-color="#fdfdfd"/>
      <stop offset="60%" stop-color="#f0eadc"/>
      <stop offset="100%" stop-color="#d8ccb0"/>
    </linearGradient>
    <linearGradient id="wingGrad" x1="0" y1="0" x2="1" y2="1">
      <stop offset="0%" stop-color="#f4efe2"/>
      <stop offset="100%" stop-color="#b8a984"/>
    </linearGradient>
    <linearGradient id="beakGrad" x1="0" y1="0" x2="1" y2="0">
      <stop offset="0%" stop-color="#f4a838"/>
      <stop offset="60%" stop-color="#e88a1e"/>
      <stop offset="100%" stop-color="#c2690f"/>
    </linearGradient>
    <linearGradient id="pouchGrad" x1="0" y1="0" x2="0" y2="1">
      <stop offset="0%" stop-color="#f6b94a"/>
      <stop offset="100%" stop-color="#d9881e"/>
    </linearGradient>
    <linearGradient id="frameGrad" x1="0" y1="0" x2="0" y2="1">
      <stop offset="0%" stop-color="#e63946"/>
      <stop offset="100%" stop-color="#9a1f2a"/>
    </linearGradient>
    <linearGradient id="metalGrad" x1="0" y1="0" x2="0" y2="1">
      <stop offset="0%" stop-color="#cfd4da"/>
      <stop offset="50%" stop-color="#8b929a"/>
      <stop offset="100%" stop-color="#5a6168"/>
    </linearGradient>
    <radialGradient id="tireGrad" cx="50%" cy="50%" r="50%">
      <stop offset="0%" stop-color="#3a3a3a"/>
      <stop offset="80%" stop-color="#1a1a1a"/>
      <stop offset="100%" stop-color="#000000"/>
    </radialGradient>
    <radialGradient id="rimGrad" cx="50%" cy="50%" r="50%">
      <stop offset="0%" stop-color="#eef2f5"/>
      <stop offset="70%" stop-color="#b8c0c6"/>
      <stop offset="100%" stop-color="#7a828a"/>
    </radialGradient>
    <!-- Feather pattern -->
    <pattern id="feathers" x="0" y="0" width="14" height="14" patternUnits="userSpaceOnUse" patternTransform="rotate(25)">
      <path d="M0 7 Q7 0 14 7 Q7 14 0 7 Z" fill="none" stroke="#c9bd9a" stroke-width="0.5" opacity="0.4"/>
    </pattern>
    <!-- Wave pattern -->
    <pattern id="waves" x="0" y="0" width="60" height="14" patternUnits="userSpaceOnUse">
      <path d="M0 7 Q15 0 30 7 T60 7" fill="none" stroke="#cfeef5" stroke-width="1.2" opacity="0.5"/>
    </pattern>
    <filter id="soft" x="-20%" y="-20%" width="140%" height="140%">
      <feGaussianBlur stdDeviation="1.2"/>
    </filter>
    <filter id="shadow" x="-50%" y="-50%" width="200%" height="200%">
      <feGaussianBlur in="SourceAlpha" stdDeviation="4"/>
      <feOffset dx="0" dy="6" result="off"/>
      <feComponentTransfer><feFuncA type="linear" slope="0.35"/></feComponentTransfer>
      <feMerge><feMergeNode/><feMergeNode in="SourceGraphic"/></feMerge>
    </filter>
    <symbol id="spoke" viewBox="0 0 2 120">
      <rect x="0.4" y="0" width="1.2" height="120" fill="#cfd4da"/>
    </symbol>
  </defs>

  <!-- SKY -->
  <rect width="1200" height="800" fill="url(#sky)"/>

  <!-- Sun -->
  <circle cx="980" cy="180" r="180" fill="url(#sunGlow)"/>
  <circle cx="980" cy="180" r="46" fill="#fff3cf"/>
  <circle cx="980" cy="180" r="34" fill="#ffe89a"/>

  <!-- Distant clouds -->
  <g opacity="0.85" fill="#ffffff">
    <g transform="translate(180,120)">
      <ellipse cx="0" cy="0" rx="60" ry="20"/>
      <ellipse cx="40" cy="-12" rx="46" ry="20"/>
      <ellipse cx="-40" cy="-6" rx="40" ry="16"/>
      <ellipse cx="80" cy="6" rx="36" ry="14"/>
    </g>
    <g transform="translate(620,90) scale(0.8)">
      <ellipse cx="0" cy="0" rx="60" ry="20"/>
      <ellipse cx="40" cy="-12" rx="46" ry="20"/>
      <ellipse cx="-40" cy="-6" rx="40" ry="16"/>
    </g>
    <g transform="translate(820,210) scale(0.6)" opacity="0.7">
      <ellipse cx="0" cy="0" rx="60" ry="20"/>
      <ellipse cx="40" cy="-12" rx="46" ry="20"/>
      <ellipse cx="-40" cy="-6" rx="40" ry="16"/>
    </g>
  </g>

  <!-- Distant sea birds -->
  <g fill="none" stroke="#3a4a55" stroke-width="2" stroke-linecap="round" opacity="0.65">
    <path d="M120 200 q10 -10 20 0 q10 -10 20 0"/>
    <path d="M260 160 q8 -8 16 0 q8 -8 16 0"/>
    <path d="M740 140 q8 -8 16 0 q8 -8 16 0"/>
    <path d="M860 240 q7 -7 14 0 q7 -7 14 0"/>
  </g>

  <!-- Far cliffs / headland -->
  <path d="M0 430 Q120 410 240 430 Q360 415 480 432 L480 470 L0 470 Z" fill="#9bb7a8" opacity="0.55"/>
  <path d="M780 425 Q900 405 1020 428 Q1100 418 1200 432 L1200 470 L780 470 Z" fill="#9bb7a8" opacity="0.55"/>

  <!-- SEA -->
  <rect x="0" y="430" width="1200" height="120" fill="url(#sea)"/>
  <rect x="0" y="430" width="1200" height="120" fill="url(#waves)"/>

  <!-- Sun reflection on sea -->
  <g opacity="0.6">
    <ellipse cx="980" cy="470" rx="120" ry="6" fill="#fff3cf"/>
    <ellipse cx="980" cy="490" rx="90" ry="4" fill="#ffe89a"/>
    <ellipse cx="980" cy="510" rx="60" ry="3" fill="#ffe89a"/>
    <ellipse cx="980" cy="528" rx="36" ry="2" fill="#ffe89a"/>
  </g>

  <!-- Wave crests -->
  <g fill="none" stroke="#eaf7fb" stroke-width="2" stroke-linecap="round" opacity="0.7">
    <path d="M40 470 q20 -8 40 0 t40 0 t40 0"/>
    <path d="M240 500 q20 -8 40 0 t40 0 t40 0"/>
    <path d="M460 478 q20 -8 40 0 t40 0"/>
    <path d="M660 520 q20 -8 40 0 t40 0"/>
    <path d="M1060 486 q20 -8 40 0 t40 0"/>
  </g>

  <!-- Wet sand line -->
  <rect x="0" y="548" width="1200" height="14" fill="#bfa86a" opacity="0.6"/>
  <!-- SAND -->
  <rect x="0" y="560" width="1200" height="240" fill="url(#sand)"/>
  <!-- Sand texture dots -->
  <g fill="#c9a86a" opacity="0.5">
    <circle cx="80"  cy="640" r="2"/><circle cx="160" cy="700" r="1.5"/>
    <circle cx="260" cy="660" r="2"/><circle cx="340" cy="720" r="1.5"/>
    <circle cx="440" cy="680" r="2"/><circle cx="520" cy="740" r="1.5"/>
    <circle cx="620" cy="690" r="2"/><circle cx="700" cy="730" r="1.5"/>
    <circle cx="800" cy="670" r="2"/><circle cx="880" cy="710" r="1.5"/>
    <circle cx="980" cy="680" r="2"/><circle cx="1060" cy="720" r="1.5"/>
    <circle cx="1140" cy="690" r="2"/>
    <circle cx="120" cy="760" r="1.6"/><circle cx="300" cy="780" r="1.4"/>
    <circle cx="480" cy="770" r="1.6"/><circle cx="660" cy="790" r="1.4"/>
    <circle cx="840" cy="770" r="1.6"/><circle cx="1020" cy="790" r="1.4"/>
  </g>
  <!-- Seaweed / shells -->
  <g fill="#8a6a3a" opacity="0.6">
    <path d="M70 750 q4 -10 0 -18 q-4 8 0 18 Z"/>
    <path d="M920 760 q4 -10 0 -18 q-4 8 0 18 Z"/>
  </g>
  <g fill="#d9b6a0" stroke="#a07a5a" stroke-width="0.6">
    <path d="M220 770 q6 -10 12 0 q-6 6 -12 0 Z"/>
    <path d="M560 782 q5 -8 10 0 q-5 5 -10 0 Z"/>
    <path d="M760 776 q6 -10 12 0 q-6 6 -12 0 Z"/>
  </g>

  <!-- Shadow under bicycle -->
  <ellipse cx="600" cy="712" rx="240" ry="18" fill="#000000" opacity="0.18" filter="url(#soft)"/>

  <!-- ============== BICYCLE ============== -->
  <g filter="url(#shadow)">
    <!-- Rear wheel: cx 470, cy 660, r 78 -->
    <g transform="translate(470,660)">
      <circle r="78" fill="url(#tireGrad)"/>
      <circle r="74" fill="none" stroke="#222" stroke-width="1.5"/>
      <circle r="62" fill="none" stroke="url(#rimGrad)" stroke-width="5"/>
      <circle r="60" fill="none" stroke="#eef2f5" stroke-width="1" opacity="0.8"/>
      <!-- spokes -->
      <g stroke="#d4dae0" stroke-width="1.1" opacity="0.95">
        <line x1="0" y1="-60" x2="0" y2="60"/>
        <line x1="-60" y1="0" x2="60" y2="0"/>
        <line x1="-42" y1="-42" x2="42" y2="42"/>
        <line x1="-42" y1="42" x2="42" y2="-42"/>
        <line x1="-23" y1="-55" x2="23" y2="55"/>
        <line x1="-55" y1="-23" x2="55" y2="23"/>
        <line x1="23" y1="-55" x2="-23" y2="55"/>
        <line x1="55" y1="-23" x2="-55" y2="23"/>
      </g>
      <circle r="8" fill="url(#metalGrad)"/>
      <circle r="3" fill="#2a2f35"/>
      <!-- valve -->
      <line x1="0" y1="0" x2="20" y2="-56" stroke="#888" stroke-width="1.4"/>
      <circle cx="20" cy="-56" r="2" fill="#444"/>
    </g>

    <!-- Front wheel: cx 760, cy 660, r 78 -->
    <g transform="translate(760,660)">
      <circle r="78" fill="url(#tireGrad)"/>
      <circle r="74" fill="none" stroke="#222" stroke-width="1.5"/>
      <circle r="62" fill="none" stroke="url(#rimGrad)" stroke-width="5"/>
      <circle r="60" fill="none" stroke="#eef2f5" stroke-width="1" opacity="0.8"/>
      <g stroke="#d4dae0" stroke-width="1.1" opacity="0.95">
        <line x1="0" y1="-60" x2="0" y2="60"/>
        <line x1="-60" y1="0" x2="60" y2="0"/>
        <line x1="-42" y1="-42" x2="42" y2="42"/>
        <line x1="-42" y1="42" x2="42" y2="-42"/>
        <line x1="-23" y1="-55" x2="23" y2="55"/>
        <line x1="-55" y1="-23" x2="55" y2="23"/>
        <line x1="23" y1="-55" x2="-23" y2="55"/>
        <line x1="55" y1="-23" x2="-55" y2="23"/>
      </g>
      <circle r="8" fill="url(#metalGrad)"/>
      <circle r="3" fill="#2a2f35"/>
      <line x1="0" y1="0" x2="-22" y2="-54" stroke="#888" stroke-width="1.4"/>
      <circle cx="-22" cy="-54" r="2" fill="#444"/>
    </g>

    <!-- Frame tubes -->
    <g stroke="url(#frameGrad)" stroke-width="9" stroke-linecap="round" fill="none">
      <!-- down tube: rear hub to head tube -->
      <line x1="470" y1="660" x2="700" y2="540"/>
      <!-- top tube: seat post base to head tube -->
      <line x1="540" y1="520" x2="700" y2="540"/>
      <!-- seat tube: bb to seat -->
      <line x1="540" y1="660" x2="540" y2="510"/>
      <!-- chain stay: bb to rear hub -->
      <line x1="540" y1="660" x2="470" y2="660"/>
      <!-- seat stay: seat to rear hub -->
      <line x1="540" y1="515" x2="470" y2="660"/>
      <!-- fork: head tube to front hub -->
      <line x1="700" y1="540" x2="760" y2="660"/>
    </g>
    <!-- Frame highlights -->
    <g stroke="#ff8a8a" stroke-width="2.5" stroke-linecap="round" fill="none" opacity="0.7">
      <line x1="475" y1="657" x2="695" y2="543"/>
      <line x1="542" y1="660" x2="542" y2="520"/>
    </g>

    <!-- Bottom bracket -->
    <circle cx="540" cy="660" r="12" fill="url(#metalGrad)"/>
    <circle cx="540" cy="660" r="5" fill="#2a2f35"/>

    <!-- Chain (loop around rear hub and bb) -->
    <g fill="none" stroke="#3a3f44" stroke-width="2.5" stroke-dasharray="3 2.5" opacity="0.9">
      <path d="M470 656 Q500 672 540 664"/>
      <path d="M470 668 Q500 690 540 670"/>
    </g>

    <!-- Chainring -->
    <g transform="translate(540,660)">
      <circle r="22" fill="none" stroke="url(#metalGrad)" stroke-width="6"/>
      <g stroke="#9aa0a6" stroke-width="2">
        <line x1="-22" y1="0" x2="22" y2="0"/>
        <line x1="0" y1="-22" x2="0" y2="22"/>
        <line x1="-16" y1="-16" x2="16" y2="16"/>
        <line x1="-16" y1="16" x2="16" y2="-16"/>
      </g>
      <circle r="6" fill="#2a2f35"/>
    </g>

    <!-- Pedals -->
    <g transform="translate(540,660) rotate(35)">
      <line x1="0" y1="0" x2="0" y2="34" stroke="url(#metalGrad)" stroke-width="5" stroke-linecap="round"/>
      <rect x="-12" y="30" width="24" height="9" rx="2" fill="#2a2f35"/>
      <rect x="-12" y="30" width="24" height="9" rx="2" fill="none" stroke="#888" stroke-width="0.8"/>
    </g>
    <g transform="translate(540,660) rotate(215)">
      <line x1="0" y1="0" x2="0" y2="34" stroke="url(#metalGrad)" stroke-width="5" stroke-linecap="round"/>
      <rect x="-12" y="30" width="24" height="9" rx="2" fill="#2a2f35"/>
      <rect x="-12" y="30" width="24" height="9" rx="2" fill="none" stroke="#888" stroke-width="0.8"/>
    </g>

    <!-- Seat post + saddle -->
    <line x1="540" y1="515" x2="540" y2="475" stroke="url(#metalGrad)" stroke-width="6" stroke-linecap="round"/>
    <path d="M515 472 Q540 460 568 472 Q560 484 540 484 Q520 484 515 472 Z" fill="#2a2f35"/>
    <path d="M518 472 Q540 462 564 472" fill="none" stroke="#555" stroke-width="1"/>

    <!-- Handlebar stem + bars -->
    <line x1="700" y1="540" x2="694" y2="500" stroke="url(#metalGrad)" stroke-width="6" stroke-linecap="round"/>
    <path d="M668 498 Q690 488 720 492 Q730 494 734 502" fill="none" stroke="url(#metalGrad)" stroke-width="6" stroke-linecap="round"/>
    <circle cx="666" cy="498" r="5" fill="#2a2f35"/>
    <circle cx="736" cy="503" r="5" fill="#2a2f35"/>
    <!-- grips -->
    <rect x="654" y="494" width="16" height="9" rx="4" fill="#1f242a"/>
    <rect x="728" y="500" width="16" height="9" rx="4" fill="#1f242a"/>
  </g>

  <!-- ============== PELICAN ============== -->
  <g filter="url(#shadow)">
    <!-- Legs (riding position, feet on pedals) -->
    <g stroke="#e0a23c" stroke-width="9" stroke-linecap="round" fill="none">
      <!-- left leg to front pedal (down-right) -->
      <path d="M612 470 Q600 540 575 605"/>
      <!-- right leg to back pedal -->
      <path d="M635 472 Q648 545 540 638"/>
    </g>
    <!-- webbed feet -->
    <g fill="#e8a838" stroke="#b9781a" stroke-width="1">
      <path d="M575 605 q-14 4 -20 16 q14 4 20 -4 q6 8 20 4 q-6 -12 -20 -16 Z"/>
      <path d="M540 638 q-14 4 -20 16 q14 4 20 -4 q6 8 20 4 q-6 -12 -20 -16 Z" transform="rotate(-20 540 638)"/>
    </g>

    <!-- Tail feathers -->
    <g>
      <path d="M470 410 Q420 430 392 470 Q440 460 470 450 Z" fill="#e9dcc0" stroke="#b8a984" stroke-width="1"/>
      <path d="M470 415 Q432 440 410 478 Q444 466 470 458 Z" fill="#f4efe2" stroke="#c9bd9a" stroke-width="0.8"/>
      <path d="M472 420 Q446 446 430 486 Q452 470 472 464 Z" fill="#fffdf5" stroke="#d8ccb0" stroke-width="0.6"/>
    </g>

    <!-- Body -->
    <path d="M470 408
             Q440 360 478 320
             Q520 286 596 300
             Q680 316 700 372
             Q708 410 672 432
             Q600 452 510 446
             Q470 440 470 408 Z"
          fill="url(#bodyGrad)" stroke="#b8a984" stroke-width="1.2"/>
    <!-- Feather texture overlay -->
    <path d="M470 408
             Q440 360 478 320
             Q520 286 596 300
             Q680 316 700 372
             Q708 410 672 432
             Q600 452 510 446
             Q470 440 470 408 Z"
          fill="url(#feathers)" opacity="0.5"/>

    <!-- Belly highlight -->
    <path d="M520 360 Q580 348 660 372 Q620 392 540 392 Q510 386 520 360 Z"
          fill="#ffffff" opacity="0.35"/>

    <!-- Wing -->
    <g>
      <path d="M560 330
               Q640 318 700 360
               Q716 384 690 408
               Q620 420 540 408
               Q512 392 540 352
               Q548 338 560 330 Z"
            fill="url(#wingGrad)" stroke="#9a8c66" stroke-width="1.2"/>
      <!-- Wing feather divisions -->
      <g fill="none" stroke="#8a7c58" stroke-width="0.9" opacity="0.85">
        <path d="M560 344 Q630 338 690 366"/>
        <path d="M556 360 Q630 358 696 384"/>
        <path d="M552 376 Q624 376 692 398"/>
        <path d="M548 392 Q614 392 686 408"/>
      </g>
      <!-- Wing tip feathers (primary) -->
      <g fill="#f4efe2" stroke="#a89a72" stroke-width="0.8">
        <path d="M690 360 Q724 364 742 384 Q720 386 700 376 Z"/>
        <path d="M694 374 Q730 380 748 402 Q722 404 700 392 Z"/>
        <path d="M692 388 Q728 396 742 418 Q718 418 696 406 Z"/>
        <path d="M686 400 Q720 412 730 432 Q708 430 688 418 Z"/>
      </g>
    </g>

    <!-- Neck -->
    <path d="M660 312
             Q710 296 752 286
             Q790 280 812 296
             Q820 312 800 322
             Q756 332 706 344
             Q672 348 660 332 Z"
          fill="url(#bodyGrad)" stroke="#b8a984" stroke-width="1.2"/>
    <path d="M660 312 Q710 296 752 286 Q790 280 812 296 Q820 312 800 322 Q756 332 706 344 Q672 348 660 332 Z"
          fill="url(#feathers)" opacity="0.45"/>

    <!-- Head -->
    <g>
      <path d="M792 282
               Q846 274 880 296
               Q894 314 876 326
               Q838 338 800 330
               Q776 322 778 302
               Q780 286 792 282 Z"
            fill="url(#bodyGrad)" stroke="#b8a984" stroke-width="1.2"/>
      <!-- head crest feather tuft -->
      <path d="M820 276 q-6 -14 2 -26 q6 10 4 24 Z" fill="#f4efe2" stroke="#a89a72" stroke-width="0.6"/>
      <path d="M832 274 q-4 -16 4 -28 q6 12 2 26 Z" fill="#fffdf5" stroke="#a89a72" stroke-width="0.6"/>
    </g>

    <!-- Eye -->
    <g>
      <circle cx="856" cy="300" r="7.5" fill="#fffdf5" stroke="#8a6a3a" stroke-width="0.8"/>
      <circle cx="858" cy="301" r="4.6" fill="#1a1a1a"/>
      <circle cx="859" cy="299" r="1.5" fill="#ffffff"/>
      <path d="M850 293 Q858 290 866 294" fill="none" stroke="#7a5a2a" stroke-width="0.8"/>
    </g>

    <!-- Beak upper -->
    <path d="M872 304
             Q940 300 996 312
             Q1010 318 1004 326
             Q940 330 876 322
             Q866 316 872 304 Z"
          fill="url(#beakGrad)" stroke="#9a5a0a" stroke-width="1"/>
    <!-- beak nostril -->
    <ellipse cx="890" cy="310" rx="3" ry="1.6" fill="#7a4a08"/>
    <!-- Beak tip hook -->
    <path d="M996 312 Q1014 318 1004 328 Q996 322 996 312 Z" fill="#c2690f" stroke="#7a4a08" stroke-width="0.8"/>
    <!-- beak lower -->
    <path d="M876 322 Q940 334 998 328 Q1002 334 996 338 Q936 344 878 332 Q870 328 876 322 Z"
          fill="#e88a1e" stroke="#9a5a0a" stroke-width="0.9"/>

    <!-- Throat pouch -->
    <path d="M872 326
             Q898 380 932 396
             Q962 402 968 380
             Q962 348 940 332
             Q908 322 872 326 Z"
          fill="url(#pouchGrad)" stroke="#b9781a" stroke-width="1"/>
    <!-- pouch folds -->
    <g fill="none" stroke="#c9881e" stroke-width="0.7" opacity="0.8">
      <path d="M884 340 Q910 376 940 388"/>
      <path d="M894 346 Q918 372 946 380"/>
      <path d="M906 350 Q926 366 952 372"/>
    </g>
    <!-- a small fish peeking from pouch -->
    <g transform="translate(928,372) rotate(18)">
      <path d="M0 0 Q14 -6 28 0 Q14 6 0 0 Z" fill="#6aa0c0" stroke="#3a6080" stroke-width="0.7"/>
      <path d="M28 0 Q34 -6 40 0 Q34 6 28 0 Z" fill="#7ab0d0" stroke="#3a6080" stroke-width="0.7"/>
      <circle cx="6" cy="-1" r="1.4" fill="#1a1a1a"/>
    </g>

    <!-- Wing/arm reaching handlebar -->
    <g>
      <path d="M690 372 Q720 384 720 470 Q710 486 700 486 Q692 460 678 410 Z"
            fill="url(#wingGrad)" stroke="#9a8c66" stroke-width="1"/>
      <g fill="none" stroke="#8a7c58" stroke-width="0.8" opacity="0.85">
        <path d="M692 384 Q712 392 716 470"/>
        <path d="M688 400 Q706 410 708 478"/>
      </g>
      <!-- "hand" gripping bar -->
      <circle cx="714" cy="492" r="9" fill="#e8a838" stroke="#b9781a" stroke-width="0.8"/>
      <path d="M708 486 q6 -4 12 0 m-12 6 q6 -4 12 0" fill="none" stroke="#b9781a" stroke-width="0.8"/>
    </g>

    <!-- Scarf fluttering in sea breeze -->
    <g>
      <path d="M760 318 Q796 314 824 320 Q806 330 768 332 Z" fill="#e63946" stroke="#9a1f2a" stroke-width="0.8"/>
      <path d="M822 320 Q872 312 920 322 Q900 334 848 336 Q830 332 822 320 Z" fill="#f25c6b" stroke="#9a1f2a" stroke-width="0.8"/>
      <path d="M918 322 Q960 320 992 332 Q968 342 924 340 Z" fill="#e63946" stroke="#9a1f2a" stroke-width="0.8"/>
      <path d="M988 330 Q1010 338 1020 352 Q1004 348 992 340 Z" fill="#f25c6b" stroke="#9a1f2a" stroke-width="0.8"/>
    </g>
  </g>

  <!-- Foreground foam wave -->
  <g fill="none" stroke="#ffffff" stroke-width="3" stroke-linecap="round" opacity="0.85">
    <path d="M0 560 Q60 552 120 560 T240 560 T360 560 T480 560 T600 560 T720 560 T840 560 T960 560 T1080 560 T1200 560"/>
  </g>
  <g fill="#ffffff" opacity="0.55">
    <circle cx="120" cy="560" r="4"/><circle cx="360" cy="560" r="3"/>
    <circle cx="600" cy="560" r="4"/><circle cx="840" cy="560" r="3"/>
    <circle cx="1080" cy="560" r="4"/>
  </g>

  <!-- Tiny sand splash behind rear wheel -->
  <g fill="#e8d6a0" opacity="0.8">
    <circle cx="420" cy="700" r="3"/>
    <circle cx="404" cy="690" r="2"/>
    <circle cx="392" cy="704" r="2.4"/>
    <circle cx="376" cy="694" r="1.8"/>
    <circle cx="362" cy="706" r="2"/>
  </g>

  <!-- Subtle vignette -->
  <radialGradient id="vig" cx="50%" cy="50%" r="75%">
    <stop offset="60%" stop-color="#000000" stop-opacity="0"/>
    <stop offset="100%" stop-color="#000000" stop-opacity="0.18"/>
  </radialGradient>
  <rect width="1200" height="800" fill="url(#vig)"/>
</svg>