<svg xmlns="http://www.w3.org/2000/svg" viewBox="0 0 900 600" width="900" height="600">
  <defs>
    <linearGradient id="sky" x1="0" y1="0" x2="0" y2="1">
      <stop offset="0%" stop-color="#4FC3F7"/>
      <stop offset="45%" stop-color="#81D4FA"/>
      <stop offset="78%" stop-color="#B3E5FC"/>
      <stop offset="100%" stop-color="#FFE0B2"/>
    </linearGradient>
    <linearGradient id="sea" x1="0" y1="0" x2="0" y2="1">
      <stop offset="0%" stop-color="#0288D1"/>
      <stop offset="50%" stop-color="#0277BD"/>
      <stop offset="100%" stop-color="#01579B"/>
    </linearGradient>
    <linearGradient id="sand" x1="0" y1="0" x2="0" y2="1">
      <stop offset="0%" stop-color="#FFECB3"/>
      <stop offset="100%" stop-color="#FFD54F"/>
    </linearGradient>
    <radialGradient id="sun" cx="0.5" cy="0.5" r="0.5">
      <stop offset="0%" stop-color="#FFF9C4"/>
      <stop offset="40%" stop-color="#FFD54F"/>
      <stop offset="100%" stop-color="#FFB300" stop-opacity="0"/>
    </radialGradient>

    <!-- Pelican colors - Great White Pelican inspired, warm whites with subtle pink -->
    <linearGradient id="bodyLight" x1="0.2" y1="0" x2="0.8" y2="1">
      <stop offset="0%" stop-color="#FDFCFA"/>
      <stop offset="25%" stop-color="#F8F4EE"/>
      <stop offset="60%" stop-color="#EDE6DC"/>
      <stop offset="100%" stop-color="#DDD4C8"/>
    </linearGradient>
    <linearGradient id="bodyDark" x1="0" y1="0" x2="0" y2="1">
      <stop offset="0%" stop-color="#C4B8AA"/>
      <stop offset="50%" stop-color="#A89C8E"/>
      <stop offset="100%" stop-color="#8E8274"/>
    </linearGradient>
    <linearGradient id="flightFeather" x1="0" y1="0" x2="0.6" y2="1">
      <stop offset="0%" stop-color="#7A6E62"/>
      <stop offset="35%" stop-color="#5E544A"/>
      <stop offset="70%" stop-color="#443C34"/>
      <stop offset="100%" stop-color="#2E2822"/>
    </linearGradient>
    <linearGradient id="coverts" x1="0" y1="0" x2="0" y2="1">
      <stop offset="0%" stop-color="#D8CFC2"/>
      <stop offset="100%" stop-color="#BEB4A6"/>
    </linearGradient>
    <!-- Beak: horn/ivory with warm undertone -->
    <linearGradient id="beakTop" x1="0" y1="0" x2="1" y2="0.15">
      <stop offset="0%" stop-color="#F0E4C8"/>
      <stop offset="35%" stop-color="#E0D0AC"/>
      <stop offset="75%" stop-color="#D0BC90"/>
      <stop offset="100%" stop-color="#C0A874"/>
    </linearGradient>
    <linearGradient id="beakBottom" x1="0" y1="0" x2="1" y2="0">
      <stop offset="0%" stop-color="#E0D0AC"/>
      <stop offset="100%" stop-color="#CCBA94"/>
    </linearGradient>
    <!-- Pouch: orange-pink, like breeding pelican -->
    <linearGradient id="pouchGrad" x1="0" y1="0" x2="0.3" y2="1">
      <stop offset="0%" stop-color="#F0A050"/>
      <stop offset="40%" stop-color="#E08838"/>
      <stop offset="100%" stop-color="#C87028"/>
    </linearGradient>
    <linearGradient id="neckG" x1="0" y1="0" x2="1" y2="0">
      <stop offset="0%" stop-color="#EDE6DC"/>
      <stop offset="40%" stop-color="#FDFCFA"/>
      <stop offset="100%" stop-color="#E0D8CE"/>
    </linearGradient>
    <radialGradient id="headG" cx="0.4" cy="0.35" r="0.65">
      <stop offset="0%" stop-color="#FDFCFA"/>
      <stop offset="60%" stop-color="#F0EBE2"/>
      <stop offset="100%" stop-color="#DDD5C8"/>
    </radialGradient>
    <linearGradient id="legG" x1="0" y1="0" x2="1" y2="0">
      <stop offset="0%" stop-color="#D8A468"/>
      <stop offset="50%" stop-color="#CC9458"/>
      <stop offset="100%" stop-color="#B88048"/>
    </linearGradient>
    <linearGradient id="footG" x1="0" y1="0" x2="0" y2="1">
      <stop offset="0%" stop-color="#CC9050"/>
      <stop offset="100%" stop-color="#A87038"/>
    </linearGradient>
    <!-- Breast band - pinkish tinge like real pelican -->
    <linearGradient id="breastBand" x1="0" y1="0" x2="0" y2="1">
      <stop offset="0%" stop-color="#F5EDE4"/>
      <stop offset="50%" stop-color="#ECD8C8"/>
      <stop offset="100%" stop-color="#F0E4D8"/>
    </linearGradient>
    <!-- Bike -->
    <linearGradient id="frameG" x1="0" y1="0" x2="1" y2="1">
      <stop offset="0%" stop-color="#C62828"/>
      <stop offset="50%" stop-color="#B71C1C"/>
      <stop offset="100%" stop-color="#8E1515"/>
    </linearGradient>
    <linearGradient id="chromeG" x1="0" y1="0" x2="0" y2="1">
      <stop offset="0%" stop-color="#EEEEEE"/>
      <stop offset="35%" stop-color="#BDBDBD"/>
      <stop offset="65%" stop-color="#9E9E9E"/>
      <stop offset="100%" stop-color="#BDBDBD"/>
    </linearGradient>
    <!-- Inset -->
    <linearGradient id="profileBg" x1="0" y1="0" x2="0" y2="1">
      <stop offset="0%" stop-color="#E8F5E9"/>
      <stop offset="100%" stop-color="#C8E6C9"/>
    </linearGradient>
    <filter id="sh"><feDropShadow dx="2" dy="3" stdDeviation="3" flood-color="#00000030"/></filter>
    <filter id="softSh"><feDropShadow dx="1" dy="2" stdDeviation="2" flood-color="#00000018"/></filter>
    <clipPath id="insetClip"><rect x="15" y="12" width="225" height="185" rx="12"/></clipPath>
  </defs>

  <!-- ===== SCENE ===== -->
  <rect width="900" height="600" fill="url(#sky)"/>
  <circle cx="760" cy="108" r="88" fill="url(#sun)"/>
  <circle cx="760" cy="108" r="36" fill="#FFD54F"/>

  <g opacity="0.72">
    <ellipse cx="180" cy="68" rx="68" ry="24" fill="white"/>
    <ellipse cx="228" cy="58" rx="52" ry="19" fill="white"/>
    <ellipse cx="142" cy="63" rx="38" ry="17" fill="#F5F5F5"/>
  </g>
  <g opacity="0.5">
    <ellipse cx="540" cy="48" rx="52" ry="19" fill="white"/>
    <ellipse cx="585" cy="40" rx="40" ry="15" fill="white"/>
  </g>

  <path d="M0,340 L55,282 L115,312 L175,262 L235,298 L295,278 L340,322 L340,340Z" fill="#5C6BC0" opacity="0.22"/>
  <path d="M600,340 L655,292 L715,312 L775,272 L835,302 L900,288 L900,340Z" fill="#5C6BC0" opacity="0.18"/>

  <rect x="0" y="320" width="900" height="120" fill="url(#sea)"/>

  <g opacity="0.3" fill="none" stroke="white" stroke-width="1.5">
    <path d="M0,342 Q55,334 110,342 Q165,350 220,342 Q275,334 330,342 Q385,350 440,342 Q495,334 550,342 Q605,350 660,342 Q715,334 770,342 Q825,350 880,342 L900,342">
      <animate attributeName="d" dur="3s" repeatCount="indefinite" values="M0,342 Q55,334 110,342 Q165,350 220,342 Q275,334 330,342 Q385,350 440,342 Q495,334 550,342 Q605,350 660,342 Q715,334 770,342 Q825,350 880,342 L900,342;M0,342 Q55,350 110,342 Q165,334 220,342 Q275,350 330,342 Q385,334 440,342 Q495,350 550,342 Q605,334 660,342 Q715,350 770,342 Q825,334 880,342 L900,342;M0,342 Q55,334 110,342 Q165,350 220,342 Q275,334 330,342 Q385,350 440,342 Q495,334 550,342 Q605,350 660,342 Q715,334 770,342 Q825,350 880,342 L900,342"/></path>
    <path d="M0,368 Q65,360 130,368 Q195,376 260,368 Q325,360 390,368 Q455,376 520,368 Q585,360 650,368 Q715,376 780,368 Q845,360 900,368">
      <animate attributeName="d" dur="4s" repeatCount="indefinite" values="M0,368 Q65,360 130,368 Q195,376 260,368 Q325,360 390,368 Q455,376 520,368 Q585,360 650,368 Q715,376 780,368 Q845,360 900,368;M0,368 Q65,376 130,368 Q195,360 260,368 Q325,376 390,368 Q455,360 520,368 Q585,376 650,368 Q715,360 780,368 Q845,376 900,368;M0,368 Q65,360 130,368 Q195,376 260,368 Q325,360 390,368 Q455,376 520,368 Q585,360 650,368 Q715,376 780,368 Q845,360 900,368"/></path>
  </g>

  <path d="M0,432 Q55,426 110,434 Q165,440 220,432 Q275,426 330,434 Q385,440 440,432 Q495,426 550,434 Q605,440 660,432 Q715,426 770,434 Q825,440 880,432 L900,434" fill="none" stroke="white" stroke-width="2.5" opacity="0.5">
    <animate attributeName="d" dur="2.5s" repeatCount="indefinite" values="M0,432 Q55,426 110,434 Q165,440 220,432 Q275,426 330,434 Q385,440 440,432 Q495,426 550,434 Q605,440 660,432 Q715,426 770,434 Q825,440 880,432 L900,434;M0,434 Q55,440 110,432 Q165,426 220,434 Q275,440 330,432 Q385,426 440,434 Q495,440 550,432 Q605,426 660,434 Q715,440 770,432 Q825,426 880,434 L900,432;M0,432 Q55,426 110,434 Q165,440 220,432 Q275,426 330,434 Q385,440 440,432 Q495,426 550,434 Q605,440 660,432 Q715,426 770,434 Q825,440 880,432 L900,434"/></path>

  <path d="M0,436 Q225,426 450,436 Q675,446 900,436 L900,600 L0,600Z" fill="url(#sand)"/>
  <g fill="#C8A848" opacity="0.25">
    <circle cx="90" cy="478" r="1.2"/><circle cx="260" cy="472" r="1.4"/><circle cx="440" cy="492" r="1.2"/>
    <circle cx="620" cy="508" r="1.3"/><circle cx="800" cy="532" r="1.2"/><circle cx="350" cy="522" r="1"/>
  </g>

  <g stroke="#444" stroke-width="1.5" fill="none" opacity="0.45">
    <path d="M125,152 Q132,144 139,150 Q146,144 153,152"/>
    <path d="M475,102 Q480,96 485,100 Q490,96 495,102"/>
    <path d="M672,138 Q678,132 684,136 Q690,132 696,138"/>
  </g>

  <g fill="white">
    <circle cx="210" cy="348" r="1.4"><animate attributeName="opacity" values="0.7;0;0.7" dur="2s" repeatCount="indefinite"/></circle>
    <circle cx="540" cy="358" r="1.3"><animate attributeName="opacity" values="0.5;0;0.5" dur="1.7s" repeatCount="indefinite"/></circle>
    <circle cx="380" cy="342" r="1"><animate attributeName="opacity" values="0;0.6;0" dur="1.4s" repeatCount="indefinite"/></circle>
  </g>

  <g stroke="#4E7A22" stroke-width="2.2" fill="none" stroke-linecap="round" opacity="0.75">
    <path d="M58,460 Q52,438 56,422"/><path d="M65,460 Q70,436 62,418"/><path d="M72,460 Q78,442 72,426"/>
  </g>
  <g stroke="#4E7A22" stroke-width="2.2" fill="none" stroke-linecap="round" opacity="0.75">
    <path d="M832,454 Q826,432 830,418"/><path d="M839,454 Q844,436 836,416"/><path d="M846,454 Q852,438 846,422"/>
  </g>

  <!-- Palm -->
  <g transform="translate(792,302)">
    <path d="M0,138 Q-7,98 -4,58 Q-1,28 5,0" fill="none" stroke="#6D4C41" stroke-width="11" stroke-linecap="round"/>
    <path d="M0,138 Q-7,98 -4,58 Q-1,28 5,0" fill="none" stroke="#8D6E63" stroke-width="7" stroke-linecap="round"/>
    <g fill="#2E7D32" stroke="#1B5E20" stroke-width="0.4">
      <path d="M5,0 Q-38,-18 -65,-8 Q-38,-13 5,0"/>
      <path d="M5,0 Q-28,-32 -50,-36 Q-23,-27 5,0"/>
      <path d="M5,0 Q12,-38 32,-46 Q17,-33 5,0"/>
      <path d="M5,0 Q38,-22 62,-18 Q33,-16 5,0"/>
    </g>
    <circle cx="2" cy="5" r="4.5" fill="#6D4C41"/><circle cx="9" cy="3" r="4" fill="#5D4037"/>
  </g>

  <!-- ===== PELICAN ON BICYCLE (main scene) ===== -->
  <g transform="translate(430,388)" filter="url(#sh)">
    <!-- Ground shadow -->
    <ellipse cx="0" cy="116" rx="98" ry="11" fill="#00000015"/>

    <!-- BICYCLE -->
    <g>
      <!-- Rear wheel -->
      <circle cx="-62" cy="76" r="40" fill="none" stroke="#2A2A2A" stroke-width="4.5"/>
      <circle cx="-62" cy="76" r="40" fill="none" stroke="#1A1A1A" stroke-width="4.5" stroke-dasharray="3.5,5.5"/>
      <circle cx="-62" cy="76" r="5.5" fill="url(#chromeG)" stroke="#888" stroke-width="0.5"/>
      <circle cx="-62" cy="76" r="2" fill="#555"/>
      <g stroke="#C8C8C8" stroke-width="0.6">
        <line x1="-62" y1="39" x2="-62" y2="113"/><line x1="-99" y1="76" x2="-25" y2="76"/>
        <line x1="-88" y1="50" x2="-36" y2="102"/><line x1="-36" y1="50" x2="-88" y2="102"/>
        <line x1="-78" y1="43" x2="-46" y2="109"/><line x1="-46" y1="43" x2="-78" y2="109"/>
      </g>
      <!-- Front wheel -->
      <circle cx="62" cy="76" r="40" fill="none" stroke="#2A2A2A" stroke-width="4.5"/>
      <circle cx="62" cy="76" r="40" fill="none" stroke="#1A1A1A" stroke-width="4.5" stroke-dasharray="3.5,5.5"/>
      <circle cx="62" cy="76" r="5.5" fill="url(#chromeG)" stroke="#888" stroke-width="0.5"/>
      <circle cx="62" cy="76" r="2" fill="#555"/>
      <g stroke="#C8C8C8" stroke-width="0.6">
        <line x1="62" y1="39" x2="62" y2="113"/><line x1="25" y1="76" x2="99" y2="76"/>
        <line x1="36" y1="50" x2="88" y2="102"/><line x1="88" y1="50" x2="36" y2="102"/>
        <line x1="46" y1="43" x2="78" y2="109"/><line x1="78" y1="43" x2="46" y2="109"/>
      </g>
      <!-- Frame -->
      <line x1="-20" y1="12" x2="-30" y2="60" stroke="url(#frameG)" stroke-width="5.5" stroke-linecap="round"/>
      <line x1="-20" y1="12" x2="32" y2="17" stroke="url(#frameG)" stroke-width="5.5" stroke-linecap="round"/>
      <line x1="32" y1="17" x2="-30" y2="60" stroke="url(#frameG)" stroke-width="4.5" stroke-linecap="round"/>
      <line x1="-30" y1="60" x2="-62" y2="76" stroke="url(#frameG)" stroke-width="4" stroke-linecap="round"/>
      <line x1="-20" y1="12" x2="-62" y2="76" stroke="url(#frameG)" stroke-width="3" stroke-linecap="round"/>
      <line x1="32" y1="17" x2="62" y2="76" stroke="url(#frameG)" stroke-width="4.5" stroke-linecap="round"/>
      <line x1="32" y1="17" x2="37" y2="-2" stroke="url(#frameG)" stroke-width="4.5" stroke-linecap="round"/>
      <!-- Highlight on top tube -->
      <line x1="-20" y1="11" x2="32" y2="16" stroke="#EF5350" stroke-width="1.2" opacity="0.25" stroke-linecap="round"/>
      <!-- Handlebars -->
      <path d="M28,-5 Q38,-13 50,-5" fill="none" stroke="#2A2A2A" stroke-width="3" stroke-linecap="round"/>
      <rect x="25" y="-7.5" width="6" height="4.5" rx="2" fill="#2A2A2A"/>
      <rect x="47" y="-7.5" width="6" height="4.5" rx="2" fill="#2A2A2A"/>
      <!-- Seat -->
      <path d="M-32,8 Q-20,2 -8,8 Q-20,11 -32,8Z" fill="#3E2723"/>
      <path d="M-30,7.5 Q-20,3.5 -10,7.5" fill="none" stroke="#5D4037" stroke-width="0.4"/>
      <!-- Crank spinning -->
      <g>
        <animateTransform attributeName="transform" type="rotate" from="0 -30 60" to="360 -30 60" dur="0.45s" repeatCount="indefinite"/>
        <line x1="-30" y1="60" x2="-17" y2="48" stroke="#666" stroke-width="3" stroke-linecap="round"/>
        <line x1="-30" y1="60" x2="-43" y2="72" stroke="#666" stroke-width="3" stroke-linecap="round"/>
        <rect x="-22" y="44.5" width="11" height="3.5" rx="1.5" fill="#444"/>
        <rect x="-49" y="70" width="11" height="3.5" rx="1.5" fill="#444"/>
        <circle cx="-30" cy="60" r="9" fill="none" stroke="#888" stroke-width="1.8"/>
        <circle cx="-30" cy="60" r="3.5" fill="#666"/>
      </g>
      <path d="M-21,63 Q-42,78 -62,78 Q-68,76 -68,74" fill="none" stroke="#555" stroke-width="1.8" stroke-dasharray="2,2"/>
    </g>

    <!-- PELICAN (realistic anatomy) -->
    <g>
      <!-- TAIL: layered rectrices -->
      <path d="M-52,-14 Q-68,-20 -76,-14 Q-68,-16 -55,-10" fill="#5E544A" stroke="#443C34" stroke-width="0.2"/>
      <path d="M-50,-11 Q-65,-16 -72,-10 Q-64,-12 -52,-7" fill="#6E6458"/>
      <path d="M-48,-8 Q-62,-12 -68,-5 Q-60,-8 -50,-3" fill="#7A7064"/>
      <path d="M-46,-5 Q-58,-8 -64,-2 Q-56,-4 -48,0" fill="#8E8478"/>
      <!-- Feather shaft lines -->
      <g stroke="#443C34" stroke-width="0.25" opacity="0.35">
        <line x1="-55" y1="-12" x2="-72" y2="-15"/>
        <line x1="-53" y1="-9" x2="-68" y2="-11"/>
        <line x1="-50" y1="-6" x2="-64" y2="-7"/>
      </g>

      <!-- BODY: back visible behind wing -->
      <ellipse cx="-18" cy="-26" rx="38" ry="22" fill="url(#bodyDark)" transform="rotate(-5,-18,-26)"/>
      <!-- Breast/belly - large, round, overlapping -->
      <ellipse cx="-12" cy="-16" rx="36" ry="26" fill="url(#bodyLight)" stroke="#DDD4C8" stroke-width="0.2" transform="rotate(-2,-12,-16)"/>
      <!-- Pinkish breast band (characteristic of Great White Pelican) -->
      <ellipse cx="-8" cy="-4" rx="22" ry="10" fill="url(#breastBand)" opacity="0.35"/>

      <!-- Breast feather scalloping -->
      <g stroke="#DDD4C8" stroke-width="0.35" fill="none" opacity="0.45">
        <path d="M-28,-8 Q-24,-11 -20,-8"/><path d="M-20,-8 Q-16,-11 -12,-8"/>
        <path d="M-12,-8 Q-8,-11 -4,-8"/><path d="M-4,-8 Q0,-11 4,-8"/>
        <path d="M-30,-2 Q-26,-5 -22,-2"/><path d="M-22,-2 Q-18,-5 -14,-2"/>
        <path d="M-14,-2 Q-10,-5 -6,-2"/><path d="M-6,-2 Q-2,-5 2,-2"/>
        <path d="M2,-2 Q6,-5 10,-2"/>
        <path d="M-28,4 Q-24,1 -20,4"/><path d="M-20,4 Q-16,1 -12,4"/>
        <path d="M-12,4 Q-8,1 -4,4"/><path d="M-4,4 Q0,1 4,4"/>
        <path d="M-24,10 Q-20,7 -16,10"/><path d="M-16,10 Q-12,7 -8,10"/>
      </g>

      <!-- WING: anatomically layered -->
      <!-- Scapulars -->
      <path d="M-34,-34 Q-22,-40 -8,-34 Q-18,-31 -28,-30Z" fill="#BEB4A6" stroke="#A89C8E" stroke-width="0.2"/>
      <!-- Lesser coverts -->
      <path d="M-34,-32 Q-16,-44 6,-32 Q-4,-29 -14,-27 Q-26,-25 -34,-28Z" fill="url(#coverts)" stroke="#A89C8E" stroke-width="0.2"/>
      <!-- Greater coverts -->
      <path d="M-32,-28 Q-14,-38 8,-28 Q-2,-25 -10,-24 Q-24,-22 -32,-25Z" fill="#A89C8E" stroke="#8E8274" stroke-width="0.2"/>
      <!-- Secondaries -->
      <path d="M-36,-26 Q-16,-40 12,-30 Q0,-25 -8,-23 Q-22,-20 -36,-23Z" fill="#8E8274" stroke="#6E6458" stroke-width="0.2"/>
      <!-- Primaries (dark flight feathers) -->
      <path d="M-40,-36 Q-18,-52 20,-36 Q6,-32 -4,-27 Q-20,-22 -38,-26Z" fill="url(#flightFeather)" stroke="#2E2822" stroke-width="0.3"/>
      <!-- Primary feather separations -->
      <g stroke="#2E2822" stroke-width="0.4" opacity="0.45">
        <line x1="-33" y1="-38" x2="-10" y2="-28"/>
        <line x1="-26" y1="-42" x2="-4" y2="-30"/>
        <line x1="-18" y1="-45" x2="2" y2="-32"/>
        <line x1="-10" y1="-47" x2="8" y2="-34"/>
        <line x1="-2" y1="-48" x2="14" y2="-34"/>
      </g>
      <!-- Shaft highlights -->
      <g stroke="#C4B8AA" stroke-width="0.2" opacity="0.25">
        <line x1="-28" y1="-40" x2="-8" y2="-30"/>
        <line x1="-20" y1="-44" x2="0" y2="-32"/>
        <line x1="-12" y1="-46" x2="6" y2="-34"/>
      </g>
      <!-- Dark wingtip -->
      <path d="M-40,-36 Q-48,-40 -52,-34 Q-46,-36 -40,-32" fill="#2E2822"/>
      <path d="M-38,-32 Q-45,-36 -48,-30 Q-44,-32 -38,-28" fill="#443C34"/>

      <!-- NECK: long elegant S-curve -->
      <path d="M16,-30 Q26,-48 31,-68 Q35,-85 32,-100" fill="none" stroke="#E0D8CE" stroke-width="16" stroke-linecap="round"/>
      <path d="M16,-30 Q26,-48 31,-68 Q35,-85 32,-100" fill="none" stroke="url(#neckG)" stroke-width="13" stroke-linecap="round"/>
      <!-- Feather rows on neck -->
      <g stroke="#DDD4C8" stroke-width="0.3" fill="none" opacity="0.4">
        <path d="M20,-36 Q24,-39 28,-36"/>
        <path d="M22,-44 Q26,-47 30,-44"/>
        <path d="M24,-52 Q28,-55 32,-52"/>
        <path d="M26,-60 Q30,-63 34,-60"/>
        <path d="M28,-68 Q32,-71 36,-68"/>
        <path d="M30,-76 Q34,-79 38,-76"/>
        <path d="M31,-84 Q35,-87 39,-84"/>
        <path d="M32,-92 Q36,-95 39,-92"/>
      </g>
      <!-- Subtle shadow on neck back edge -->
      <path d="M16,-30 Q26,-48 31,-68 Q35,-85 32,-100" fill="none" stroke="#C4B8AA" stroke-width="2.5" opacity="0.2" stroke-linecap="round"/>

      <!-- HEAD -->
      <path d="M20,-98 Q18,-110 24,-116 Q30,-120 38,-118 Q44,-114 46,-106 Q44,-100 38,-97 Q30,-94 22,-98Z" fill="url(#headG)" stroke="#DDD4C8" stroke-width="0.2"/>
      <!-- Subtle head feather texture -->
      <g stroke="#DDD4C8" stroke-width="0.25" fill="none" opacity="0.35">
        <path d="M24,-114 Q28,-116 32,-114"/>
        <path d="M22,-110 Q26,-112 30,-110"/>
        <path d="M34,-118 Q38,-116 40,-112"/>
      </g>
      <!-- Nape crest feathers (subtle) -->
      <path d="M22,-116 Q18,-122 22,-119" fill="none" stroke="#C4B8AA" stroke-width="0.9" stroke-linecap="round"/>
      <path d="M26,-117 Q22,-123 26,-120" fill="none" stroke="#BEB4A6" stroke-width="0.7" stroke-linecap="round"/>

      <!-- EYE: very detailed -->
      <!-- Bare orbital skin (blue-grey, characteristic) -->
      <ellipse cx="40" cy="-109" rx="6" ry="5.5" fill="#D0D8E0" stroke="#A0A8B0" stroke-width="0.4"/>
      <!-- Eyeball -->
      <circle cx="40" cy="-109" r="4.5" fill="#FFFDE7" stroke="#555" stroke-width="0.5"/>
      <!-- Iris - pale yellow -->
      <circle cx="40" cy="-109" r="3.4" fill="#FDD835"/>
      <!-- Iris inner ring -->
      <circle cx="40" cy="-109" r="2.8" fill="none" stroke="#F9A825" stroke-width="0.3"/>
      <!-- Pupil -->
      <circle cx="40.4" cy="-109" r="2" fill="#111"/>
      <!-- Highlights -->
      <circle cx="41.2" cy="-110.2" r="0.9" fill="white" opacity="0.92"/>
      <circle cx="39" cy="-108" r="0.4" fill="white" opacity="0.4"/>
      <!-- Blue eye ring (bare skin patch) -->
      <path d="M35,-113 Q40,-115 45,-113 Q47,-109 45,-105 Q40,-103 35,-105 Q33,-109 35,-113Z" fill="none" stroke="#64B5F6" stroke-width="0.8" opacity="0.45"/>

      <!-- BEAK: anatomically accurate, very long -->
      <!-- Upper mandible -->
      <path d="M46,-108 L98,-104 Q102,-102 98,-100 L46,-102Z" fill="url(#beakTop)" stroke="#A09070" stroke-width="0.4"/>
      <!-- Culmen (top ridge) -->
      <path d="M46,-108 L96,-104" fill="none" stroke="#B8A478" stroke-width="1.2"/>
      <!-- Tomium (cutting edge) -->
      <path d="M46,-102 L96,-100" fill="none" stroke="#A09070" stroke-width="0.4"/>
      <!-- Nares (nostrils - slit-like) -->
      <path d="M56,-105.5 Q58,-106 60,-105.5" fill="none" stroke="#8C7C58" stroke-width="0.5"/>
      <!-- Beak tip nail/hook -->
      <path d="M96,-104 Q103,-103 100,-99.5 Q98,-100 96,-100" fill="#A09070" stroke="#8C7C58" stroke-width="0.3"/>
      <!-- Subtle cross-bars on beak -->
      <g stroke="#B8A478" stroke-width="0.2" opacity="0.25">
        <line x1="64" y1="-106" x2="64" y2="-102.5"/>
        <line x1="74" y1="-105.5" x2="74" y2="-101.5"/>
        <line x1="84" y1="-105" x2="84" y2="-101"/>
      </g>
      <!-- Lower mandible -->
      <path d="M46,-102 L92,-99 Q95,-98.5 92,-98 L46,-100Z" fill="url(#beakBottom)" stroke="#A09070" stroke-width="0.3"/>
      <!-- Gular pouch (the iconic pelican pouch) -->
      <path d="M46,-100 Q54,-86 68,-90 Q82,-94 98,-100 L46,-100Z" fill="url(#pouchGrad)" opacity="0.78" stroke="#B87838" stroke-width="0.3"/>
      <!-- Pouch wrinkle folds -->
      <g stroke="#B87838" stroke-width="0.35" fill="none" opacity="0.3">
        <path d="M50,-98 Q58,-89 70,-92"/>
        <path d="M54,-96 Q60,-89 68,-91"/>
        <path d="M58,-94 Q62,-89 66,-91"/>
      </g>
      <!-- Pouch skin texture dots -->
      <g fill="#C08040" opacity="0.12">
        <circle cx="56" cy="-94" r="0.6"/><circle cx="62" cy="-92" r="0.5"/>
        <circle cx="68" cy="-94" r="0.5"/><circle cx="74" cy="-96" r="0.4"/>
      </g>

      <!-- LEGS: feathered thigh, scaly tarsus, webbed foot -->
      <!-- Leg 1 -->
      <g>
        <animateTransform attributeName="transform" type="rotate" from="0 -30 60" to="360 -30 60" dur="0.45s" repeatCount="indefinite"/>
        <!-- Feathered thigh -->
        <path d="M-6,2 Q-10,16 -14,34" fill="none" stroke="#EDE6DC" stroke-width="6.5" stroke-linecap="round"/>
        <path d="M-6,2 Q-10,16 -14,34" fill="none" stroke="#DDD4C8" stroke-width="4" stroke-linecap="round" opacity="0.4"/>
        <!-- Scaly tarsus -->
        <path d="M-14,34 Q-15,40 -16,46" fill="none" stroke="url(#legG)" stroke-width="4.5" stroke-linecap="round"/>
        <!-- Scale marks -->
        <g stroke="#A07840" stroke-width="0.3" opacity="0.45">
          <path d="M-17,36 Q-15,35.2 -13,36"/>
          <path d="M-17.5,39 Q-15.5,38.2 -13.5,39"/>
          <path d="M-18,42 Q-16,41.2 -14,42"/>
          <path d="M-18.5,45 Q-16.5,44.2 -14.5,45"/>
        </g>
        <!-- Totipalmate webbed foot (all 4 toes) -->
        <path d="M-16,46 L-8,52 Q-12,54 -22,53 Q-24,51 -22,49Z" fill="url(#footG)" stroke="#8C6828" stroke-width="0.3"/>
        <!-- Toe bones through webbing -->
        <g stroke="#8C6828" stroke-width="0.4" opacity="0.4">
          <line x1="-16" y1="46" x2="-8" y2="52"/>
          <line x1="-16" y1="46" x2="-14" y2="53"/>
          <line x1="-16" y1="46" x2="-20" y2="52"/>
          <line x1="-16" y1="46" x2="-22" y2="50"/>
        </g>
        <!-- Tiny claws -->
        <circle cx="-8" cy="52" r="0.6" fill="#4E342E"/>
        <circle cx="-22" cy="53" r="0.6" fill="#4E342E"/>
      </g>
      <!-- Leg 2 (180 offset) -->
      <g>
        <animateTransform attributeName="transform" type="rotate" from="180 -30 60" to="540 -30 60" dur="0.45s" repeatCount="indefinite"/>
        <path d="M-6,2 Q-10,16 -14,34" fill="none" stroke="#EDE6DC" stroke-width="6.5" stroke-linecap="round"/>
        <path d="M-6,2 Q-10,16 -14,34" fill="none" stroke="#DDD4C8" stroke-width="4" stroke-linecap="round" opacity="0.4"/>
        <path d="M-14,34 Q-15,40 -16,46" fill="none" stroke="url(#legG)" stroke-width="4.5" stroke-linecap="round"/>
        <g stroke="#A07840" stroke-width="0.3" opacity="0.45">
          <path d="M-17,36 Q-15,35.2 -13,36"/>
          <path d="M-17.5,39 Q-15.5,38.2 -13.5,39"/>
          <path d="M-18,42 Q-16,41.2 -14,42"/>
          <path d="M-18.5,45 Q-16.5,44.2 -14.5,45"/>
        </g>
        <path d="M-16,46 L-8,52 Q-12,54 -22,53 Q-24,51 -22,49Z" fill="url(#footG)" stroke="#8C6828" stroke-width="0.3"/>
        <g stroke="#8C6828" stroke-width="0.4" opacity="0.4">
          <line x1="-16" y1="46" x2="-8" y2="52"/>
          <line x1="-16" y1="46" x2="-14" y2="53"/>
          <line x1="-16" y1="46" x2="-20" y2="52"/>
          <line x1="-16" y1="46" x2="-22" y2="50"/>
        </g>
        <circle cx="-8" cy="52" r="0.6" fill="#4E342E"/>
        <circle cx="-22" cy="53" r="0.6" fill="#4E342E"/>
      </g>

      <!-- WING ARM gripping handlebar -->
      <!-- Humerus -->
      <path d="M10,-32 Q20,-26 28,-16" fill="none" stroke="#D8CFC2" stroke-width="5" stroke-linecap="round"/>
      <!-- Radius/ulna -->
      <path d="M28,-16 Q36,-8 44,-3" fill="none" stroke="#C4B8AA" stroke-width="4" stroke-linecap="round"/>
      <!-- Feather overlay -->
      <path d="M10,-32 Q20,-26 28,-16" fill="none" stroke="#EDE6DC" stroke-width="3.5" stroke-linecap="round" opacity="0.5"/>
      <path d="M28,-16 Q36,-8 44,-3" fill="none" stroke="#DDD4C8" stroke-width="2.5" stroke-linecap="round" opacity="0.5"/>
      <!-- Small feather edges -->
      <g stroke="#A89C8E" stroke-width="0.3" fill="none" opacity="0.4">
        <path d="M14,-28 Q18,-26 22,-28"/>
        <path d="M20,-24 Q24,-22 28,-24"/>
        <path d="M26,-18 Q30,-16 34,-18"/>
        <path d="M32,-12 Q36,-10 40,-12"/>
      </g>
      <!-- Wing tip gripping bar -->
      <ellipse cx="45" cy="-3" rx="5.5" ry="3.5" fill="#8E8274" stroke="#6E6458" stroke-width="0.4"/>
      <g stroke="#6E6458" stroke-width="0.25" opacity="0.4">
        <path d="M41,-4 Q43,-2 45,-4"/>
        <path d="M44,-4 Q46,-2 48,-4"/>
      </g>
    </g>

    <!-- Speed lines -->
    <g stroke="#78909C" stroke-width="1" opacity="0.35" stroke-linecap="round">
      <line x1="-110" y1="44" x2="-134" y2="44"/>
      <line x1="-108" y1="54" x2="-130" y2="54"/>
      <line x1="-112" y1="64" x2="-138" y2="64"/>
      <line x1="-106" y1="74" x2="-126" y2="74"/>
      <line x1="-110" y1="84" x2="-132" y2="84"/>
    </g>
    <!-- Dust -->
    <g fill="#D7CCC8">
      <circle cx="-115" cy="106" r="4.5" opacity="0.18">
        <animate attributeName="cx" values="-115;-155" dur="1s" repeatCount="indefinite"/>
        <animate attributeName="opacity" values="0.18;0" dur="1s" repeatCount="indefinite"/>
      </circle>
      <circle cx="-108" cy="112" r="3.5" opacity="0.14">
        <animate attributeName="cx" values="-108;-148" dur="0.85s" repeatCount="indefinite"/>
        <animate attributeName="opacity" values="0.14;0" dur="0.85s" repeatCount="indefinite"/>
      </circle>
    </g>
  </g>

  <!-- ===== SIDE PROFILE INSET ===== -->
  <g transform="translate(0,0)">
    <rect x="15" y="12" width="225" height="185" rx="12" fill="url(#profileBg)" stroke="#81C784" stroke-width="1.5" filter="url(#sh)"/>
    <text x="127" y="32" text-anchor="middle" font-family="Georgia,serif" font-size="10.5" fill="#2E7D32" font-weight="bold" letter-spacing="1">SIDE PROFILE</text>
    <line x1="50" y1="37" x2="205" y2="37" stroke="#A5D6A7" stroke-width="0.5"/>

    <g clip-path="url(#insetClip)">
      <g transform="translate(62,135) scale(1.15)">
        <!-- Standing pelican, pure side view -->
        <!-- Tail -->
        <path d="M-40,-10 Q-52,-16 -58,-10 Q-52,-12 -42,-6" fill="#5E544A" stroke="#443C34" stroke-width="0.2"/>
        <path d="M-38,-7 Q-48,-12 -54,-6 Q-48,-8 -40,-3" fill="#6E6458"/>
        <path d="M-36,-4 Q-44,-8 -50,-2 Q-44,-4 -38,0" fill="#7A7064"/>

        <!-- Body side -->
        <ellipse cx="-10" cy="-12" rx="32" ry="18" fill="url(#bodyLight)" stroke="#DDD4C8" stroke-width="0.2" transform="rotate(-4,-10,-12)"/>
        <!-- Back overlay -->
        <path d="M-38,-20 Q-18,-34 14,-24 Q4,-20 -8,-16 Q-24,-14 -38,-20Z" fill="url(#bodyDark)" opacity="0.6"/>
        <!-- Breast band hint -->
        <ellipse cx="-6" cy="-2" rx="18" ry="8" fill="url(#breastBand)" opacity="0.3"/>

        <!-- Wing folded - profile -->
        <path d="M-32,-24 Q-14,-36 14,-24 Q4,-20 -6,-18 Q-20,-16 -30,-18Z" fill="url(#flightFeather)" stroke="#2E2822" stroke-width="0.25"/>
        <g stroke="#2E2822" stroke-width="0.3" opacity="0.35">
          <line x1="-26" y1="-28" x2="-6" y2="-20"/>
          <line x1="-18" y1="-31" x2="2" y2="-22"/>
          <line x1="-10" y1="-33" x2="8" y2="-24"/>
        </g>
        <!-- Coverts -->
        <path d="M-28,-20 Q-10,-30 8,-20 Q-2,-17 -8,-16 Q-20,-14 -28,-18Z" fill="url(#coverts)" opacity="0.55"/>
        <!-- Wingtip -->
        <path d="M-32,-24 Q-40,-28 -42,-22 Q-38,-24 -32,-20" fill="#2E2822"/>

        <!-- Feather scalloping -->
        <g stroke="#DDD4C8" stroke-width="0.25" fill="none" opacity="0.4">
          <path d="M-20,-4 Q-16,-7 -12,-4"/><path d="M-12,-4 Q-8,-7 -4,-4"/>
          <path d="M-4,-4 Q0,-7 4,-4"/>
          <path d="M-22,2 Q-18,-1 -14,2"/><path d="M-14,2 Q-10,-1 -6,2"/>
          <path d="M-6,2 Q-2,-1 2,2"/>
        </g>

        <!-- Neck - elegant rising S-curve -->
        <path d="M12,-22 Q18,-36 22,-50 Q25,-62 23,-72" fill="none" stroke="#EDE6DC" stroke-width="11" stroke-linecap="round"/>
        <path d="M12,-22 Q18,-36 22,-50 Q25,-62 23,-72" fill="none" stroke="url(#neckG)" stroke-width="9" stroke-linecap="round"/>
        <g stroke="#DDD4C8" stroke-width="0.25" fill="none" opacity="0.35">
          <path d="M15,-28 Q18,-30 21,-28"/>
          <path d="M17,-36 Q20,-38 23,-36"/>
          <path d="M19,-44 Q22,-46 25,-44"/>
          <path d="M21,-52 Q24,-54 26,-52"/>
          <path d="M22,-60 Q25,-62 27,-60"/>
          <path d="M23,-68 Q26,-70 28,-68"/>
        </g>

        <!-- Head -->
        <path d="M14,-70 Q12,-80 18,-85 Q24,-88 30,-86 Q35,-82 35,-74 Q33,-70 28,-68 Q20,-66 14,-70Z" fill="url(#headG)" stroke="#DDD4C8" stroke-width="0.2"/>
        <!-- Crest -->
        <path d="M16,-85 Q13,-90 16,-88" fill="none" stroke="#C4B8AA" stroke-width="0.8" stroke-linecap="round"/>
        <path d="M20,-86 Q17,-91 20,-89" fill="none" stroke="#BEB4A6" stroke-width="0.6" stroke-linecap="round"/>

        <!-- Eye -->
        <ellipse cx="30" cy="-78" rx="4.5" ry="4" fill="#D0D8E0" stroke="#A0A8B0" stroke-width="0.3"/>
        <circle cx="30" cy="-78" r="3.2" fill="#FFFDE7" stroke="#555" stroke-width="0.4"/>
        <circle cx="30" cy="-78" r="2.5" fill="#FDD835"/>
        <circle cx="30.3" cy="-78" r="1.5" fill="#111"/>
        <circle cx="31" cy="-79" r="0.7" fill="white" opacity="0.9"/>
        <circle cx="30" cy="-78" r="3.6" fill="none" stroke="#64B5F6" stroke-width="0.6" opacity="0.4"/>

        <!-- Beak - very long, side view -->
        <path d="M35,-77 L68,-74 Q71,-72 68,-70 L35,-72Z" fill="url(#beakTop)" stroke="#A09070" stroke-width="0.35"/>
        <path d="M35,-77 L66,-74" fill="none" stroke="#B8A478" stroke-width="0.9"/>
        <path d="M42,-75 Q43.5,-75.5 45,-75" fill="none" stroke="#8C7C58" stroke-width="0.4"/>
        <path d="M66,-74 Q72,-73 69,-70 Q68,-70 66,-70" fill="#A09070" stroke="#8C7C58" stroke-width="0.25"/>
        <!-- Lower mandible -->
        <path d="M35,-72 L64,-69.5 Q66,-69 64,-68.5 L35,-70.5Z" fill="url(#beakBottom)" stroke="#A09070" stroke-width="0.25"/>
        <!-- Pouch -->
        <path d="M35,-70.5 Q42,-60 52,-63 Q62,-67 68,-70 L35,-70.5Z" fill="url(#pouchGrad)" opacity="0.72" stroke="#B87838" stroke-width="0.25"/>
        <g stroke="#B87838" stroke-width="0.25" fill="none" opacity="0.25">
          <path d="M38,-68 Q44,-61 53,-64"/>
          <path d="M42,-66 Q46,-61 50,-63"/>
        </g>

        <!-- Legs - standing -->
        <!-- Front leg -->
        <path d="M-4,5 Q-6,18 -8,30" fill="none" stroke="#EDE6DC" stroke-width="5" stroke-linecap="round"/>
        <path d="M-8,30 Q-9,35 -10,39" fill="none" stroke="url(#legG)" stroke-width="3.8" stroke-linecap="round"/>
        <g stroke="#A07840" stroke-width="0.25" opacity="0.4">
          <path d="M-11,32 Q-9,31 -7,32"/>
          <path d="M-11.5,35 Q-9.5,34 -7.5,35"/>
          <path d="M-12,38 Q-10,37 -8,38"/>
        </g>
        <path d="M-10,39 L-3,44 Q-7,46 -16,44 Q-18,42 -16,41Z" fill="url(#footG)" stroke="#8C6828" stroke-width="0.25"/>
        <g stroke="#8C6828" stroke-width="0.3" opacity="0.35">
          <line x1="-10" y1="39" x2="-3" y2="44"/>
          <line x1="-10" y1="39" x2="-10" y2="45"/>
          <line x1="-10" y1="39" x2="-16" y2="43"/>
        </g>

        <!-- Back leg -->
        <path d="M-12,5 Q-15,18 -17,28" fill="none" stroke="#DDD4C8" stroke-width="4" stroke-linecap="round"/>
        <path d="M-17,28 Q-18,33 -19,37" fill="none" stroke="#B88048" stroke-width="3.2" stroke-linecap="round" opacity="0.8"/>
        <path d="M-19,37 L-13,42 Q-17,44 -25,42 Q-26,40 -24,39Z" fill="#A06830" stroke="#8C6828" stroke-width="0.2" opacity="0.65"/>
      </g>
    </g>

    <text x="127" y="190" text-anchor="middle" font-family="Georgia,serif" font-size="7.5" fill="#2E7D32" font-style="italic" opacity="0.65">Pelecanus onocrotalus</text>
    <rect x="15" y="12" width="225" height="185" rx="12" fill="none" stroke="#2E7D32" stroke-width="1" opacity="0.3"/>
  </g>
</svg>