<svg xmlns="http://www.w3.org/2000/svg" viewBox="0 0 900 650" width="900" height="650">
  <defs>
    <!-- Sky gradient -->
    <linearGradient id="sky" x1="0" y1="0" x2="0" y2="1">
      <stop offset="0%" stop-color="#1a0533"/>
      <stop offset="25%" stop-color="#c0392b"/>
      <stop offset="50%" stop-color="#e67e22"/>
      <stop offset="75%" stop-color="#f4d03f"/>
      <stop offset="100%" stop-color="#fad7a0"/>
    </linearGradient>
    <!-- Ocean gradient -->
    <linearGradient id="ocean" x1="0" y1="0" x2="0" y2="1">
      <stop offset="0%" stop-color="#1a5276"/>
      <stop offset="40%" stop-color="#2471a3"/>
      <stop offset="100%" stop-color="#5dade2"/>
    </linearGradient>
    <!-- Sun reflection -->
    <radialGradient id="sunGlow" cx="0.5" cy="0.5" r="0.5">
      <stop offset="0%" stop-color="#fff9c4" stop-opacity="1"/>
      <stop offset="40%" stop-color="#f9e542" stop-opacity="0.6"/>
      <stop offset="100%" stop-color="#e67e22" stop-opacity="0"/>
    </radialGradient>
    <!-- Sand gradient -->
    <linearGradient id="sand" x1="0" y1="0" x2="0" y2="1">
      <stop offset="0%" stop-color="#f5cba7"/>
      <stop offset="100%" stop-color="#e8c39e"/>
    </linearGradient>
    <!-- Water reflection shimmer -->
    <linearGradient id="shimmer" x1="0" y1="0" x2="1" y2="0">
      <stop offset="0%" stop-color="#fff" stop-opacity="0"/>
      <stop offset="50%" stop-color="#fff" stop-opacity="0.3"/>
      <stop offset="100%" stop-color="#fff" stop-opacity="0"/>
    </linearGradient>
    <!-- Pelican body gradient -->
    <linearGradient id="pelicanBody" x1="0" y1="0" x2="0" y2="1">
      <stop offset="0%" stop-color="#fdebd0"/>
      <stop offset="100%" stop-color="#f5cba7"/>
    </linearGradient>
    <!-- Pelican wing -->
    <linearGradient id="pelicanWing" x1="0" y1="0" x2="1" y2="1">
      <stop offset="0%" stop-color="#d5d8dc"/>
      <stop offset="50%" stop-color="#aeb6bf"/>
      <stop offset="100%" stop-color="#85929e"/>
    </linearGradient>
    <!-- Pouch gradient -->
    <linearGradient id="pouch" x1="0" y1="0" x2="0" y2="1">
      <stop offset="0%" stop-color="#f5b041"/>
      <stop offset="100%" stop-color="#e59866"/>
    </linearGradient>
    <!-- Cloud filter -->
    <filter id="softBlur">
      <feGaussianBlur stdDeviation="2"/>
    </filter>
    <filter id="grain">
      <feTurbulence type="fractalNoise" baseFrequency="0.65" numOctaves="3" stitchTiles="stitch"/>
      <feColorMatrix type="saturate" values="0"/>
      <feBlend in="SourceGraphic" mode="multiply" result="blend"/>
      <feComponentTransfer>
        <feFuncA type="linear" slope="0.08"/>
      </feComponentTransfer>
      <feBlend in="SourceGraphic" mode="normal"/>
    </filter>
    <!-- Shadow -->
    <filter id="shadow">
      <feDropShadow dx="2" dy="4" stdDeviation="3" flood-color="#000" flood-opacity="0.25"/>
    </filter>
    <!-- Water sparkle -->
    <radialGradient id="sparkle" cx="0.5" cy="0.5" r="0.5">
      <stop offset="0%" stop-color="#fff" stop-opacity="0.9"/>
      <stop offset="100%" stop-color="#fff" stop-opacity="0"/>
    </radialGradient>
  </defs>

  <!-- SKY -->
  <rect width="900" height="650" fill="url(#sky)"/>

  <!-- SUN -->
  <ellipse cx="680" cy="260" rx="90" ry="90" fill="url(#sunGlow)"/>
  <circle cx="680" cy="260" r="38" fill="#fff3b0" opacity="0.95"/>
  <circle cx="680" cy="260" r="28" fill="#fffde7"/>

  <!-- CLOUDS -->
  <g opacity="0.6" filter="url(#softBlur)">
    <ellipse cx="150" cy="80" rx="80" ry="25" fill="#fdebd0" opacity="0.5"/>
    <ellipse cx="190" cy="70" rx="60" ry="20" fill="#fdebd0" opacity="0.4"/>
    <ellipse cx="400" cy="110" rx="100" ry="20" fill="#fad7a0" opacity="0.35"/>
    <ellipse cx="450" cy="100" rx="70" ry="18" fill="#fad7a0" opacity="0.3"/>
    <ellipse cx="600" cy="60" rx="50" ry="15" fill="#fdebd0" opacity="0.3"/>
    <ellipse cx="800" cy="130" rx="90" ry="22" fill="#fad7a0" opacity="0.3"/>
  </g>

  <!-- BIRDS IN DISTANCE -->
  <g fill="none" stroke="#1a0533" stroke-width="1.5" stroke-linecap="round" opacity="0.3">
    <path d="M100,150 Q108,142 116,150 Q124,142 132,150"/>
    <path d="M160,130 Q166,124 172,130 Q178,124 184,130"/>
    <path d="M130,170 Q135,164 140,170 Q145,164 150,170"/>
  </g>

  <!-- OCEAN -->
  <path d="M0,340 Q100,330 200,338 Q350,325 450,335 Q550,328 700,340 Q800,332 900,338 L900,430 L0,430 Z" fill="url(#ocean)"/>

  <!-- OCEAN WAVES -->
  <path d="M0,360 Q60,355 120,362 Q200,352 300,360 Q400,350 500,358 Q600,348 700,360 Q800,352 900,358" fill="none" stroke="#1a5276" stroke-width="1" opacity="0.4"/>
  <path d="M0,380 Q80,374 160,382 Q260,372 360,380 Q480,370 580,378 Q700,368 800,380 Q860,374 900,378" fill="none" stroke="#1a5276" stroke-width="0.8" opacity="0.3"/>
  <path d="M0,400 Q100,395 200,402 Q320,393 420,400 Q540,391 640,399 Q750,390 900,398" fill="none" stroke="#2471a3" stroke-width="0.6" opacity="0.25"/>

  <!-- Water sparkles -->
  <g>
    <ellipse cx="620" cy="350" rx="8" ry="2" fill="url(#sparkle)" opacity="0.5">
      <animate attributeName="opacity" values="0.5;0.1;0.5" dur="3s" repeatCount="indefinite"/>
    </ellipse>
    <ellipse cx="500" cy="370" rx="6" ry="1.5" fill="url(#sparkle)" opacity="0.4">
      <animate attributeName="opacity" values="0.4;0.1;0.4" dur="2.5s" repeatCount="indefinite"/>
    </ellipse>
    <ellipse cx="720" cy="365" rx="5" ry="1.5" fill="url(#sparkle)" opacity="0.6">
      <animate attributeName="opacity" values="0.6;0.15;0.6" dur="3.5s" repeatCount="indefinite"/>
    </ellipse>
    <ellipse cx="350" cy="385" rx="7" ry="2" fill="url(#sparkle)" opacity="0.3">
      <animate attributeName="opacity" values="0.3;0.05;0.3" dur="2s" repeatCount="indefinite"/>
    </ellipse>
  </g>

  <!-- Sun reflection on water -->
  <g opacity="0.3">
    <rect x="650" y="340" width="60" height="90" rx="30" fill="#f9e542" opacity="0.15"/>
    <rect x="665" y="345" width="30" height="80" rx="15" fill="#fff9c4" opacity="0.2"/>
  </g>

  <!-- BEACH / SAND -->
  <path d="M0,420 Q150,410 300,418 Q500,408 700,420 Q850,415 900,422 L900,650 L0,650 Z" fill="url(#sand)"/>

  <!-- Wet sand near water -->
  <path d="M0,430 Q150,422 300,428 Q500,418 700,430 Q850,425 900,432 L900,460 Q850,450 700,455 Q500,445 300,452 Q150,446 0,455 Z" fill="#d7ccc8" opacity="0.4"/>

  <!-- Foam line -->
  <path d="M0,428 Q60,423 130,427 Q200,421 280,426 Q380,420 480,425 Q560,419 650,426 Q750,420 840,427 Q880,423 900,426" fill="none" stroke="white" stroke-width="2" opacity="0.5">
    <animate attributeName="opacity" values="0.5;0.2;0.5" dur="4s" repeatCount="indefinite"/>
  </path>
  <path d="M0,432 Q80,427 160,431 Q260,425 350,430 Q460,424 560,429 Q680,423 780,430 Q860,425 900,429" fill="none" stroke="white" stroke-width="1.2" opacity="0.35">
    <animate attributeName="opacity" values="0.35;0.1;0.35" dur="3.5s" repeatCount="indefinite"/>
  </path>

  <!-- Sand texture dots -->
  <g fill="#c9a96e" opacity="0.25">
    <circle cx="50" cy="500" r="1"/><circle cx="120" cy="520" r="0.8"/><circle cx="200" cy="490" r="1.2"/>
    <circle cx="300" cy="510" r="0.7"/><circle cx="400" cy="505" r="1"/><circle cx="500" cy="530" r="0.9"/>
    <circle cx="600" cy="495" r="1.1"/><circle cx="700" cy="515" r="0.8"/><circle cx="800" cy="500" r="1"/>
    <circle cx="150" cy="550" r="0.6"/><circle cx="350" cy="540" r="1"/><circle cx="550" cy="560" r="0.7"/>
    <circle cx="750" cy="545" r="0.9"/><circle cx="250" cy="570" r="1.1"/><circle cx="650" cy="575" r="0.8"/>
  </g>

  <!-- SHELLS on beach -->
  <g transform="translate(100,470)" opacity="0.5">
    <ellipse cx="0" cy="0" rx="6" ry="4" fill="#f5e6cc" stroke="#d5c4a1" stroke-width="0.5"/>
    <line x1="-4" y1="0" x2="4" y2="0" stroke="#d5c4a1" stroke-width="0.3"/>
  </g>
  <g transform="translate(760,480) rotate(30)" opacity="0.4">
    <ellipse cx="0" cy="0" rx="5" ry="3" fill="#fce4d6" stroke="#d5c4a1" stroke-width="0.5"/>
  </g>
  <g transform="translate(420,520) rotate(-15)" opacity="0.35">
    <path d="M0,0 Q-4,-5 0,-8 Q4,-5 0,0" fill="#f0d9c4" stroke="#c9a96e" stroke-width="0.4"/>
  </g>

  <!-- SEAGRASS -->
  <g stroke="#6b8e23" stroke-width="1.5" fill="none" opacity="0.5" stroke-linecap="round">
    <path d="M30,440 Q25,420 35,400 Q30,395 28,385"/>
    <path d="M35,440 Q40,418 32,400 Q38,390 33,378"/>
    <path d="M820,445 Q825,425 818,405 Q823,395 820,385"/>
    <path d="M825,445 Q818,428 826,408 Q820,398 825,388"/>
  </g>

  <!-- ========== BICYCLE ========== -->
  <g transform="translate(350, 0)" filter="url(#shadow)">

    <!-- Bike shadow on sand -->
    <ellipse cx="80" cy="540" rx="100" ry="12" fill="#000" opacity="0.12"/>

    <!-- Rear wheel -->
    <g transform="translate(0, 440)">
      <circle cx="0" cy="0" r="65" fill="none" stroke="#2c3e50" stroke-width="4"/>
      <circle cx="0" cy="0" r="60" fill="none" stroke="#34495e" stroke-width="1.5" opacity="0.4"/>
      <!-- Tire tread -->
      <circle cx="0" cy="0" r="67" fill="none" stroke="#1a252f" stroke-width="2" stroke-dasharray="4,4" opacity="0.3"/>
      <!-- Hub -->
      <circle cx="0" cy="0" r="6" fill="#7f8c8d"/>
      <circle cx="0" cy="0" r="3" fill="#bdc3c7"/>
      <!-- Spokes -->
      <g stroke="#95a5a6" stroke-width="0.8" opacity="0.6">
        <line x1="0" y1="-6" x2="0" y2="-60"/><line x1="0" y1="6" x2="0" y2="60"/>
        <line x1="-6" y1="0" x2="-60" y2="0"/><line x1="6" y1="0" x2="60" y2="0"/>
        <line x1="-4" y1="-4" x2="-42" y2="-42"/><line x1="4" y1="4" x2="42" y2="42"/>
        <line x1="-4" y1="4" x2="-42" y2="42"/><line x1="4" y1="-4" x2="42" y2="-42"/>
        <line x1="-2" y1="-5" x2="-20" y2="-58"/><line x1="2" y1="5" x2="20" y2="58"/>
        <line x1="-5" y1="-2" x2="-58" y2="-20"/><line x1="5" y1="2" x2="58" y2="20"/>
        <line x1="-5" y1="2" x2="-58" y2="20"/><line x1="5" y1="-2" x2="58" y2="-20"/>
        <line x1="-2" y1="5" x2="-20" y2="58"/><line x1="2" y1="-5" x2="20" y2="-58"/>
      </g>
      <!-- Wheel rim highlight -->
      <circle cx="0" cy="0" r="62" fill="none" stroke="#ecf0f1" stroke-width="0.5" opacity="0.3"/>
    </g>

    <!-- Front wheel -->
    <g transform="translate(180, 440)">
      <circle cx="0" cy="0" r="65" fill="none" stroke="#2c3e50" stroke-width="4"/>
      <circle cx="0" cy="0" r="60" fill="none" stroke="#34495e" stroke-width="1.5" opacity="0.4"/>
      <circle cx="0" cy="0" r="67" fill="none" stroke="#1a252f" stroke-width="2" stroke-dasharray="4,4" opacity="0.3"/>
      <circle cx="0" cy="0" r="6" fill="#7f8c8d"/>
      <circle cx="0" cy="0" r="3" fill="#bdc3c7"/>
      <g stroke="#95a5a6" stroke-width="0.8" opacity="0.6">
        <line x1="0" y1="-6" x2="0" y2="-60"/><line x1="0" y1="6" x2="0" y2="60"/>
        <line x1="-6" y1="0" x2="-60" y2="0"/><line x1="6" y1="0" x2="60" y2="0"/>
        <line x1="-4" y1="-4" x2="-42" y2="-42"/><line x1="4" y1="4" x2="42" y2="42"/>
        <line x1="-4" y1="4" x2="-42" y2="42"/><line x1="4" y1="-4" x2="42" y2="-42"/>
        <line x1="-2" y1="-5" x2="-20" y2="-58"/><line x1="2" y1="5" x2="20" y2="58"/>
        <line x1="-5" y1="-2" x2="-58" y2="-20"/><line x1="5" y1="2" x2="58" y2="20"/>
        <line x1="-5" y1="2" x2="-58" y2="20"/><line x1="5" y1="-2" x2="58" y2="-20"/>
        <line x1="-2" y1="5" x2="-20" y2="58"/><line x1="2" y1="-5" x2="20" y2="-58"/>
      </g>
      <circle cx="0" cy="0" r="62" fill="none" stroke="#ecf0f1" stroke-width="0.5" opacity="0.3"/>
    </g>

    <!-- Chain ring -->
    <circle cx="70" cy="440" r="18" fill="none" stroke="#5d6d7e" stroke-width="2.5"/>
    <circle cx="70" cy="440" r="14" fill="none" stroke="#85929e" stroke-width="1" opacity="0.5"/>
    <circle cx="70" cy="440" r="4" fill="#5d6d7e"/>
    <!-- Chain -->
    <path d="M70,458 L0,446" stroke="#2c3e50" stroke-width="2.5" fill="none"/>
    <path d="M70,422 L0,434" stroke="#2c3e50" stroke-width="2.5" fill="none"/>
    <!-- Crank arm -->
    <line x1="70" y1="440" x2="85" y2="465" stroke="#5d6d7e" stroke-width="4" stroke-linecap="round"/>
    <!-- Pedal -->
    <rect x="78" y="462" width="18" height="5" rx="2" fill="#2c3e50" transform="rotate(10, 87, 465)"/>

    <!-- Frame -->
    <g stroke="#8e1a1a" stroke-width="4.5" stroke-linecap="round" fill="none">
      <!-- Seat tube -->
      <line x1="70" y1="440" x2="80" y2="350"/>
      <!-- Top tube -->
      <line x1="80" y1="350" x2="170" y2="360"/>
      <!-- Down tube -->
      <line x1="70" y1="440" x2="170" y2="380"/>
      <!-- Seat stay -->
      <line x1="80" y1="350" x2="0" y2="440"/>
      <!-- Chain stay -->
      <line x1="70" y1="440" x2="0" y2="440"/>
      <!-- Head tube -->
      <line x1="170" y1="360" x2="175" y2="380"/>
      <!-- Fork -->
      <line x1="172" y1="375" x2="180" y2="440"/>
    </g>

    <!-- Frame accent stripe -->
    <g stroke="#c0392b" stroke-width="1.5" stroke-linecap="round" fill="none" opacity="0.5">
      <line x1="72" y1="435" x2="82" y2="355"/>
      <line x1="82" y1="352" x2="168" y2="362"/>
    </g>

    <!-- Handlebar -->
    <path d="M168,355 Q170,340 178,335 Q185,332 192,338" stroke="#2c3e50" stroke-width="3.5" fill="none" stroke-linecap="round"/>
    <!-- Handlebar grips -->
    <line x1="190" y1="336" x2="195" y2="332" stroke="#1a1a1a" stroke-width="5" stroke-linecap="round"/>

    <!-- Seat post -->
    <line x1="78" y1="352" x2="75" y2="332" stroke="#5d6d7e" stroke-width="3.5" stroke-linecap="round"/>
    <!-- Seat -->
    <ellipse cx="75" cy="330" rx="18" ry="6" fill="#1a1a1a"/>
    <ellipse cx="75" cy="329" rx="16" ry="4.5" fill="#2c2c2c"/>
    <ellipse cx="72" cy="328" rx="8" ry="2" fill="#3d3d3d" opacity="0.5"/>
  </g>

  <!-- ========== PELICAN ========== -->
  <g transform="translate(350, 0)" filter="url(#shadow)">

    <!-- TAIL FEATHERS -->
    <g transform="translate(50, 300)">
      <path d="M0,0 Q-30,10 -50,30 Q-40,20 -20,15 Q-45,25 -60,45 Q-45,30 -18,22 Q-40,35 -55,55 Q-38,35 -12,28 Q-30,40 -48,62 Q-30,40 -8,32 Q-20,45 -35,65 Q-18,45 -5,35" fill="url(#pelicanWing)" stroke="#85929e" stroke-width="0.5"/>
      <path d="M0,0 Q-25,15 -45,35" stroke="#aeb6bf" stroke-width="0.5" fill="none" opacity="0.5"/>
    </g>

    <!-- BODY -->
    <ellipse cx="90" cy="320" rx="55" ry="38" fill="url(#pelicanBody)" transform="rotate(-5, 90, 320)"/>
    <!-- Body shading -->
    <ellipse cx="95" cy="330" rx="40" ry="25" fill="#fdebd0" opacity="0.3"/>
    <!-- Breast feathers -->
    <g fill="none" stroke="#e8c39e" stroke-width="0.6" opacity="0.5">
      <path d="M70,310 Q80,315 70,320"/>
      <path d="M80,308 Q90,313 80,318"/>
      <path d="M90,307 Q100,312 90,317"/>
      <path d="M100,308 Q110,313 100,318"/>
      <path d="M75,320 Q85,325 75,330"/>
      <path d="M85,318 Q95,323 85,328"/>
      <path d="M95,317 Q105,322 95,327"/>
    </g>

    <!-- WING (visible part) -->
    <path d="M60,300 Q40,310 35,330 Q38,350 55,365 Q75,375 100,370 Q120,360 130,345 Q135,330 130,315 Q120,300 100,295 Z" fill="url(#pelicanWing)" stroke="#85929e" stroke-width="0.8"/>
    <!-- Wing feather detail -->
    <g fill="none" stroke="#85929e" stroke-width="0.5" opacity="0.6">
      <path d="M55,330 Q70,340 90,345"/>
      <path d="M50,340 Q65,350 85,355"/>
      <path d="M48,350 Q62,358 80,363"/>
      <path d="M55,358 Q70,365 88,368"/>
      <path d="M65,362 Q80,368 100,370"/>
    </g>
    <!-- Wing tip highlight -->
    <path d="M38,335 Q35,342 40,350" stroke="#d5d8dc" stroke-width="1" fill="none" opacity="0.4"/>

    <!-- NECK -->
    <path d="M120,305 Q125,280 130,260 Q138,235 150,218 Q158,208 165,200" stroke="#f5cba7" stroke-width="22" fill="none" stroke-linecap="round"/>
    <!-- Neck feather overlay for white stripe -->
    <path d="M125,295 Q130,270 137,250 Q144,230 155,215" stroke="#fdebd0" stroke-width="12" fill="none" stroke-linecap="round" opacity="0.6"/>
    <!-- Neck shading -->
    <path d="M118,300 Q122,278 128,258 Q135,238 148,220" stroke="#e8c39e" stroke-width="3" fill="none" stroke-linecap="round" opacity="0.3"/>

    <!-- HEAD -->
    <ellipse cx="170" cy="190" rx="22" ry="18" fill="#fdebd0" transform="rotate(-10, 170, 190)"/>
    <!-- Crown feathers -->
    <path d="M155,178 Q160,170 170,175 Q175,168 183,174 Q188,170 192,178" fill="#f5cba7" stroke="#e8c39e" stroke-width="0.5"/>
    <!-- Eye area shading -->
    <ellipse cx="175" cy="185" rx="10" ry="8" fill="#fce4d6" opacity="0.5"/>
    <!-- Eye ring -->
    <circle cx="178" cy="184" r="5.5" fill="#fff"/>
    <circle cx="178" cy="184" r="4" fill="#1a0533"/>
    <circle cx="178" cy="183.5" r="3" fill="#2c1654"/>
    <circle cx="180" cy="182" r="1.2" fill="#fff"/>
    <!-- Eye ring color -->
    <circle cx="178" cy="184" r="5.5" fill="none" stroke="#f0b27a" stroke-width="1.2"/>
    <!-- Brow line -->
    <path d="M172,179 Q178,176 185,178" stroke="#d5c4a1" stroke-width="0.8" fill="none"/>

    <!-- BEAK UPPER -->
    <path d="M190,188 Q210,185 255,192 Q260,193 258,195 Q250,196 240,196 Q220,198 200,196 L190,194 Z" fill="#f0a030" stroke="#d4890a" stroke-width="0.8"/>
    <!-- Beak ridge -->
    <path d="M195,190 Q220,187 250,193" stroke="#e09020" stroke-width="1.2" fill="none"/>
    <!-- Beak tip hook -->
    <path d="M255,192 Q262,193 260,196 Q258,197 255,196" fill="#d4890a"/>
    <!-- Nostril -->
    <ellipse cx="210" cy="191" rx="3" ry="1.5" fill="#d4890a" opacity="0.5"/>

    <!-- BEAK LOWER / POUCH -->
    <path d="M190,194 Q195,198 200,210 Q210,225 225,228 Q240,225 248,215 Q255,205 250,196 Q240,198 220,198 Q200,198 190,194 Z" fill="url(#pouch)" stroke="#d4890a" stroke-width="0.6" opacity="0.9"/>
    <!-- Pouch texture lines -->
    <g fill="none" stroke="#d4890a" stroke-width="0.4" opacity="0.4">
      <path d="M198,200 Q210,215 225,220"/>
      <path d="M205,200 Q215,212 230,218"/>
      <path d="M215,199 Q225,210 238,212"/>
      <path d="M240,205 Q245,210 248,208"/>
    </g>
    <!-- Pouch highlight -->
    <path d="M200,200 Q215,215 230,220" stroke="#f5cba7" stroke-width="0.8" fill="none" opacity="0.3"/>

    <!-- LEGS ON PEDALS -->
    <!-- Right leg (on pedal) -->
    <g>
      <!-- Upper leg/thigh -->
      <path d="M85,345 Q82,370 83,395 Q84,410 90,425" stroke="#f0a030" stroke-width="7" fill="none" stroke-linecap="round"/>
      <!-- Lower leg -->
      <path d="M90,425 Q92,440 95,455" stroke="#f0a030" stroke-width="5" fill="none" stroke-linecap="round"/>
      <!-- Foot webbed -->
      <g transform="translate(95, 458)">
        <ellipse cx="0" cy="0" rx="12" ry="4" fill="#f0a030" stroke="#d4890a" stroke-width="0.5"/>
        <line x1="-8" y1="0" x2="-15" y2="5" stroke="#d4890a" stroke-width="1.5"/>
        <line x1="0" y1="0" x2="0" y2="8" stroke="#d4890a" stroke-width="1.5"/>
        <line x1="8" y1="0" x2="15" y2="5" stroke="#d4890a" stroke-width="1.5"/>
        <!-- Webbing -->
        <path d="M-8,0 Q-10,3 -15,5" fill="#f5b041" opacity="0.5"/>
        <path d="M0,0 Q0,5 0,8" fill="#f5b041" opacity="0.5"/>
        <path d="M8,0 Q10,3 15,5" fill="#f5b041" opacity="0.5"/>
      </g>
    </g>
    <!-- Left leg (slightly behind) -->
    <g opacity="0.85">
      <path d="M75,348 Q70,375 72,400 Q73,418 78,430" stroke="#e09020" stroke-width="6" fill="none" stroke-linecap="round"/>
      <path d="M78,430 Q80,445 82,455" stroke="#e09020" stroke-width="4.5" fill="none" stroke-linecap="round"/>
      <g transform="translate(82, 458)">
        <ellipse cx="0" cy="0" rx="11" ry="3.5" fill="#e09020" stroke="#c4820a" stroke-width="0.5"/>
        <line x1="-7" y1="0" x2="-13" y2="4" stroke="#c4820a" stroke-width="1.2"/>
        <line x1="0" y1="0" x2="0" y2="7" stroke="#c4820a" stroke-width="1.2"/>
        <line x1="7" y1="0" x2="13" y2="4" stroke="#c4820a" stroke-width="1.2"/>
      </g>
    </g>

    <!-- WINGS HOLDING HANDLEBARS -->
    <!-- Right wing/arm extended to handlebar -->
    <path d="M110,310 Q130,305 150,298 Q165,294 180,296 Q195,300 205,310" stroke="#aeb6bf" stroke-width="8" fill="none" stroke-linecap="round"/>
    <path d="M110,310 Q130,305 150,298 Q165,294 180,296 Q195,300 205,310" stroke="#c0c8d0" stroke-width="5" fill="none" stroke-linecap="round"/>
    <!-- Wing tip gripping handlebar -->
    <path d="M205,310 Q208,308 210,305 Q212,308 210,312 Q208,310 205,310" fill="#aeb6bf"/>

    <!-- Left wing/arm (partially visible) -->
    <path d="M100,315 Q115,312 135,308 Q155,305 175,305 Q190,307 200,312" stroke="#95a5a6" stroke-width="6" fill="none" stroke-linecap="round" opacity="0.7"/>
  </g>

  <!-- Sand spray behind wheels -->
  <g opacity="0.35">
    <path d="M425,530 Q415,520 410,505 Q408,498 412,490" fill="none" stroke="#d5c4a1" stroke-width="1.5" stroke-linecap="round"/>
    <path d="M435,532 Q428,525 425,515 Q424,508 427,500" fill="none" stroke="#d5c4a1" stroke-width="1" stroke-linecap="round"/>
    <path d="M418,528 Q408,518 402,502 Q400,495 405,488" fill="none" stroke="#c9a96e" stroke-width="1" stroke-linecap="round"/>
    <!-- Sand particles -->
    <circle cx="405" cy="485" r="1.5" fill="#d5c4a1"/>
    <circle cx="410" cy="490" r="1" fill="#c9a96e"/>
    <circle cx="400" cy="495" r="1.2" fill="#d5c4a1"/>
    <circle cx="415" cy="488" r="0.8" fill="#e8c39e"/>
    <circle cx="408" cy="500" r="1" fill="#d5c4a1"/>
  </g>

  <!-- Pelican shadow -->
  <ellipse cx="430" cy="540" rx="70" ry="8" fill="#000" opacity="0.1"/>

  <!-- Beach grass in foreground -->
  <g stroke="#6b8e23" stroke-width="1.8" fill="none" opacity="0.6" stroke-linecap="round">
    <path d="M20,580 Q15,560 25,540 Q18,530 22,518"/>
    <path d="M26,580 Q30,558 22,538 Q28,528 24,515"/>
    <path d="M32,580 Q28,562 34,545"/>
    <path d="M860,570 Q855,552 862,535 Q856,525 860,512"/>
    <path d="M866,570 Q870,550 864,532 Q870,522 865,510"/>
    <path d="M872,570 Q868,555 874,540"/>
  </g>

  <!-- Distant sailboat -->
  <g transform="translate(250, 310)" opacity="0.35">
    <path d="M0,0 L3,-25 L6,0 Z" fill="#fff"/>
    <path d="M3,-25 L3,-5 L10,-5 Z" fill="#ecf0f1"/>
    <line x1="3" y1="0" x2="3" y2="-25" stroke="#7f8c8d" stroke-width="0.5"/>
    <path d="M-3,2 Q3,0 9,2 Q6,3 3,2 Q0,3 -3,2 Z" fill="#5dade2"/>
  </g>

  <!-- Overall grain overlay -->
  <rect width="900" height="650" fill="url(#grain)" opacity="0.03"/>
</svg>